<svg xmlns="http://www.w3.org/2000/svg" version="1.1" xmlnsXlink="http://www.w3.org/1999/xlink" xmlnsSvgjs="http://svgjs.dev/svgjs" viewBox="0 0 1422 800" opacity="1"><defs><linearGradient x1="50%" y1="0%" x2="50%" y2="100%" id="ccchaos-grad"><stop stop-color="#f04770" stop-opacity="1" offset="0%"></stop><stop stop-color="#9333EA" stop-opacity="1" offset="100%"></stop></linearGradient></defs><g stroke-width="1.5" stroke="url(#ccchaos-grad)" fill="none" stroke-linecap="round"><path d="M691.6 -409.5Q704.44 -402.42 717.87 -395.3 731.84 -388.16 746.3 -381.06 761.16 -374 776.32 -367.03 791.68 -360.17 807.12 -353.41 822.52 -346.79 837.74 -340.29 852.66 -333.91 867.15 -327.65 881.09 -321.49 894.38 -315.41 906.92 -309.38 918.64 -303.39 929.49 -297.42 939.44 -291.43 948.48 -285.4 956.63 -279.33 963.94 -273.19 970.47 -266.97 981.4 -254.24 991.07 -241.28 1000.21 -228.07 1010.05 -214.82 1015.82 -208.23 1022.31 -201.71 1029.68 -195.26 1038.05 -188.92 1047.51 -182.7 1058.12 -176.6 1069.94 -170.64 1082.96 -164.81 1097.16 -159.1 1112.49 -153.51 1128.84 -148 1146.11 -142.56 1164.14 -137.15 1182.76 -131.74 1201.77 -126.3 1220.98 -120.78 1240.15 -115.16 1259.07 -109.38 1277.51 -103.44 1295.27 -97.29 1312.14 -90.92 1327.94 -84.31 1342.52 -77.47 1355.76 -70.4 1367.55 -63.11 1377.85 -55.63 1386.65 -47.99 1393.95 -40.22 1399.84 -32.38 1404.4 -24.51 1409.79 -8.98 1412.83 6.11 1392.77 19.12 1374.32 32.12 1359.4 45.13 1349.55 58.13 1345.78 71.13 1348.49 84.14 1357.39 97.14 1371.56 110.15 1389.55 123.15 1409.49 136.16 1429.33 149.16 1447.02 162.17 1460.73 175.17 1469.05 188.18 1471.12 201.18 1466.73 214.18 1456.32 227.19 1440.98 240.19 1422.29 253.2 1402.17 266.2 1382.7 279.21 1365.9 292.21 1353.49 305.22 1346.76 318.22 1346.41 331.23 1352.46 344.23 1364.29 357.24 1380.69 370.24 1399.96 383.24 1420.11 396.25 1439.06 409.25 1454.85 422.26 1465.86 435.26 1470.95 448.27 1469.6 461.27 1461.93 474.28 1448.75 487.28 1431.42 500.29 1411.71 513.29 1391.68 526.3 1373.38 539.3 1358.71 552.31 1349.17 565.31 1345.76 578.32 1348.83 591.32 1358.05 604.33 1372.48 617.33 1390.63 630.34 1410.62 643.34 1430.39 656.35 1447.9 669.35 1461.35 682.36 1469.34 695.36 1471.05 708.37 1466.3 721.37 1455.58 734.38 1440.01 747.38 1421.18 760.39 1401.04 773.39 1381.67 786.4 1365.07 799.4 1352.96 812.41 1346.57 825.41 1346.58 838.42 1321.31 841.42 1314.47 839.41 1306.17 841.48 1296.58 848 1290.38 853.44 1282.89 860.27 1274.07 868.5 1263.87 878.06 1252.32 888.87 1239.46 900.8 1225.39 913.68 1210.2 927.31 1194.04 941.46 1177.07 955.88 1159.47 970.31 1141.43 984.5 1123.16 998.18 1104.85 1011.12 1086.69 1023.1 1068.88 1033.91 1051.58 1043.42 1034.96 1051.49 1019.14 1058.05 1004.24 1063.1 990.33 1066.64 977.46 1068.75 965.65 1069.55 954.91 1069.21 936.86 1065.72 921.41 1060.89 900.85 1055.78 887.09 1056.9 875.06 1066.24 861.58 1080.47 853.76 1090.43 845.22 1101.89 835.91 1114.69 825.84 1128.64 815 1143.5 803.43 1159.01 791.18 1174.88 778.3 1190.8 764.9 1206.47 751.04 1221.58 736.85 1235.85 722.42 1249 714.29 1247.82 705.64 1245.05 696.42 1240.59 686.63 1234.4 676.26 1226.49 665.33 1216.93 653.86 1205.83 641.91 1193.36 629.53 1179.73 616.8 1165.18 603.79 1149.98 590.57 1134.43 577.24 1118.82 563.87 1103.44 550.54 1088.58 537.32 1074.51 524.28 1061.48 511.48 1049.67 498.95 1039.27 486.73 1030.38 474.84 1023.07 463.28 1017.37 452.04 1013.24 441.12 1010.59 430.47 1009.29 420.07 1009.18 409.86 1010.05 399.8 1011.65 389.84 1013.73 379.92 1016.03 369.99 1018.26 360 1020.15 349.91 1021.46 339.68 1021.93 329.28 1021.37 318.69 1019.61 307.9 1016.51 296.92 1011.98 285.74 1005.99 274.41 998.53 262.93 989.66 251.36 979.48 239.73 968.12 228.08 955.76 216.48 942.6 204.97 928.87 193.59 914.8 182.4 900.66 171.42 886.68 160.69 873.12 150.23 860.2 140.05 848.11 130.15 837.05 120.52 827.15 111.13 818.5 101.95 811.18 92.93 805.19 84.02 800.52 75.16 797.1 66.27 794.82 57.28 793.54 48.12 793.1 33.87 787.35 27.42 768.94 24.38 756.46 20.21 743.97 15.35 731.49 10.3 719.01 5.58 706.53 1.67 694.05 -1 681.57 -2.19 669.09 -1.77 656.61 0.23 644.13 3.6 631.64 7.99 619.16 12.95 606.68 17.97 594.2 22.52 581.72 26.14 569.24 28.45 556.76 29.22 544.28 28.36 531.8 25.97 519.32 22.29 506.83 17.7 494.35 12.68 481.87 7.74 469.39 3.39 456.91 0.08 444.43 -1.83 431.95 -2.17 419.47 -0.89 406.99 1.86 394.51 5.82 382.03 10.57 369.54 15.63 357.06 20.46 344.58 24.57 332.1 27.54 319.62 29.06 307.14 28.97 294.66 27.28 282.18 24.17 269.7 19.95 257.22 15.07 244.74 10.03 232.26 5.34 219.78 1.49 207.29 -1.11 194.81 -2.21 182.33 -1.69 169.85 0.38 157.37 3.82 144.89 8.26 132.41 13.24 119.93 18.24 107.45 22.75 94.97 26.3 82.49 28.54 70.01 29.21 57.53 28.27 45.05 25.8 32.57 22.06 20.08 17.43 7.6 12.4 -4.87 20.93 -12.75 29.74 -20.43 38.88 -27.88 48.37 -35.07 58.25 -41.98 68.49 -48.61 79.11 -54.95 90.08 -61.02 101.37 -66.84 112.92 -72.45 124.71 -77.87 136.67 -83.15 148.74 -88.34 160.86 -93.47 172.99 -98.59 185.07 -103.75 197.04 -108.98 208.87 -114.31 220.53 -119.77 231.99 -125.39 243.24 -131.18 254.28 -137.14 265.12 -143.27 275.78 -149.56 286.28 -156 296.66 -162.57 306.96 -169.25 317.22 -176.01 327.5 -182.81 337.83 -189.64 348.27 -196.46 358.87 -203.25 369.64 -209.99 380.63 -216.65 391.86 -223.23 403.33 -229.72 415.05 -236.12 427 -242.42 439.16 -248.64 451.51 -254.79 463.99 -260.89 476.56 -266.96 489.15 -273.01 501.71 -279.08 514.17 -285.18 526.46 -291.34 538.52 -297.57 550.29 -303.88 561.71 -310.29 572.73 -316.8 583.33 -323.4 593.48 -330.09 603.18 -336.86 612.42 -343.69 621.23 -350.56 629.66 -357.44 637.74 -364.3 645.55 -371.11 653.17 -377.85 660.68 -384.48 668.17 -390.98 675.75 -397.33 687.56 -406.5 691.6 -409.5" stroke-dasharray="5 2" transform="rotate(0, 711, 400)" opacity="0.68"></path><path d="M703.95 -382.76Q717.98 -376.02 732.28 -369.26 746.76 -362.5 761.33 -355.78 775.86 -349.11 790.27 -342.52 804.44 -336.01 818.26 -329.61 831.63 -323.3 844.45 -317.1 856.66 -311 868.17 -304.98 878.93 -299.03 888.92 -293.14 898.11 -287.28 906.52 -281.43 914.17 -275.59 921.11 -269.71 932.92 -257.78 943.4 -245.65 952.95 -233.11 962.78 -220.36 968.24 -213.89 974.24 -207.38 980.9 -200.86 988.36 -194.36 996.7 -187.9 1006.01 -181.49 1016.36 -175.18 1027.76 -168.96 1040.24 -162.87 1053.77 -156.91 1068.3 -151.1 1083.76 -145.43 1100.04 -139.9 1117.03 -134.5 1134.58 -129.22 1152.53 -124.03 1170.69 -118.91 1188.89 -113.83 1206.93 -108.75 1224.61 -103.64 1241.76 -98.45 1258.19 -93.15 1273.73 -87.71 1288.25 -82.1 1301.62 -76.28 1313.74 -70.23 1324.54 -63.95 1334 -57.42 1342.11 -50.64 1348.9 -43.63 1358.3 -28.9 1364.67 -13.71 1367.7 1.8 1369.98 17.2 1352.52 29.69 1338.3 42.17 1328.69 54.65 1324.63 67.14 1326.5 79.62 1334.13 92.1 1346.77 104.59 1363.21 117.07 1381.85 129.55 1400.89 142.04 1418.49 154.52 1432.95 167 1442.87 179.49 1447.28 191.97 1445.77 204.45 1438.48 216.94 1426.11 229.42 1409.86 241.9 1391.3 254.39 1372.23 266.87 1354.49 279.35 1339.8 291.83 1329.57 304.32 1324.81 316.8 1325.96 329.28 1332.92 341.77 1345.01 354.25 1361.07 366.73 1379.54 379.22 1398.63 391.7 1416.5 404.18 1431.42 416.67 1441.95 429.15 1447.06 441.63 1446.27 454.12 1439.65 466.6 1427.83 479.08 1411.98 491.57 1393.61 504.05 1374.5 516.53 1356.5 529.02 1341.36 541.5 1330.53 553.98 1325.07 566.47 1325.51 578.95 1331.79 591.43 1343.31 603.91 1358.97 616.4 1377.23 628.88 1396.35 641.36 1414.46 653.85 1429.82 666.33 1440.94 678.81 1446.75 691.3 1446.68 703.78 1440.74 716.26 1429.51 728.75 1414.06 741.23 1395.9 753.71 1376.79 766.2 1358.56 778.68 1342.99 791.16 1331.58 803.64 1325.43 816.13 1305.93 816.65 1290.67 815.62 1268.46 821.12 1261.15 832.45 1257.46 839.83 1252.89 848.47 1247.33 858.29 1240.65 869.2 1232.81 881.07 1223.76 893.73 1213.49 906.99 1202.02 920.64 1189.4 934.46 1175.71 948.22 1161.06 961.68 1145.57 974.63 1129.38 986.84 1112.66 998.14 1095.55 1008.35 1078.25 1017.34 1060.92 1025 1043.72 1031.29 1026.82 1036.17 1010.38 1039.68 994.51 1041.87 979.34 1042.85 964.97 1042.77 951.46 1041.79 938.86 1040.13 927.2 1038 916.47 1035.66 906.66 1033.34 889.92 1030.2 875.3 1029.33 863.15 1034.16 851.74 1043.23 846.14 1050.39 840.41 1059.06 834.42 1069.16 828.07 1080.61 821.27 1093.23 813.94 1106.86 806.02 1121.26 797.47 1136.2 788.26 1151.43 778.37 1166.65 767.84 1181.61 756.68 1196.03 744.93 1209.65 732.66 1222.25 722.69 1221.05 712.13 1218.38 701.01 1214.16 689.38 1208.35 677.29 1200.95 664.8 1192.02 652 1181.65 638.95 1169.99 625.74 1157.2 612.45 1143.51 599.16 1129.14 585.95 1114.34 572.89 1099.39 560.03 1084.54 547.44 1070.05 535.14 1056.17 523.18 1043.14 511.57 1031.13 500.31 1020.34 489.4 1010.87 478.83 1002.82 468.56 996.25 458.57 991.13 448.8 987.45 439.22 985.1 429.77 983.97 420.39 983.89 411.04 984.68 401.67 986.13 392.23 988 382.68 990.06 372.98 992.05 363.11 993.74 353.05 994.91 342.8 995.33 332.35 994.83 321.71 993.24 310.91 990.44 299.96 986.35 288.9 980.92 277.77 974.15 266.61 966.06 255.46 956.73 244.37 946.27 233.37 934.82 222.51 922.56 211.82 909.66 201.32 896.35 191.04 882.84 181 869.36 171.18 856.12 161.58 843.34 152.2 831.2 142.99 819.89 133.93 809.55 124.96 800.29 116.05 792.2 107.13 785.32 98.15 779.67 89.05 775.22 79.76 771.9 70.23 769.62 60.41 768.26 50.24 767.67 48.79 755.74 46.11 743.82 42.44 731.89 38.15 719.97 33.65 708.04 29.38 696.12 25.74 684.19 23.1 672.27 21.7 660.35 21.68 648.42 23.05 636.5 25.67 624.57 29.28 612.65 33.55 600.72 38.05 588.8 42.35 576.87 46.03 564.95 48.75 553.03 50.22 541.1 50.33 529.18 49.04 517.25 46.49 505.33 42.93 493.4 38.69 481.48 34.19 469.55 29.87 457.63 26.14 445.71 23.36 433.78 21.8 421.86 21.61 409.93 22.81 398.01 25.29 386.08 28.8 374.16 33.01 362.23 37.51 350.31 41.85 338.39 45.63 326.46 48.48 314.54 50.12 302.61 50.39 290.69 49.27 278.76 46.86 266.84 43.4 254.91 39.23 242.99 34.74 231.06 30.37 219.14 26.54 207.22 23.63 195.29 21.91 183.37 21.56 171.44 22.6 159.52 24.93 147.59 28.34 135.67 32.48 123.74 36.96 111.82 41.35 99.89 45.22 87.97 48.19 76.04 49.99 64.12 50.43 52.2 49.47 40.27 47.21 28.35 43.86 16.42 39.75 4.5 48.02 -2.82 56.43 -9.89 65.05 -16.66 73.9 -23.15 83.03 -29.34 92.46 -35.25 102.21 -40.89 112.26 -46.3 122.61 -51.5 133.23 -56.54 144.11 -61.46 155.2 -66.29 166.47 -71.09 177.85 -75.9 189.32 -80.76 200.81 -85.7 212.29 -90.77 223.7 -95.98 235.02 -101.35 246.2 -106.91 257.22 -112.65 268.06 -118.58 278.72 -124.68 289.19 -130.94 299.48 -137.35 309.62 -143.88 319.63 -150.51 329.54 -157.2 339.38 -163.93 349.2 -170.67 359.05 -177.39 368.97 -184.07 379 -190.68 389.19 -197.22 399.57 -203.67 410.17 -210.01 421.01 -216.26 432.11 -222.41 443.48 -228.47 455.11 -234.45 466.98 -240.37 479.06 -246.25 491.33 -252.1 503.74 -257.95 516.23 -263.81 528.75 -269.72 541.23 -275.67 553.61 -281.69 565.82 -287.79 577.79 -293.97 589.47 -300.23 600.8 -306.57 611.73 -312.99 622.23 -319.46 632.26 -325.97 641.81 -332.5 650.89 -339.03 659.5 -345.54 667.67 -351.99 675.46 -358.37 682.9 -364.65 690.08 -370.82 700.51 -379.81 703.95 -382.76" stroke-dasharray="8 8" transform="rotate(3.3666666666666667, 711, 400)" opacity="0.72"></path><path d="M719.31 -356.01Q733 -349.6 746.57 -343.2 759.92 -336.81 772.98 -330.46 785.66 -324.17 797.87 -317.94 809.55 -311.79 820.63 -305.73 831.08 -299.75 840.86 -293.85 849.95 -288.03 858.36 -282.26 866.1 -276.55 873.21 -270.87 885.55 -259.52 896.62 -248.1 906.62 -236.43 916.68 -224.53 928.11 -212.21 941.09 -199.68 948.74 -193.31 957.2 -186.9 966.53 -180.49 976.78 -174.09 987.97 -167.72 1000.11 -161.41 1013.16 -155.18 1027.1 -149.06 1041.86 -143.06 1057.34 -137.2 1073.44 -131.49 1090.05 -125.93 1107.01 -120.53 1124.18 -115.27 1141.4 -110.16 1158.51 -105.17 1175.33 -100.29 1191.71 -95.47 1207.49 -90.71 1222.52 -85.95 1236.68 -81.16 1249.84 -76.31 1261.92 -71.36 1272.85 -66.27 1282.59 -61.02 1291.12 -55.56 1304.08 -43.83 1313.82 -31.35 1319.3 -17.65 1323.12 -3.29 1326.06 11.81 1329.67 27.11 1316.39 39.04 1307.37 50.97 1303.43 62.9 1304.92 74.82 1311.71 86.75 1323.18 98.68 1338.3 110.61 1355.69 122.54 1373.79 134.47 1390.96 146.4 1405.65 158.33 1416.52 170.25 1422.6 182.18 1423.33 194.11 1418.65 206.04 1408.99 217.97 1395.21 229.9 1378.56 241.83 1360.55 253.76 1342.81 265.69 1326.93 277.61 1314.37 289.54 1306.24 301.47 1303.3 313.4 1305.79 325.33 1313.51 337.26 1325.75 349.19 1341.39 361.12 1359.04 373.04 1377.09 384.97 1393.91 396.9 1407.98 408.83 1418.03 420.76 1423.15 432.69 1422.87 444.62 1417.22 456.54 1406.71 468.47 1392.3 480.4 1375.28 492.33 1357.19 504.26 1339.68 516.19 1324.32 528.12 1312.5 540.05 1305.29 551.97 1303.35 563.9 1306.84 575.83 1315.46 587.76 1328.43 599.69 1344.56 611.62 1362.41 623.55 1380.35 635.47 1396.77 647.4 1410.18 659.33 1419.37 671.26 1423.51 683.19 1422.22 695.12 1415.62 707.05 1404.3 718.97 1389.3 730.9 1371.96 742.83 1353.86 754.76 1336.63 766.69 1321.82 778.62 1310.79 790.55 1297.36 790.19 1285.26 789.56 1274.5 788.82 1265.09 788.16 1243.1 790.21 1232.33 795.64 1227.3 806.27 1222.73 820.37 1220.24 829.4 1217.36 839.45 1213.94 850.44 1209.82 862.22 1204.89 874.63 1199.03 887.5 1192.18 900.63 1184.28 913.84 1175.29 926.9 1165.23 939.61 1154.1 951.79 1141.96 963.25 1128.88 973.82 1114.95 983.37 1100.27 991.78 1084.96 998.97 1069.17 1004.89 1053.04 1009.53 1036.7 1012.91 1020.31 1015.09 1004.02 1016.17 987.95 1016.26 972.25 1015.52 957.03 1014.12 942.39 1012.28 928.42 1010.19 915.19 1008.09 902.74 1006.19 891.11 1004.72 880.3 1003.89 870.3 1003.88 861.09 1004.88 845.08 1011.13 830.84 1021.37 824.52 1028.91 818.49 1037.82 812.66 1048.01 806.89 1059.38 801.1 1071.79 795.17 1085.05 789.01 1098.98 782.54 1113.35 775.66 1127.92 768.33 1142.45 760.49 1156.71 752.1 1170.45 743.15 1183.45 733.63 1195.51 721.72 1194.27 709.39 1191.7 696.74 1187.71 683.82 1182.26 670.73 1175.35 657.54 1167.03 644.34 1157.36 631.19 1146.47 618.18 1134.52 605.36 1121.66 592.79 1108.12 580.53 1094.1 568.6 1079.84 557.02 1065.56 545.83 1051.52 535.01 1037.92 524.55 1024.99 514.45 1012.91 504.67 1001.84 495.18 991.92 485.93 983.26 476.88 975.91 467.98 969.92 459.18 965.26 450.42 961.89 441.65 959.74 432.83 958.67 423.92 958.56 414.87 959.23 405.66 960.49 396.27 962.14 386.68 963.97 376.88 965.74 366.89 967.27 356.7 968.33 346.34 968.75 335.83 968.35 325.2 966.99 314.49 964.55 303.73 960.94 292.96 956.12 282.23 950.07 271.56 942.8 260.99 934.36 250.55 924.84 240.28 914.35 230.18 903.02 220.27 891.03 210.55 878.53 201.02 865.73 191.67 852.82 182.48 839.99 173.41 827.44 164.44 815.35 155.53 803.89 146.62 793.2 137.68 783.42 128.64 774.63 119.48 766.92 110.12 760.31 100.54 754.83 90.69 750.43 80.53 747.08 70.04 744.69 67.62 733.28 64.38 721.87 60.6 710.45 56.63 699.04 52.83 687.63 49.54 676.22 47.05 664.81 45.61 653.4 45.32 641.99 46.23 630.58 48.25 619.17 51.19 607.75 54.79 596.34 58.72 584.93 62.64 573.52 66.18 562.11 69.02 550.7 70.91 539.29 71.68 527.88 71.25 516.46 69.67 505.05 67.08 493.64 63.71 482.23 59.87 470.82 55.9 459.41 52.17 448 49.01 436.59 46.7 425.17 45.46 413.76 45.4 402.35 46.52 390.94 48.73 379.53 51.81 368.12 55.5 356.71 59.46 345.3 63.33 333.88 66.76 322.47 69.45 311.06 71.14 299.65 71.69 288.24 71.04 276.83 69.26 265.42 66.5 254 63.02 242.59 59.13 231.18 55.18 219.77 51.53 208.36 48.51 196.95 46.39 185.54 45.36 174.13 45.52 162.71 46.86 151.3 49.24 139.89 52.46 128.48 56.23 117.07 60.2 105.66 64.01 94.25 67.33 82.83 69.84 71.42 71.33 60.01 71.66 48.6 70.79 37.19 68.82 25.78 65.9 14.37 74.13 7.76 82.38 1.46 90.72 -4.53 99.19 -10.24 107.84 -15.68 116.69 -20.87 125.77 -25.84 135.11 -30.63 144.69 -35.28 154.53 -39.83 164.61 -44.32 174.9 -48.81 185.4 -53.32 196.05 -57.91 206.83 -62.61 217.7 -67.44 228.62 -72.43 239.54 -77.6 250.43 -82.96 261.25 -88.52 271.96 -94.28 282.54 -100.22 292.97 -106.33 303.24 -112.6 313.33 -119 323.25 -125.5 333.01 -132.08 342.62 -138.71 352.11 -145.36 361.5 -152.01 370.84 -158.62 380.17 -165.17 389.52 -171.65 398.93 -178.03 408.46 -184.31 418.13 -190.49 428 -196.56 438.09 -202.52 448.42 -208.39 459.03 -214.17 469.91 -219.87 481.08 -225.53 492.53 -231.15 504.23 -236.75 516.16 -242.36 528.29 -247.99 540.58 -253.66 552.97 -259.37 565.4 -265.16 577.81 -271.01 590.15 -276.94 602.33 -282.94 614.3 -289 626 -295.13 637.36 -301.3 648.33 -307.51 658.88 -313.72 668.96 -319.93 678.55 -326.12 687.65 -332.26 696.25 -338.34 704.37 -344.33 715.68 -353.11 719.31 -356.01" stroke-dasharray="1 7" transform="rotate(6.733333333333333, 711, 400)" opacity="0.23"></path><path d="M731.11 -329.26Q743.01 -323.18 754.51 -317.12 765.54 -311.08 776.05 -305.1 786.02 -299.16 795.41 -293.3 804.2 -287.5 812.41 -281.77 820.04 -276.12 827.13 -270.53 839.67 -259.51 851.08 -248.57 861.47 -237.63 871.84 -226.57 883.24 -215.2 895.87 -203.58 903.14 -197.61 911.09 -191.56 919.77 -185.43 929.24 -179.22 939.52 -172.96 950.63 -166.67 962.57 -160.35 975.31 -154.04 988.8 -147.75 1003 -141.52 1017.82 -135.36 1033.16 -129.3 1048.92 -123.36 1064.98 -117.56 1081.21 -111.9 1097.48 -106.41 1113.63 -101.08 1129.53 -95.92 1145.04 -90.92 1160.03 -86.06 1174.37 -81.34 1187.94 -76.73 1200.65 -72.21 1212.41 -67.74 1223.16 -63.29 1232.85 -58.83 1248.51 -49.66 1261.06 -40.13 1269.08 -29.66 1274.99 -18.5 1278.8 -6.05 1282.33 7.14 1287.15 21.42 1293.76 36.17 1285.62 47.53 1282.16 58.9 1283.65 70.26 1289.99 81.62 1300.62 92.99 1314.66 104.35 1330.93 115.71 1348.04 127.08 1364.55 138.44 1379.08 149.8 1390.4 161.17 1397.55 172.53 1399.93 183.89 1397.34 195.26 1390 206.62 1378.52 217.98 1363.88 229.35 1347.31 240.71 1330.2 252.07 1314.01 263.44 1300.09 274.8 1289.62 286.16 1283.49 297.53 1282.2 308.89 1285.88 320.25 1294.2 331.62 1306.47 342.98 1321.65 354.34 1338.47 365.71 1355.49 377.07 1371.3 388.44 1384.54 399.8 1394.12 411.16 1399.21 422.53 1399.4 433.89 1394.65 445.25 1385.39 456.62 1372.37 467.98 1356.71 479.34 1339.73 490.71 1322.85 502.07 1307.5 513.43 1294.98 524.8 1286.34 536.16 1282.31 547.52 1283.23 558.89 1289.02 570.25 1299.19 581.62 1312.89 592.98 1328.97 604.34 1346.05 615.71 1362.71 627.07 1377.54 638.43 1389.29 649.8 1396.96 661.16 1399.91 672.52 1397.89 683.89 1391.08 695.25 1380.04 706.62 1365.7 717.98 1349.28 729.34 1332.17 740.71 1315.79 752.07 1301.55 763.43 1286.19 762.88 1271.89 762.42 1258.72 762.23 1246.73 762.46 1235.94 763.26 1226.35 764.77 1211.17 770.83 1199.08 779.84 1191.09 794.07 1184.75 811.35 1182.16 821.59 1179.65 832.6 1177.06 844.25 1174.23 856.37 1171.03 868.81 1167.32 881.39 1162.97 893.94 1157.89 906.27 1151.98 918.21 1145.19 929.59 1137.47 940.26 1128.79 950.07 1119.15 958.91 1108.57 966.69 1097.1 973.34 1084.78 978.84 1071.7 983.16 1057.93 986.34 1043.59 988.43 1028.79 989.51 1013.65 989.7 998.28 989.13 982.82 987.96 967.4 986.36 952.12 984.52 937.1 982.64 922.46 980.9 908.28 979.51 894.64 978.66 881.62 978.52 869.25 979.25 857.58 980.98 846.62 983.84 836.38 987.9 826.84 993.21 817.97 999.81 809.73 1007.66 802.06 1016.74 794.89 1026.95 788.15 1038.2 781.74 1050.34 775.59 1063.22 769.61 1076.65 763.69 1090.43 757.74 1104.35 751.7 1118.21 745.46 1131.78 738.96 1144.85 732.13 1157.24 724.92 1168.76 711.92 1167.5 698.84 1165.02 685.74 1161.25 672.72 1156.14 659.83 1149.7 647.14 1141.95 634.71 1132.96 622.58 1122.82 610.8 1111.67 599.39 1099.64 588.36 1086.91 577.73 1073.68 567.5 1060.13 557.64 1046.49 548.14 1032.94 538.96 1019.71 530.07 1006.98 521.43 994.92 512.98 983.71 504.68 973.47 496.47 964.31 488.31 956.33 480.14 949.55 471.92 944.01 463.61 939.68 455.16 936.53 446.55 934.47 437.75 933.41 428.75 933.2 419.54 933.71 410.1 934.76 400.47 936.18 390.63 937.77 380.62 939.36 370.45 940.74 360.16 941.73 349.78 942.18 339.34 941.92 328.88 940.82 318.43 938.76 308.04 935.67 297.72 931.49 287.52 926.19 277.44 919.76 267.52 912.25 257.75 903.7 248.15 894.2 238.72 883.87 229.44 872.83 220.3 861.22 211.28 849.21 202.35 836.96 193.48 824.65 184.63 812.45 175.77 800.53 166.84 789.04 157.82 778.14 148.66 767.95 139.32 758.58 129.77 750.12 119.98 742.63 109.93 736.15 99.6 730.68 88.98 726.22 86.09 715.27 82.77 704.31 79.31 693.36 75.98 682.41 73.08 671.46 70.84 660.5 69.46 649.55 69.05 638.6 69.65 627.64 71.2 616.69 73.58 605.74 76.59 594.78 79.96 583.83 83.42 572.88 86.68 561.92 89.45 550.97 91.51 540.02 92.69 529.07 92.87 518.11 92.06 507.16 90.31 496.21 87.77 485.25 84.66 474.3 81.24 463.35 77.8 452.39 74.63 441.44 71.99 430.49 70.12 419.53 69.16 408.58 69.19 397.63 70.22 386.68 72.16 375.72 74.85 364.77 78.05 353.82 81.5 342.86 84.9 331.91 87.98 320.96 90.46 310 92.15 299.05 92.89 288.1 92.63 277.15 91.39 266.19 89.27 255.24 86.45 244.29 83.17 233.33 79.71 222.38 76.35 211.43 73.38 200.48 71.06 189.52 69.57 178.57 69.05 167.62 69.53 156.66 70.98 145.71 73.27 134.76 76.21 123.81 79.56 112.85 83.02 101.9 86.32 90.95 89.16 79.99 91.32 69.04 92.6 58.09 92.9 47.13 92.2 36.18 90.55 25.23 98.87 19.46 107.13 13.99 115.38 8.8 123.67 3.86 132.04 -0.85 140.53 -5.38 149.16 -9.75 157.98 -14.02 166.99 -18.22 176.2 -22.4 185.62 -26.6 195.24 -30.85 205.06 -35.21 215.05 -39.69 225.19 -44.32 235.45 -49.14 245.8 -54.14 256.22 -59.35 266.65 -64.77 277.07 -70.38 287.44 -76.19 297.73 -82.18 307.92 -88.33 317.97 -94.61 327.87 -101.01 337.61 -107.48 347.18 -114.02 356.58 -120.58 365.82 -127.13 374.92 -133.66 383.89 -140.13 392.76 -146.53 401.57 -152.84 410.35 -159.04 419.14 -165.13 427.98 -171.1 436.92 -176.96 445.99 -182.7 455.24 -188.34 464.7 -193.88 474.4 -199.35 484.37 -204.76 494.63 -210.12 505.19 -215.45 516.04 -220.78 527.19 -226.13 538.62 -231.5 550.31 -236.91 562.23 -242.38 574.32 -247.91 586.55 -253.51 598.87 -259.17 611.21 -264.91 623.5 -270.71 635.7 -276.56 647.72 -282.45 659.51 -288.37 671 -294.31 682.14 -300.24 692.88 -306.15 703.17 -312.02 712.99 -317.84 726.71 -326.42 731.11 -329.26" stroke-dasharray="2 9" transform="rotate(10.100000000000001, 711, 400)" opacity="0.92"></path><path d="M734.3 -302.5Q743.67 -296.74 752.55 -291.01 760.92 -285.32 768.79 -279.68 782.89 -268.61 795.73 -257.73 807.02 -247.13 817.8 -236.65 828.56 -226.23 839.84 -215.76 846.01 -210.46 852.6 -205.09 859.71 -199.65 867.38 -194.13 875.69 -188.51 884.66 -182.79 894.35 -176.98 904.75 -171.07 915.87 -165.08 927.71 -159 940.23 -152.87 953.38 -146.68 967.12 -140.47 981.36 -134.25 996.02 -128.05 1011.02 -121.88 1026.23 -115.78 1041.56 -109.77 1056.87 -103.86 1072.06 -98.09 1087.01 -92.45 1101.58 -86.98 1115.68 -81.68 1129.19 -76.55 1142.01 -71.6 1154.07 -66.81 1165.3 -62.19 1175.63 -57.7 1185.03 -53.34 1193.48 -49.08 1207.11 -40.75 1218.1 -32.42 1229.25 -16.8 1235.16 -4.77 1239.48 6.25 1244.7 18.06 1252.86 31.15 1263.53 44.9 1260.84 55.71 1262.68 66.52 1268.89 77.33 1279 88.14 1292.2 98.95 1307.47 109.76 1323.61 120.57 1339.34 131.37 1353.43 142.18 1364.79 152.99 1372.51 163.8 1376 174.61 1374.97 185.42 1369.51 196.23 1360.05 207.04 1347.33 217.85 1332.34 228.66 1316.27 239.47 1300.38 250.28 1285.9 261.09 1273.99 271.9 1265.56 282.7 1261.29 293.51 1261.51 304.32 1266.19 315.13 1274.99 325.94 1287.19 336.75 1301.85 347.56 1317.82 358.37 1333.84 369.18 1348.66 379.99 1361.11 390.8 1370.22 401.61 1375.26 412.42 1375.86 423.23 1371.95 434.04 1363.85 444.85 1352.19 455.65 1337.88 466.46 1322.06 477.27 1305.95 488.08 1290.83 498.89 1277.88 509.7 1268.12 520.51 1262.31 531.32 1260.91 542.13 1264.02 552.94 1271.41 563.75 1282.5 574.56 1296.41 585.37 1312.05 596.18 1328.2 606.99 1343.58 617.8 1357 628.61 1367.4 639.42 1373.96 650.23 1376.17 661.03 1373.85 671.84 1367.19 682.65 1356.71 693.46 1343.23 704.27 1327.81 715.08 1311.65 725.89 1296.04 736.7 1279.6 736.75 1263.88 737.21 1248.97 738.21 1234.97 739.87 1221.95 742.29 1209.97 745.55 1199.06 749.71 1189.21 754.82 1180.43 760.89 1172.67 767.92 1165.88 775.88 1159.98 784.73 1154.89 794.38 1150.5 804.74 1146.7 815.7 1143.35 827.14 1140.33 838.91 1137.5 850.87 1134.73 862.85 1131.87 874.71 1128.81 886.27 1125.4 897.4 1121.54 907.94 1117.13 917.78 1112.08 926.79 1106.31 934.89 1099.77 942 1092.41 948.07 1084.22 953.08 1075.18 957.03 1065.31 959.94 1054.64 961.87 1043.2 962.91 1031.07 963.13 1018.31 962.68 1005 961.68 991.23 960.29 977.11 958.68 962.74 957.01 948.22 955.45 933.66 954.18 919.16 953.38 904.82 953.18 890.74 953.74 877 955.19 863.68 957.62 850.84 961.13 838.54 965.76 826.82 971.56 815.7 978.52 805.19 986.61 795.31 995.79 786.03 1005.97 777.33 1017.04 769.17 1028.88 761.51 1041.34 754.29 1054.25 747.45 1067.44 740.91 1080.72 734.61 1093.9 728.47 1106.8 722.42 1119.22 716.36 1131.01 710.24 1142 697.56 1140.72 685.1 1138.33 672.92 1134.77 661.07 1129.99 649.57 1123.99 638.46 1116.79 627.75 1108.44 617.45 1099.03 607.56 1088.65 598.07 1077.43 588.95 1065.51 580.17 1053.06 571.71 1040.26 563.52 1027.27 555.55 1014.29 547.76 1001.48 540.09 989.04 532.51 977.12 524.94 965.88 517.36 955.44 509.7 945.93 501.94 937.42 494.03 929.99 485.94 923.67 477.66 918.47 469.16 914.38 460.44 911.35 451.48 909.31 442.3 908.18 432.91 907.83 423.31 908.15 413.54 908.97 403.62 910.15 393.57 911.52 383.44 912.91 373.24 914.16 363.03 915.11 352.82 915.6 342.66 915.5 332.56 914.68 322.56 913.03 312.68 910.47 302.93 906.94 293.33 902.4 283.87 896.83 274.57 890.26 265.4 882.71 256.37 874.25 247.45 864.95 238.61 854.92 229.84 844.27 221.1 833.14 212.36 821.66 203.59 809.98 194.76 798.27 185.82 786.65 176.74 775.3 167.51 764.33 158.09 753.89 148.46 744.08 138.6 735.01 128.52 726.75 118.19 719.36 107.64 712.87 104.75 702.32 101.76 691.77 98.91 681.22 96.41 670.66 94.47 660.11 93.24 649.56 92.81 639 93.22 628.45 94.44 617.9 96.36 607.35 98.84 596.79 101.69 586.24 104.68 575.69 107.57 565.13 110.15 554.58 112.2 544.03 113.57 533.48 114.14 522.92 113.88 512.37 112.81 501.82 111 491.27 108.6 480.71 105.81 470.16 102.83 459.61 99.9 449.05 97.25 438.5 95.09 427.95 93.59 417.4 92.87 406.84 92.98 396.29 93.91 385.74 95.6 375.19 97.9 364.63 100.64 354.08 103.61 343.53 106.56 332.97 109.28 322.42 111.54 311.87 113.16 301.32 114.03 290.76 114.07 280.21 113.28 269.66 111.72 259.11 109.52 248.55 106.84 238 103.9 227.45 100.92 216.9 98.15 206.34 95.8 195.79 94.04 185.24 93.03 174.68 92.84 164.13 93.49 153.58 94.92 143.03 97.02 132.47 99.63 121.92 102.54 111.37 105.52 100.82 108.35 90.26 110.79 79.71 112.66 69.16 113.81 58.61 118.13 40.32 130.46 27.93 138.73 23.5 146.96 19.25 155.2 15.16 163.48 11.18 171.84 7.27 180.31 3.39 188.91 -0.5 197.65 -4.45 206.56 -8.49 215.64 -12.65 224.89 -16.96 234.31 -21.45 243.88 -26.13 253.59 -31.01 263.41 -36.11 273.33 -41.41 283.32 -46.93 293.34 -52.63 303.36 -58.52 313.35 -64.57 323.29 -70.76 333.14 -77.05 342.87 -83.43 352.47 -89.87 361.92 -96.33 371.2 -102.79 380.32 -109.22 389.26 -115.6 398.03 -121.9 406.65 -128.12 415.13 -134.22 423.49 -140.2 431.78 -146.06 440 -151.8 448.22 -157.41 456.45 -162.9 464.75 -168.28 473.15 -173.56 481.7 -178.76 490.44 -183.89 499.39 -188.97 508.59 -194.02 518.08 -199.07 527.86 -204.11 537.95 -209.18 548.37 -214.29 559.09 -219.44 570.13 -224.66 581.45 -229.94 593.03 -235.29 604.83 -240.71 616.82 -246.19 628.94 -251.74 641.14 -257.34 653.37 -262.98 665.55 -268.65 677.63 -274.34 689.55 -280.03 701.23 -285.7 712.62 -291.34 728.98 -299.72 734.3 -302.5" stroke-dasharray="9 5" transform="rotate(13.466666666666667, 711, 400)" opacity="0.90"></path><path d="M727.52 -275.75Q741.07 -264.92 753.61 -254.24 764.94 -243.84 775.9 -233.62 786.96 -223.64 798.52 -213.74 811.63 -203.85 826.06 -193.88 834.18 -188.8 842.88 -183.65 852.19 -178.42 862.12 -173.1 872.68 -167.67 883.86 -162.15 895.63 -156.51 907.97 -150.78 920.83 -144.95 934.15 -139.03 947.86 -133.03 961.88 -126.98 976.13 -120.88 990.53 -114.77 1004.96 -108.65 1019.33 -102.56 1033.54 -96.51 1047.49 -90.54 1061.07 -84.65 1074.2 -78.89 1086.78 -73.26 1098.74 -67.78 1110.01 -62.47 1120.54 -57.33 1130.27 -52.37 1139.18 -47.59 1154.08 -38.63 1166.55 -30.13 1180.31 -16.39 1187.69 -6.68 1196.19 8.04 1203.49 19.47 1212.55 30.02 1223.99 41.36 1231.3 47.5 1239.61 53.88 1242.04 64.17 1248.4 74.45 1258.23 84.74 1270.81 95.02 1285.21 105.31 1300.41 115.6 1315.28 125.88 1328.75 136.17 1339.83 146.45 1347.73 156.74 1351.85 167.03 1351.92 177.31 1347.91 187.6 1340.12 197.88 1329.12 208.17 1315.71 218.46 1300.86 228.74 1285.66 239.03 1271.21 249.31 1258.57 259.6 1248.65 269.89 1242.18 280.17 1239.62 290.46 1241.17 300.75 1246.71 311.03 1255.83 321.32 1267.88 331.6 1281.98 341.89 1297.1 352.18 1312.13 362.46 1326 372.75 1337.67 383.03 1346.32 393.32 1351.3 403.61 1352.25 413.89 1349.11 424.18 1342.11 434.46 1331.74 444.75 1318.78 455.04 1304.15 465.32 1288.93 475.61 1274.23 485.9 1261.11 496.18 1250.53 506.47 1243.26 516.75 1239.83 527.04 1240.48 537.33 1245.18 547.61 1253.58 557.9 1265.06 568.18 1278.8 578.47 1293.79 588.76 1308.94 599.04 1323.14 609.33 1335.37 619.62 1344.74 629.9 1350.55 640.19 1352.4 650.47 1350.13 660.76 1343.93 671.05 1334.24 681.33 1321.76 691.62 1307.41 701.91 1292.23 712.19 1275.63 713.47 1259.38 715.37 1243.59 717.98 1228.38 721.37 1213.85 725.58 1200.09 730.65 1187.18 736.6 1175.15 743.41 1164.05 751.06 1153.9 759.51 1144.7 768.69 1136.43 778.52 1129.05 788.9 1122.52 799.73 1116.77 810.88 1111.71 822.23 1107.27 833.63 1103.34 844.95 1099.81 856.06 1096.57 866.81 1093.5 877.08 1090.5 886.76 1084.06 903.49 1076.8 917.65 1067.26 927.11 1055.91 933.71 1041.1 936.01 1024.09 936.2 1014.32 935.33 1003.86 934.12 992.75 932.71 981.06 931.24 968.84 929.87 956.16 928.76 943.11 928.04 929.77 927.85 916.22 928.33 902.56 929.59 888.87 931.72 875.25 934.81 861.76 938.91 848.5 944.05 835.53 950.25 822.92 957.5 810.72 965.76 798.98 974.97 787.72 985.05 776.99 995.91 766.78 1007.41 757.1 1019.42 747.95 1031.81 739.29 1044.4 731.12 1057.04 723.39 1069.56 716.05 1081.79 709.06 1093.58 702.36 1104.78 695.89 1115.25 684.84 1113.96 674.19 1111.66 663.96 1108.29 654.15 1103.82 644.76 1098.24 635.77 1091.57 627.15 1083.83 618.9 1075.11 610.96 1065.48 603.3 1055.04 595.87 1043.93 588.63 1032.26 581.52 1020.21 574.5 1007.91 567.52 995.53 560.53 983.22 553.48 971.15 546.34 959.46 539.05 948.3 531.6 937.79 523.95 928.04 516.08 919.15 507.98 911.19 499.64 904.21 491.06 898.24 482.24 893.29 473.18 889.35 463.92 886.37 454.46 884.29 444.83 883.04 435.06 882.51 425.18 882.6 415.22 883.18 405.22 884.11 395.2 885.25 385.19 886.46 375.23 887.58 365.34 888.49 355.55 889.03 345.86 889.09 336.31 888.54 326.89 887.3 317.62 885.27 308.48 882.38 299.48 878.61 290.61 873.9 281.84 868.28 273.17 861.74 264.56 854.33 256 846.11 247.45 837.14 238.89 827.53 230.28 817.36 221.61 806.76 212.84 795.85 203.94 784.75 194.9 773.61 185.7 762.55 176.31 751.71 166.75 741.2 156.99 731.13 147.04 721.62 136.91 712.74 126.61 704.58 124.08 694.38 121.69 684.17 119.61 673.96 117.99 663.76 116.96 653.55 116.58 643.35 116.89 633.14 117.86 622.93 119.42 612.73 121.46 602.52 123.83 592.31 126.35 582.11 128.85 571.9 131.14 561.7 133.06 551.49 134.46 541.28 135.24 531.08 135.35 520.87 134.78 510.66 133.57 500.46 131.8 490.25 129.61 480.05 127.16 469.84 124.62 459.63 122.19 449.43 120.02 439.22 118.3 429.01 117.13 418.81 116.6 408.6 116.76 398.4 117.59 388.19 119.03 377.98 120.98 367.78 123.29 357.57 125.8 347.37 128.32 337.16 130.67 326.95 132.68 316.75 134.2 306.54 135.13 296.33 135.39 286.13 134.96 275.92 133.88 265.72 132.23 255.51 130.12 245.3 127.71 235.1 125.17 224.89 122.7 214.69 120.46 204.48 118.63 194.27 117.33 184.07 116.66 173.86 116.67 163.66 117.36 153.45 118.67 143.24 120.52 133.04 122.77 122.83 125.25 112.63 127.78 102.42 130.19 92.21 132.28 82.01 133.92 71.8 139.47 54.43 152.39 43.32 160.71 39.53 168.94 35.84 177.13 32.22 185.29 28.62 193.48 25.01 201.71 21.34 210.02 17.59 218.42 13.72 226.94 9.7 235.58 5.5 244.37 1.11 253.3 -3.47 262.38 -8.27 271.6 -13.3 280.94 -18.53 290.4 -23.97 299.96 -29.61 309.58 -35.42 319.26 -41.39 328.95 -47.49 338.63 -53.7 348.28 -59.98 357.87 -66.32 367.36 -72.68 376.74 -79.03 385.98 -85.36 395.06 -91.62 403.98 -97.81 412.72 -103.91 421.28 -109.89 429.66 -115.75 437.87 -121.48 445.92 -127.07 453.84 -132.53 461.63 -137.86 469.34 -143.07 477 -148.16 484.64 -153.16 492.29 -158.07 500.01 -162.91 507.83 -167.7 515.78 -172.46 523.91 -177.2 532.26 -181.95 540.85 -186.72 549.73 -191.52 558.9 -196.37 568.39 -201.28 578.21 -206.26 588.36 -211.3 598.84 -216.42 609.63 -221.61 620.73 -226.87 632.1 -232.19 643.7 -237.57 655.5 -242.99 667.46 -248.44 679.51 -253.92 691.6 -259.4 703.67 -264.87 721.6 -273.04 727.52 -275.75" stroke-dasharray="4 11" transform="rotate(16.833333333333332, 711, 400)" opacity="0.26"></path><path d="M713.67 -249Q724.97 -238.79 736.08 -228.75 747.45 -219 759.35 -209.43 772.7 -200.06 787.25 -190.75 795.32 -186.1 803.89 -181.42 813 -176.71 822.64 -171.95 832.82 -167.12 843.53 -162.21 854.75 -157.21 866.46 -152.12 878.61 -146.91 891.16 -141.6 904.05 -136.17 917.22 -130.64 930.59 -125 944.1 -119.26 957.65 -113.43 971.17 -107.53 984.57 -101.58 997.77 -95.58 1010.68 -89.57 1023.22 -83.56 1035.31 -77.58 1046.89 -71.65 1057.9 -65.8 1068.27 -60.04 1077.97 -54.4 1086.97 -48.89 1095.24 -43.54 1102.78 -38.36 1115.36 -28.62 1125.91 -19.44 1138.17 -5.33 1145.26 4.09 1154.97 16.7 1163.46 25.97 1173.54 34.17 1185.87 42.96 1193.5 47.77 1202.03 52.82 1211.48 58.14 1221.86 63.73 1228.57 73.53 1238.31 83.34 1250.42 93.15 1264.09 102.96 1278.38 112.76 1292.35 122.57 1305.05 132.38 1315.62 142.18 1323.36 151.99 1327.74 161.8 1328.46 171.61 1325.49 181.41 1319.01 191.22 1309.47 201.03 1297.51 210.83 1283.93 220.64 1269.65 230.45 1255.62 240.26 1242.8 250.06 1232.05 259.87 1224.09 269.68 1219.45 279.48 1218.45 289.29 1221.16 299.1 1227.4 308.91 1236.73 318.71 1248.55 328.52 1262.04 338.33 1276.3 348.13 1290.38 357.94 1303.31 367.75 1314.24 377.55 1322.43 387.36 1327.32 397.17 1328.59 406.98 1326.15 416.78 1320.16 426.59 1311.03 436.4 1299.37 446.2 1285.97 456.01 1271.73 465.82 1257.61 475.62 1244.56 485.43 1233.46 495.24 1225.05 505.05 1219.91 514.85 1218.37 524.66 1220.54 534.47 1226.28 544.27 1235.2 554.08 1246.7 563.89 1260 573.69 1274.21 583.5 1288.37 593.31 1301.53 603.12 1312.81 612.92 1321.43 622.73 1326.83 632.54 1328.64 642.34 1326.73 652.15 1321.24 661.96 1312.53 671.76 1301.2 681.57 1288 691.38 1272.12 694.26 1256.24 697.87 1240.48 702.23 1224.97 707.37 1209.8 713.31 1195.09 720.01 1180.92 727.47 1167.38 735.64 1154.53 744.46 1142.44 753.86 1131.15 763.75 1120.67 774.03 1111.04 784.62 1102.23 795.38 1094.24 806.2 1087.04 816.97 1080.59 827.56 1074.82 837.86 1069.67 847.75 1065.07 857.14 1057.31 873.63 1050.38 887.87 1038.53 902.76 1028.98 909.1 1018.93 909.79 1007.24 908.92 992.49 906.61 975.83 904.18 966.41 903.23 956.39 902.64 945.82 902.52 934.74 902.98 923.21 904.13 911.28 906.06 899.03 908.84 886.51 912.52 873.82 917.14 861.01 922.72 848.17 929.25 835.36 936.72 822.66 945.07 810.13 954.25 797.84 964.18 785.83 974.77 774.15 985.9 762.85 997.45 751.95 1009.3 741.49 1021.29 731.47 1033.29 721.91 1045.16 712.79 1056.75 704.11 1067.92 695.85 1078.54 687.99 1088.5 671.11 1084.5 655.36 1077.63 648.05 1072.45 641 1066.27 634.18 1059.12 627.54 1051.06 621.02 1042.14 614.58 1032.47 608.17 1022.13 601.74 1011.25 595.26 999.95 588.66 988.36 581.93 976.62 575.03 964.87 567.92 953.24 560.59 941.87 553.02 930.89 545.2 920.42 537.12 910.56 528.79 901.42 520.2 893.06 511.39 885.55 502.35 878.93 493.11 873.23 483.69 868.45 474.13 864.58 464.45 861.59 454.68 859.41 444.85 858 435 857.26 425.15 857.1 415.34 857.42 405.58 858.09 395.91 858.99 386.34 860.01 376.88 861 367.56 861.85 358.38 862.44 349.33 862.64 340.43 862.36 331.65 861.5 323.01 859.98 314.47 857.72 306.02 854.68 297.65 850.83 289.33 846.14 281.04 840.62 272.75 834.28 264.44 827.16 256.08 819.3 247.65 810.77 239.12 801.65 230.49 792.03 221.73 782.01 212.82 771.69 203.77 761.19 194.56 750.62 185.19 740.09 175.68 729.71 166.02 719.61 156.24 709.87 146.34 700.59 144.39 690.69 142.72 680.78 141.44 670.88 140.63 660.98 140.34 651.08 140.61 641.18 141.41 631.28 142.68 621.38 144.35 611.48 146.29 601.57 148.38 591.67 150.48 581.77 152.44 571.87 154.14 561.97 155.46 552.07 156.3 542.17 156.62 532.27 156.4 522.37 155.64 512.46 154.4 502.56 152.76 492.66 150.83 482.76 148.75 472.86 146.64 462.96 144.66 453.06 142.94 443.16 141.6 433.25 140.71 423.35 140.35 413.45 140.54 403.55 141.26 393.65 142.47 383.75 144.08 373.85 145.99 363.94 148.07 354.04 150.18 344.14 152.17 334.24 153.91 324.34 155.29 314.44 156.21 304.54 156.61 294.64 156.46 284.73 155.78 274.83 154.6 264.93 153.02 255.03 151.12 245.13 149.05 235.23 146.94 225.33 144.94 215.42 143.17 205.52 141.76 195.62 140.81 185.72 140.37 175.82 140.48 165.92 141.12 156.02 142.27 146.11 143.83 136.21 145.7 126.31 147.76 116.41 149.87 106.51 151.89 96.61 153.68 86.71 159.92 70.11 173.18 60.02 181.51 56.69 189.72 53.36 197.86 50.02 205.94 46.62 213.99 43.13 222.05 39.51 230.13 35.74 238.25 31.8 246.46 27.67 254.75 23.33 263.15 18.78 271.66 14.01 280.3 9.02 289.07 3.82 297.97 -1.57 306.99 -7.16 316.12 -12.91 325.35 -18.81 334.67 -24.84 344.04 -30.96 353.46 -37.15 362.88 -43.39 372.3 -49.64 381.68 -55.87 391 -62.07 400.22 -68.21 409.33 -74.27 418.31 -80.22 427.13 -86.06 435.79 -91.77 444.26 -97.35 452.54 -102.79 460.63 -108.08 468.54 -113.23 476.26 -118.26 483.82 -123.16 498.45 -132.59 512.78 -141.77 526.94 -150.71 541.22 -159.61 548.52 -164.08 555.98 -168.59 563.63 -173.15 571.51 -177.76 579.66 -182.45 588.08 -187.21 596.82 -192.04 605.89 -196.95 615.3 -201.94 625.05 -207 635.14 -212.13 645.56 -217.31 656.3 -222.54 667.33 -227.81 678.62 -233.1 690.14 -238.4 707.75 -246.35 713.67 -249" stroke-dasharray="8 2" transform="rotate(20.200000000000003, 711, 400)" opacity="0.59"></path><path d="M698.67 -222.25Q710.39 -212.64 722.69 -203.22 736.4 -194.11 751.19 -185.15 759.3 -180.75 767.86 -176.38 776.87 -172.02 786.34 -167.66 796.26 -163.29 806.64 -158.9 817.44 -154.46 828.65 -149.96 840.22 -145.4 852.12 -140.75 864.3 -136.01 876.71 -131.16 889.28 -126.2 901.95 -121.13 914.65 -115.94 927.32 -110.63 939.88 -105.21 952.27 -99.68 964.4 -94.05 976.22 -88.33 987.66 -82.54 998.67 -76.7 1009.18 -70.82 1019.16 -64.92 1028.56 -59.03 1037.35 -53.16 1045.52 -47.35 1053.06 -41.61 1065.93 -30.5 1076.99 -19.79 1085.43 -9.9 1092.61 -0.55 1102.57 13.64 1109.66 22.98 1123.33 34.73 1135.77 43.04 1149.82 50.07 1166.22 57.5 1175.84 61.53 1186.27 65.77 1197.5 70.24 1209.5 74.97 1219.28 84.35 1231.03 93.73 1244.02 103.1 1257.44 112.48 1270.47 121.86 1282.28 131.24 1292.15 140.62 1299.47 150 1303.78 159.38 1304.81 168.76 1302.5 178.13 1296.99 187.51 1288.63 196.89 1277.93 206.27 1265.55 215.65 1252.28 225.03 1238.92 234.41 1226.32 243.79 1215.24 253.17 1206.39 262.54 1200.3 271.92 1197.37 281.3 1197.76 290.68 1201.45 300.06 1208.23 309.44 1217.65 318.82 1229.15 328.2 1242 337.57 1255.41 346.95 1268.55 356.33 1280.6 365.71 1290.81 375.09 1298.55 384.47 1303.33 393.85 1304.87 403.23 1303.06 412.6 1298.02 421.98 1290.06 431.36 1279.67 440.74 1267.51 450.12 1254.32 459.5 1240.92 468.88 1228.15 478.25 1216.8 487.63 1207.57 497.01 1201.03 506.39 1197.6 515.77 1197.48 525.15 1200.69 534.53 1207.02 543.91 1216.07 553.28 1227.3 562.66 1240 572.04 1253.38 581.42 1266.61 590.8 1278.87 600.18 1289.4 609.56 1297.55 618.93 1302.81 628.31 1304.85 637.69 1303.55 647.07 1298.98 656.45 1291.44 665.83 1281.38 675.21 1266.95 679.8 1252.24 685.1 1237.36 691.11 1222.41 697.8 1207.51 705.16 1192.73 713.13 1178.2 721.68 1163.99 730.72 1150.2 740.19 1136.89 750 1124.14 760.05 1112.01 770.26 1100.54 780.52 1089.77 790.72 1079.71 800.77 1070.39 810.56 1061.8 819.99 1053.92 828.98 1046.74 837.43 1040.22 845.28 1029.24 858.56 1019.75 869.58 1000.68 881.65 990.79 883.18 974.51 879.96 960.63 877.65 946.38 877.45 930.48 878.8 921.58 880.61 912.17 883.17 902.27 886.54 891.93 890.75 881.19 895.82 870.09 901.75 858.69 908.54 847.04 916.14 835.21 924.52 823.26 933.62 811.25 943.35 799.23 953.63 787.27 964.36 775.42 975.43 763.74 986.72 752.27 998.12 741.06 1009.49 730.14 1020.72 719.55 1031.67 709.3 1042.23 699.42 1052.29 689.92 1061.75 677.09 1057.88 664.83 1051.42 653.04 1040.46 641.28 1026.87 635.29 1018.65 629.18 1009.71 622.91 1000.14 616.46 990.03 609.79 979.49 602.89 968.62 595.73 957.55 588.31 946.39 580.63 935.26 572.68 924.29 564.47 913.59 556.01 903.27 547.31 893.43 538.39 884.16 529.28 875.53 520 867.63 510.57 860.49 501.03 854.15 491.41 848.65 481.74 843.97 472.04 840.12 462.35 837.05 452.69 834.75 443.09 833.14 433.57 832.16 424.16 831.73 414.86 831.76 405.69 832.15 396.66 832.8 387.77 833.61 370.5 835.14 353.62 836.16 337.3 835.32 321.2 832.87 305.27 827.13 289.32 819.19 281.28 813.91 273.16 807.89 264.96 801.17 256.65 793.78 248.23 785.78 239.68 777.23 231.01 768.22 222.21 758.82 213.29 749.12 204.24 739.22 195.08 729.21 185.83 719.21 176.5 709.3 167.11 699.57 165.82 689.95 164.86 680.33 164.28 670.71 164.11 661.09 164.37 651.47 165.04 641.84 166.08 632.22 167.43 622.6 168.99 612.98 170.68 603.36 172.39 593.74 174.01 584.12 175.44 574.5 176.6 564.87 177.41 555.25 177.81 545.63 177.8 536.01 177.36 526.39 176.53 516.77 175.35 507.15 173.9 497.53 172.27 487.9 170.56 478.28 168.88 468.66 167.32 459.04 166 449.42 164.98 439.8 164.34 430.18 164.11 420.56 164.31 410.93 164.92 401.31 165.9 391.69 167.21 382.07 168.74 372.45 170.42 362.83 172.13 353.21 173.77 343.58 175.24 333.96 176.44 324.34 177.31 314.72 177.78 305.1 177.83 295.48 177.45 285.86 176.68 276.23 175.55 266.61 174.13 256.99 172.53 247.37 170.82 237.75 169.13 228.13 167.55 218.51 166.18 208.88 165.12 199.26 164.41 189.64 164.12 180.02 164.25 170.4 164.8 160.78 165.73 151.16 166.99 141.53 168.5 131.91 170.16 122.29 171.88 112.67 173.53 103.05 179.93 87.09 193.22 77.68 209.57 71.37 225.63 64.76 233.54 61.21 241.42 57.49 249.29 53.57 257.17 49.44 265.08 45.1 273.05 40.54 281.09 35.77 289.22 30.77 297.46 25.58 305.8 20.2 314.26 14.64 322.84 8.92 331.53 3.08 340.35 -2.87 349.26 -8.91 358.27 -15 367.36 -21.12 376.51 -27.25 385.7 -33.35 394.91 -39.41 404.12 -45.4 413.29 -51.3 422.41 -57.09 431.45 -62.76 440.38 -68.3 449.19 -73.7 457.85 -78.95 466.34 -84.06 474.66 -89.02 482.78 -93.85 490.71 -98.54 498.43 -103.11 513.19 -111.89 527.41 -120.45 540.9 -128.79 554.1 -137.1 567.14 -145.53 580.29 -154.12 594.04 -163.05 608.35 -172.23 615.93 -176.96 623.79 -181.78 631.96 -186.67 640.45 -191.62 649.29 -196.64 658.48 -201.71 668.02 -206.81 677.91 -211.94 693.4 -219.67 698.67 -222.25" stroke-dasharray="10 8" transform="rotate(23.566666666666666, 711, 400)" opacity="0.37"></path><path d="M688.93 -195.5Q703.07 -186.47 718.21 -177.65 726.41 -173.35 735 -169.11 743.98 -164.93 753.35 -160.79 763.09 -156.69 773.21 -152.61 783.67 -148.54 794.46 -144.47 805.53 -140.39 816.86 -136.27 828.4 -132.11 840.1 -127.9 851.91 -123.61 863.78 -119.23 875.66 -114.76 887.47 -110.18 899.18 -105.49 910.71 -100.68 922.01 -95.75 933.02 -90.7 943.7 -85.53 954 -80.24 963.86 -74.84 973.26 -69.34 982.16 -63.75 990.54 -58.09 998.38 -52.37 1005.67 -46.61 1018.34 -35.08 1029.44 -23.62 1038.21 -12.5 1045.84 -1.71 1056.56 15.37 1063.99 26.66 1076.94 39.96 1088.25 48.66 1100.61 54.94 1114.94 61.05 1123.33 64.09 1132.42 67.16 1142.23 70.29 1152.74 73.53 1163.93 76.88 1175.76 80.39 1188.19 84.07 1201.17 87.96 1212.61 96.96 1224.95 105.96 1237.5 114.96 1249.53 123.96 1260.37 132.96 1269.38 141.96 1276.07 150.96 1280.04 159.96 1281.07 168.96 1279.1 177.96 1274.24 186.96 1266.78 195.96 1257.13 204.96 1245.85 213.96 1233.58 222.96 1221.02 231.96 1208.88 240.96 1197.87 249.96 1188.6 258.96 1181.6 267.96 1177.29 276.97 1175.89 285.97 1177.49 294.97 1182 303.97 1189.17 312.97 1198.57 321.97 1209.69 330.97 1221.87 339.97 1234.44 348.97 1246.66 357.97 1257.85 366.97 1267.37 375.97 1274.67 384.97 1279.33 393.97 1281.09 402.97 1279.86 411.97 1275.69 420.97 1268.83 429.97 1259.67 438.97 1248.74 447.97 1236.64 456.97 1224.09 465.97 1211.78 474.97 1200.43 483.97 1190.68 492.97 1183.08 501.97 1178.08 510.97 1175.95 519.97 1176.82 528.97 1180.64 537.97 1187.18 546.98 1196.09 555.98 1206.84 564.98 1218.83 573.98 1231.36 582.98 1243.74 591.98 1255.24 600.98 1265.22 609.98 1273.11 618.98 1278.45 627.98 1280.94 636.98 1280.44 645.98 1276.97 654.98 1270.74 663.98 1258.28 670.12 1245.35 676.86 1232.03 684.18 1218.4 692.03 1204.56 700.35 1190.58 709.1 1176.55 718.19 1162.57 727.57 1148.71 737.13 1135.06 746.81 1121.7 756.51 1108.69 766.14 1096.1 775.62 1083.99 784.85 1072.41 793.77 1061.4 802.27 1050.98 810.31 1041.19 817.8 1032.04 824.71 1023.52 830.97 1008.65 841.11 995.55 849.15 978.33 855.4 967.82 857.02 948.45 853.36 937.37 851.76 927.39 852.73 916.2 855.33 902.77 861.27 887.92 869.46 879.67 874.9 870.98 881.11 861.86 888.07 852.34 895.75 842.46 904.09 832.24 913.04 821.74 922.52 811 932.46 800.06 942.77 788.97 953.34 777.79 964.08 766.57 974.87 755.34 985.63 744.17 996.22 733.1 1006.55 722.16 1016.53 711.4 1026.04 700.86 1035 690.17 1031.25 679.36 1025.19 667.97 1015.07 656.03 1002.57 649.67 995 643.07 986.77 636.19 977.94 629.05 968.59 621.63 958.79 613.93 948.65 605.97 938.27 597.75 927.74 589.29 917.17 580.6 906.67 571.72 896.33 562.65 886.26 553.44 876.54 544.1 867.27 534.66 858.51 525.16 850.34 515.63 842.82 506.09 835.98 496.56 829.87 487.09 824.49 477.68 819.87 468.37 815.98 459.16 812.81 450.08 810.33 441.13 808.5 432.33 807.25 415.26 806.44 398.62 806.74 382.65 807.98 367.02 809.23 351.76 809.59 336.61 808.9 321.45 805.78 306.18 800.87 298.43 797.29 290.59 793.04 282.66 788.12 274.62 782.53 266.48 776.3 258.22 769.47 249.86 762.07 241.39 754.16 232.82 745.8 224.17 737.06 215.44 728.02 206.65 718.75 197.83 709.33 188.98 699.86 188.32 690.52 187.95 681.17 187.89 671.82 188.16 662.47 188.73 653.13 189.57 643.78 190.63 634.43 191.86 625.08 193.18 615.74 194.52 606.39 195.79 597.04 196.94 587.69 197.89 578.35 198.59 569 199 559.65 199.09 550.3 198.86 540.96 198.33 531.61 197.52 522.26 196.48 512.92 195.27 503.57 193.96 494.22 192.62 484.87 191.33 475.53 190.16 466.18 189.18 456.83 188.45 447.48 188.01 438.14 187.88 428.79 188.06 419.44 188.56 410.09 189.34 400.75 190.35 391.4 191.55 382.05 192.85 372.7 194.19 363.36 195.49 354.01 196.68 344.66 197.68 335.32 198.44 325.97 198.92 316.62 199.09 307.27 198.95 297.93 198.49 288.58 197.74 279.23 196.75 269.88 195.58 260.54 194.28 251.19 192.94 241.84 191.63 232.5 190.43 223.15 189.4 213.8 188.61 204.45 188.09 195.11 187.88 185.76 187.99 176.41 188.41 167.06 189.13 157.72 190.09 148.37 191.24 139.02 192.52 129.68 193.86 120.33 199.97 104.87 212.98 95.79 229.02 89.42 244.75 82.57 260.12 74.76 275.39 66.3 283.01 61.7 290.66 56.88 298.34 51.86 306.09 46.65 313.9 41.26 321.81 35.72 329.82 30.04 337.93 24.25 346.16 18.37 354.51 12.42 362.97 6.44 371.54 0.44 380.22 -5.53 389 -11.48 397.86 -17.38 406.79 -23.19 415.77 -28.91 424.78 -34.51 433.8 -39.99 442.8 -45.33 451.77 -50.52 460.68 -55.57 469.5 -60.47 478.22 -65.22 486.8 -69.82 495.23 -74.29 503.5 -78.64 511.58 -82.87 527.05 -91 541.89 -98.92 555.7 -106.66 568.94 -114.4 581.42 -122.29 593.58 -130.34 605.52 -138.76 617.53 -147.45 630.04 -156.56 643.07 -165.93 649.97 -170.74 657.13 -175.61 664.59 -180.53 672.37 -185.49 684.71 -192.99 688.93 -195.5" stroke-dasharray="7 4" transform="rotate(26.933333333333334, 711, 400)" opacity="0.44"></path><path d="M688.63 -168.75Q696.94 -164.46 705.58 -160.25 714.54 -156.11 723.82 -152.04 733.41 -148.03 743.29 -144.09 753.43 -140.2 763.82 -136.35 774.42 -132.54 785.2 -128.74 796.11 -124.96 807.13 -121.18 818.2 -117.38 829.28 -113.55 840.33 -109.67 851.28 -105.74 862.11 -101.73 872.75 -97.64 883.17 -93.45 893.32 -89.16 903.15 -84.76 912.64 -80.24 921.75 -75.59 930.44 -70.82 938.7 -65.92 946.51 -60.9 960.48 -50.46 973.05 -39.72 983.39 -28.61 992.53 -17.38 1000.03 -6.13 1006.83 4.99 1013.02 15.72 1019.2 26.1 1026.01 35.74 1033.58 44.85 1042.99 53.05 1053.81 60.69 1067.36 67.48 1082.71 73.84 1091.47 76.81 1100.85 79.69 1110.83 82.51 1121.41 85.3 1132.55 88.07 1144.21 90.87 1156.35 93.72 1168.93 96.64 1181.88 99.67 1195.13 102.83 1206.81 111.5 1218.44 120.16 1229.42 128.83 1239.18 137.49 1247.21 146.15 1253.08 154.82 1255.94 172.15 1250.91 189.47 1244.08 198.14 1235.27 206.8 1224.94 215.47 1213.61 224.13 1201.88 232.79 1190.37 241.46 1179.68 250.12 1170.36 258.79 1162.9 267.45 1157.69 276.11 1155 284.78 1154.97 293.44 1157.61 302.11 1162.78 310.77 1170.2 319.43 1179.49 328.1 1190.16 336.76 1201.66 345.43 1213.39 354.09 1224.73 362.76 1235.09 371.42 1243.93 380.08 1250.8 388.75 1255.32 397.41 1257.27 406.08 1256.54 414.74 1253.17 423.4 1247.34 432.07 1239.35 440.73 1229.62 449.4 1218.66 458.06 1207.03 466.73 1195.35 475.39 1184.23 484.05 1174.24 492.72 1165.91 501.38 1159.67 510.05 1155.86 518.71 1154.65 527.37 1156.13 536.04 1160.22 544.7 1166.69 553.37 1175.22 562.03 1185.35 570.7 1196.56 579.36 1208.26 588.02 1219.85 596.69 1230.71 605.35 1240.28 614.02 1248.06 622.68 1253.64 631.35 1256.74 640.01 1257.19 648.67 1254.96 657.34 1244.75 664.65 1233.96 672.39 1222.66 680.53 1210.9 689.01 1198.73 697.76 1186.23 706.71 1173.46 715.8 1160.5 724.96 1147.42 734.1 1134.29 743.15 1121.19 752.03 1108.18 760.68 1095.34 769.03 1082.72 776.99 1070.4 784.53 1058.42 791.58 1046.84 798.09 1035.69 804.04 1025.02 809.39 1014.86 814.11 1005.23 818.21 996.14 821.68 979.89 826.51 965.26 829.65 945.36 830.01 933.17 828.88 912.92 827.11 902.45 828.49 886.72 838.25 873.95 848.63 868.03 854.36 861.73 860.78 855.02 867.84 847.92 875.51 840.41 883.75 832.51 892.51 824.23 901.7 815.6 911.26 806.62 921.12 797.34 931.18 787.77 941.36 777.97 951.56 767.95 961.7 757.77 971.68 747.45 981.41 737.05 990.8 718.71 1003.36 705.35 1004.98 693.58 998.57 681.04 989.97 674.3 984.4 667.27 978.14 659.97 971.2 652.39 963.65 644.54 955.53 636.45 946.91 628.11 937.86 619.56 928.45 610.81 918.77 601.89 908.9 592.82 898.93 583.64 888.95 574.36 879.05 565.03 869.32 555.66 859.83 546.28 850.67 536.92 841.91 527.61 833.61 518.36 825.84 509.21 818.64 500.16 812.05 491.24 806.1 482.46 800.81 473.82 796.19 465.33 792.24 457.01 788.93 440.9 784.45 425.24 781.61 410.23 780.94 395.54 781.18 381.19 782.16 366.95 783.1 352.69 783.2 338.33 782.36 323.64 779.37 308.7 774.8 301.07 771.52 293.33 767.65 285.49 763.17 277.56 758.1 269.54 752.45 261.44 746.23 253.27 739.5 245.04 732.28 236.77 724.63 228.46 716.6 220.15 708.26 211.84 699.66 211.65 690.6 211.69 681.54 211.95 672.47 212.43 663.41 213.08 654.35 213.89 645.29 214.81 636.23 215.79 627.17 216.78 618.11 217.73 609.05 218.59 599.99 219.31 590.93 219.86 581.86 220.2 572.8 220.33 563.74 220.23 554.68 219.9 545.62 219.38 536.56 218.67 527.5 217.83 518.44 216.89 509.38 215.9 500.31 214.91 491.25 213.99 482.19 213.16 473.13 212.49 464.07 211.99 455.01 211.71 445.95 211.65 436.89 211.81 427.83 212.19 418.77 212.77 409.71 213.52 400.64 214.4 391.58 215.36 382.52 216.35 373.46 217.32 364.4 218.23 355.34 219.01 346.28 219.64 337.22 220.08 328.16 220.3 319.1 220.3 310.03 220.07 300.97 219.63 291.91 219 282.85 218.21 273.79 217.31 264.73 216.33 255.67 215.34 246.61 214.38 237.55 213.51 228.49 212.76 219.43 212.19 210.37 211.81 201.3 211.65 192.24 211.71 183.18 212 174.12 212.5 165.06 213.18 156 214 146.94 214.93 137.88 220.45 122.82 232.94 113.75 248.49 106.96 263.75 99.59 278.61 91.16 293.32 82.1 300.62 77.22 307.92 72.15 315.23 66.91 322.57 61.52 329.96 55.99 337.41 50.36 344.93 44.63 352.54 38.83 360.26 33 368.08 27.14 376.01 21.29 384.06 15.47 392.23 9.7 400.51 4 408.91 -1.6 417.42 -7.11 426.01 -12.49 434.69 -17.75 443.44 -22.86 452.24 -27.83 461.07 -32.64 469.91 -37.31 478.74 -41.82 487.54 -46.2 496.28 -50.43 504.94 -54.53 513.51 -58.52 521.95 -62.4 530.24 -66.19 538.38 -69.9 553.99 -77.16 569 -84.34 582.93 -91.55 596.22 -98.87 608.51 -106.49 620.29 -114.35 631.45 -122.66 642.4 -131.24 653.33 -140.26 664.44 -149.52 682.43 -163.91 688.63 -168.75" stroke-dasharray="1 9" transform="rotate(30.299999999999997, 711, 400)" opacity="0.95"></path><path d="M697.88 -142Q716.89 -134.05 736.65 -126.39 756.95 -119 777.53 -111.82 798.11 -104.77 818.36 -97.76 837.99 -90.69 856.71 -83.45 874.26 -75.94 890.44 -68.06 905.09 -59.74 918.15 -50.92 929.62 -41.6 939.6 -31.79 948.25 -21.53 955.83 -10.91 962.64 -0.04 969.07 10.94 975.51 21.89 982.39 32.66 990.11 43.08 999.07 53.01 1009.61 62.35 1022 71 1036.43 78.92 1053 86.12 1071.7 92.63 1092.4 98.55 1114.9 104.02 1138.85 109.19 1163.87 114.26 1189.48 119.45 1209.96 136.17 1225.47 152.88 1233.08 169.59 1231.36 186.31 1220.63 203.02 1202.92 219.74 1181.55 236.45 1160.55 253.17 1143.86 269.88 1134.62 286.6 1134.58 303.31 1143.73 320.03 1160.36 336.74 1181.34 353.46 1202.73 370.17 1220.49 386.88 1231.3 403.6 1233.11 420.31 1225.58 437.03 1210.14 453.74 1189.69 470.46 1168.07 487.17 1149.34 503.89 1137.04 520.6 1133.48 537.31 1139.32 554.03 1153.47 570.74 1173.26 587.46 1194.98 604.17 1214.53 620.88 1228.25 637.6 1233.54 654.31 1217.07 670.47 1198.37 687.4 1177.69 704.63 1155.4 721.65 1131.9 737.94 1107.66 753.04 1083.15 766.54 1058.86 778.12 1035.24 787.56 1012.68 794.77 991.52 799.79 972.02 802.8 954.34 804.09 938.55 804.05 924.61 803.16 912.41 801.98 901.75 801.07 892.37 800.99 883.94 802.26 876.12 805.33 868.54 810.55 860.83 818.15 852.66 828.22 843.72 840.7 833.77 855.4 822.63 871.99 810.18 890.02 796.38 908.95 781.26 928.18 764.91 947.08 747.49 965.05 729.2 981.5 716.48 978.31 702.63 972.66 687.69 964.41 671.74 953.58 654.91 940.35 637.38 925.01 619.35 908 601.03 889.83 582.64 871.08 564.37 852.36 546.42 834.25 528.92 817.31 512 802 495.7 788.69 480.07 777.64 465.07 768.94 450.65 762.58 436.71 758.4 423.13 756.1 409.79 755.3 396.54 755.51 383.24 756.23 369.79 756.89 356.08 756.98 342.03 755.99 327.62 753.52 312.83 749.22 297.71 742.89 282.31 734.44 266.72 723.9 251.04 711.42 235.41 697.26 235.73 679.77 236.58 662.27 237.78 644.78 239.11 627.29 240.33 609.79 241.2 592.3 241.56 574.81 241.34 557.31 240.58 539.82 239.43 522.32 238.1 504.83 236.85 487.34 235.9 469.84 235.43 452.35 235.55 434.86 236.21 417.36 237.3 399.87 238.62 382.37 239.91 364.88 240.93 347.39 241.49 329.89 241.49 312.4 240.92 294.9 239.9 277.41 238.6 259.92 237.29 242.42 236.2 224.93 235.54 207.43 235.44 189.94 235.9 172.44 236.86 154.95 238.12 137.46 253.47 130.91 268.46 123.57 283.08 115.39 297.38 106.4 311.43 96.67 325.31 86.28 339.14 75.4 353.05 64.17 367.15 52.78 381.54 41.41 396.33 30.22 411.57 19.36 427.29 8.96 443.49 -0.88 460.13 -10.15 477.12 -18.82 494.35 -26.91 511.66 -34.5 528.91 -41.66 545.92 -48.51 562.51 -55.18 578.52 -61.8 593.82 -68.47 608.29 -75.33 621.89 -82.45 634.6 -89.9 646.46 -97.73 657.55 -105.94 668.04 -114.52 678.1 -123.44 692.92 -137.31 697.88 -142" stroke-dasharray="2 3" transform="rotate(33.666666666666664, 711, 400)" opacity="0.91"></path><path d="M712.74 -115.25Q731.83 -107.83 750.94 -100.71 769.82 -93.85 788.24 -87.21 805.95 -80.7 822.75 -74.24 838.44 -67.72 852.89 -61.05 866.01 -54.12 877.79 -46.85 888.25 -39.15 897.51 -30.98 905.72 -22.31 913.12 -13.13 919.96 -3.47 926.56 6.58 933.25 16.98 940.38 27.58 948.28 38.27 957.26 48.9 967.6 59.32 979.53 69.4 993.2 78.99 1008.7 88 1026.03 96.35 1045.12 103.99 1065.79 110.92 1087.81 117.16 1110.87 122.81 1134.59 127.97 1158.56 132.78 1182.35 137.41 1198.27 153.53 1207.83 169.66 1209.38 185.79 1202.66 201.92 1188.82 218.04 1170.22 234.17 1150.05 250.3 1131.74 266.43 1118.44 282.55 1112.4 298.68 1114.66 314.81 1124.84 330.93 1141.19 347.06 1160.93 363.19 1180.68 379.31 1197.06 395.44 1207.27 411.57 1209.58 427.7 1203.59 443.82 1190.32 459.95 1172.03 476.08 1151.86 492.2 1133.25 508.33 1119.37 524.46 1112.61 540.58 1114.11 556.71 1123.62 572.84 1139.52 588.96 1159.08 605.09 1178.97 621.22 1195.78 637.34 1206.65 653.47 1194.39 669.58 1180.02 685.74 1163.63 701.51 1145.39 716.5 1125.55 730.3 1104.4 742.6 1082.31 753.14 1059.66 761.78 1036.84 768.44 1014.24 773.17 992.23 776.13 971.13 777.57 951.22 777.8 932.71 777.25 915.73 776.36 900.36 775.6 886.58 775.47 874.32 776.4 863.42 778.8 853.7 782.99 844.9 789.22 836.74 797.62 828.94 808.2 821.2 820.86 813.23 835.39 804.77 851.48 795.59 868.72 785.52 886.64 774.43 904.72 762.23 922.44 748.9 939.28 734.48 954.75 719.22 951.66 703.06 946.38 686.15 938.8 668.68 928.92 650.85 916.86 632.86 902.87 614.9 887.28 597.17 870.51 579.82 853.02 562.98 835.33 546.75 817.94 531.18 801.34 516.29 785.96 502.06 772.17 488.42 760.24 475.3 750.34 462.59 742.54 450.15 736.8 437.87 732.94 425.61 730.73 413.26 729.81 400.7 729.8 387.85 730.24 374.67 730.69 361.12 730.68 347.21 729.8 332.96 727.68 318.44 724.03 303.71 718.63 288.88 711.37 274.04 702.24 259.29 691.32 259.69 674.53 260.32 657.74 261.06 640.95 261.78 624.16 262.37 607.37 262.73 590.58 262.78 573.79 262.53 557 262.02 540.21 261.32 523.42 260.57 506.63 259.9 489.84 259.4 473.05 259.18 456.26 259.27 439.47 259.65 422.68 260.25 405.89 260.99 389.1 261.72 372.31 262.33 355.51 262.71 338.72 262.79 321.93 262.57 305.14 262.07 288.35 261.39 271.56 260.64 254.77 259.95 237.98 259.44 221.19 259.19 204.4 259.25 187.61 259.6 170.82 260.19 154.03 274.8 146.71 289.1 138.59 303.08 129.7 316.73 120.11 330.11 109.93 343.26 99.29 356.28 88.35 369.26 77.28 382.3 66.24 395.52 55.38 409.03 44.84 422.9 34.75 437.22 25.18 452.04 16.18 467.35 7.78 483.16 -0.03 499.4 -7.32 516 -14.16 532.84 -20.63 549.78 -26.86 566.67 -32.97 583.35 -39.06 599.65 -45.26 615.41 -51.66 630.5 -58.35 644.79 -65.39 658.23 -72.81 670.76 -80.63 682.39 -88.83 693.19 -97.37 708 -110.72 712.74 -115.25" stroke-dasharray="6 3" transform="rotate(37.03333333333333, 711, 400)" opacity="0.33"></path><path d="M726.84 -88.5Q743.91 -81.59 760.38 -74.98 776.1 -68.64 790.91 -62.51 804.7 -56.52 817.39 -50.58 828.95 -44.6 839.41 -38.49 848.83 -32.14 857.32 -25.48 865.04 -18.43 872.2 -10.93 879.02 -2.93 885.78 5.55 892.74 14.54 900.18 23.97 908.35 33.79 917.52 43.91 927.9 54.21 939.65 64.57 952.9 74.86 967.7 84.95 984.07 94.71 1001.93 104.01 1021.15 112.75 1041.55 120.87 1062.87 128.31 1084.83 135.06 1107.08 141.14 1129.3 146.61 1151.1 151.55 1172.13 156.08 1182.48 171.62 1186.03 187.15 1182.24 202.68 1171.7 218.22 1156.02 233.75 1137.64 249.28 1119.39 264.81 1104.09 280.35 1094.09 295.88 1090.96 311.41 1095.16 326.95 1106.06 342.48 1121.96 358.01 1140.41 373.54 1158.57 389.08 1173.62 404.61 1183.25 420.14 1185.97 435.68 1181.35 451.21 1170.12 466.74 1154 482.27 1135.48 497.81 1117.43 513.34 1102.63 528.87 1093.37 544.4 1091.07 559.94 1096.1 575.47 1107.67 591 1124 606.54 1142.56 622.07 1160.5 637.6 1175.04 653.13 1166.28 668.12 1155.78 682.58 1143.47 696.16 1129.38 708.58 1113.59 719.58 1096.25 728.98 1077.57 736.68 1057.81 742.64 1037.25 746.93 1016.22 749.68 995.03 751.11 974 751.51 953.42 751.2 933.57 750.57 914.67 750.02 896.92 749.95 880.43 750.73 865.28 752.73 851.49 756.23 839.01 761.46 827.76 768.56 817.6 777.59 808.33 788.52 799.77 801.21 791.68 815.45 783.83 830.95 775.97 847.35 767.89 864.24 759.39 881.19 750.28 897.75 740.42 913.48 729.72 928 712.7 925 695.33 920.08 677.77 913.13 660.23 904.14 642.88 893.21 625.87 880.5 609.34 866.29 593.39 850.9 578.09 834.71 563.48 818.15 549.56 801.63 536.29 785.58 523.62 770.38 511.46 756.38 499.71 743.87 488.25 733.04 476.95 724.03 465.7 716.86 454.38 711.49 442.88 707.78 431.13 705.5 419.05 704.39 406.62 704.1 393.81 704.27 380.63 704.52 367.13 704.47 353.35 703.75 339.37 702.05 325.26 699.09 311.12 694.67 297.02 688.65 283.06 680.99 283.23 664.99 283.44 648.98 283.65 632.98 283.84 616.98 283.97 600.97 284.03 584.97 284 568.97 283.9 552.96 283.73 536.96 283.52 520.96 283.31 504.96 283.12 488.95 282.99 472.95 282.94 456.95 282.97 440.94 283.08 424.94 283.25 408.94 283.46 392.93 283.68 376.93 283.86 360.93 283.98 344.92 284.03 328.92 284 312.92 283.88 296.91 283.7 280.91 283.49 264.91 283.28 248.9 283.1 232.9 282.98 216.9 282.94 200.89 282.98 184.89 283.1 168.89 296.96 160.73 310.57 151.87 323.89 142.38 336.91 132.37 349.64 121.97 362.1 111.33 374.35 100.59 386.46 89.91 398.51 79.43 410.61 69.28 422.85 59.56 435.33 50.34 448.15 41.69 461.38 33.61 475.08 26.11 489.3 19.14 504.04 12.64 519.29 6.53 534.99 0.71 551.07 -4.93 567.44 -10.5 583.96 -16.12 600.49 -21.88 616.88 -27.87 632.98 -34.17 648.62 -40.82 663.68 -47.87 678.03 -55.31 691.56 -63.13 704.22 -71.31 721.41 -84.14 726.84 -88.5" stroke-dasharray="4 7" transform="rotate(40.400000000000006, 711, 400)" opacity="0.33"></path><path d="M734.17 -61.75Q747.85 -55.33 760.67 -49.22 772.58 -43.37 783.57 -37.73 793.64 -32.23 802.84 -26.79 811.27 -21.33 819.05 -15.76 826.34 -10 833.31 -3.95 840.16 2.45 847.12 9.28 854.39 16.56 862.2 24.34 870.75 32.6 880.23 41.33 890.8 50.48 902.57 60 915.62 69.78 929.99 79.74 945.68 89.75 962.6 99.71 980.66 109.48 999.69 118.94 1019.5 127.99 1039.84 136.53 1060.45 144.49 1081.06 151.81 1101.36 158.47 1121.07 164.48 1139.91 169.88 1157.63 174.71 1162.13 189.62 1160.23 204.52 1152.19 219.42 1139.12 234.32 1122.85 249.23 1105.62 264.13 1089.83 279.03 1077.67 293.93 1070.83 308.84 1070.25 323.74 1076.02 338.64 1087.34 353.54 1102.63 368.45 1119.78 383.35 1136.4 398.25 1150.18 413.15 1159.22 428.06 1162.26 442.96 1158.88 457.86 1149.55 472.76 1135.55 487.67 1118.84 502.57 1101.74 517.47 1086.61 532.38 1075.56 547.28 1070.12 562.18 1071.04 577.08 1078.2 591.99 1090.61 606.89 1106.54 621.79 1123.77 636.7 1139.93 651.6 1133.76 664.63 1126.32 676.73 1117.48 687.68 1107.13 697.3 1095.25 705.48 1081.86 712.15 1067.03 717.31 1050.88 721.04 1033.6 723.46 1015.37 724.78 996.43 725.23 977.03 725.1 957.43 724.7 937.88 724.36 918.63 724.43 899.9 725.21 881.89 727 864.76 730.05 848.65 734.58 833.62 740.71 819.73 748.52 806.96 758.02 795.28 769.13 784.6 781.71 774.8 795.56 765.73 810.39 757.24 825.91 749.14 841.76 741.24 857.59 733.35 873.01 725.31 887.67 716.94 901.25 699.9 898.35 683.06 893.76 666.58 887.41 650.58 879.26 635.16 869.38 620.38 857.9 606.28 845.01 592.88 830.99 580.16 816.12 568.06 800.75 556.52 785.23 545.46 769.91 534.77 755.12 524.33 741.19 514.04 728.38 503.77 716.92 493.42 706.96 482.9 698.59 472.13 691.84 461.03 686.66 449.58 682.94 437.74 680.5 425.52 679.11 412.95 678.5 400.05 678.39 386.89 678.44 373.53 678.35 360.04 677.8 346.5 676.52 333 674.26 319.6 670.81 306.36 666.04 306.11 650.9 305.84 635.76 305.59 620.62 305.4 605.49 305.29 590.35 305.27 575.21 305.36 560.08 305.53 544.94 305.76 529.8 306.03 514.66 306.29 499.53 306.51 484.39 306.65 469.25 306.7 454.12 306.66 438.98 306.52 423.84 306.3 408.71 306.04 393.57 305.78 378.43 305.54 363.29 305.36 348.16 305.28 333.02 305.28 317.88 305.39 302.75 305.58 287.61 305.82 272.47 306.09 257.34 306.34 242.2 306.55 227.06 306.67 211.93 306.7 196.79 306.63 181.65 319.79 172.77 332.75 163.35 345.46 153.5 357.9 143.34 370.04 133.01 381.9 122.65 393.49 112.38 404.86 102.34 416.06 92.63 427.18 83.34 438.29 74.56 449.49 66.32 460.86 58.63 472.51 51.5 484.51 44.89 496.94 38.76 509.86 33.02 523.3 27.59 537.27 22.38 551.76 17.27 566.74 12.18 582.15 7 597.91 1.64 613.89 -3.97 629.99 -9.91 646.07 -16.21 661.98 -22.9 677.57 -29.98 692.71 -37.45 707.26 -45.26 727.64 -57.56 734.17 -61.75" stroke-dasharray="10 3" transform="rotate(43.766666666666666, 711, 400)" opacity="0.37"></path><path d="M731.58 -35Q741.74 -29.06 751.17 -23.42 759.91 -18.04 768.04 -12.86 775.66 -7.83 782.89 -2.88 796.83 7.2 811.02 17.78 818.7 23.54 826.96 29.69 835.97 36.26 845.85 43.29 856.7 50.79 868.61 58.75 881.61 67.16 895.71 75.97 910.89 85.12 927.07 94.53 944.16 104.11 962.01 113.76 980.46 123.36 999.31 132.82 1018.36 142.01 1037.37 150.85 1056.11 159.23 1074.35 167.09 1091.87 174.37 1108.47 181.03 1123.95 187.07 1138.18 192.49 1137.26 206.71 1130.91 220.92 1119.92 235.14 1105.65 249.35 1089.88 263.57 1074.55 277.78 1061.57 292 1052.55 306.21 1048.6 320.43 1050.21 334.64 1057.18 348.85 1068.66 363.07 1083.21 377.28 1099.04 391.5 1114.17 405.71 1126.75 419.93 1135.2 434.15 1138.48 448.36 1136.18 462.58 1128.59 476.79 1116.65 491.01 1101.84 505.22 1085.99 519.44 1071.08 533.65 1058.93 547.87 1051.08 562.08 1048.47 576.3 1051.45 590.51 1059.64 604.73 1072.02 618.94 1087.06 633.16 1102.9 647.37 1098.3 657.91 1092.95 667.33 1086.67 675.53 1079.31 682.43 1070.76 688.01 1060.94 692.32 1049.83 695.42 1037.43 697.44 1023.82 698.57 1009.08 699.01 993.33 699 976.74 698.8 959.48 698.69 941.74 698.94 923.72 699.81 905.64 701.54 887.69 704.34 870.05 708.4 852.9 713.83 836.38 720.72 820.63 729.08 805.72 738.87 791.72 750.01 778.66 762.34 766.54 775.68 755.31 789.78 744.91 804.38 735.25 819.19 726.23 833.9 717.71 848.22 709.55 861.84 701.62 874.5 686.39 871.7 671.76 867.44 657.77 861.64 644.46 854.28 631.84 845.39 619.9 835.06 608.58 823.46 597.82 810.77 587.56 797.22 577.69 783.1 568.12 768.66 558.73 754.22 549.42 740.06 540.1 726.44 530.65 713.63 521 701.83 511.08 691.22 500.82 681.92 490.2 674.01 479.18 667.5 467.78 662.37 456 658.52 443.88 655.82 431.46 654.1 418.8 653.13 405.96 652.69 393 652.51 380.01 652.34 367.05 651.93 354.17 651.01 341.44 649.39 328.9 646.86 328.2 632.65 327.54 618.44 326.99 604.23 326.63 590.03 326.5 575.82 326.62 561.61 326.96 547.4 327.5 533.2 328.15 518.99 328.85 504.78 329.51 490.58 330.03 476.37 330.37 462.16 330.47 447.96 330.32 433.75 329.95 419.54 329.4 405.33 328.73 391.13 328.03 376.92 327.39 362.71 326.89 348.51 326.58 334.3 326.51 320.09 326.68 305.89 327.08 291.68 327.65 277.47 328.33 263.27 329.02 249.06 329.65 234.85 330.13 220.64 330.41 206.44 330.45 192.23 342.98 182.88 355.36 173.21 367.53 163.32 379.46 153.34 391.12 143.39 402.49 133.59 413.57 124.05 424.38 114.85 434.94 106.09 445.3 97.81 455.52 90.05 465.67 82.82 475.83 76.13 486.09 69.93 496.52 64.2 507.23 58.85 518.28 53.82 529.74 49.02 541.68 44.36 554.13 39.74 567.11 35.08 580.63 30.29 594.68 25.28 609.2 20 624.13 14.39 639.4 8.42 654.9 2.07 670.52 -4.66 686.13 -11.77 701.6 -19.23 724.19 -30.99 731.58 -35" stroke-dasharray="3 10" transform="rotate(47.13333333333333, 711, 400)" opacity="0.45"></path><path d="M720.2 -8.25Q727.88 -2.78 735.21 2.4 749.2 12 763.15 21.16 770.43 25.64 778.1 30.18 786.27 34.86 795.07 39.73 804.59 44.88 814.91 50.35 826.1 56.21 838.19 62.48 851.2 69.19 865.09 76.36 879.84 83.96 895.37 91.99 911.58 100.39 928.35 109.12 945.53 118.11 962.97 127.27 980.5 136.52 997.93 145.76 1015.08 154.89 1031.77 163.82 1047.82 172.46 1063.08 180.72 1077.41 188.52 1090.68 195.81 1102.81 202.54 1113.74 208.69 1108.35 222.15 1098.85 235.61 1086.28 249.06 1072.04 262.52 1057.68 275.98 1044.79 289.44 1034.77 302.9 1028.74 316.36 1027.35 329.82 1030.76 343.28 1038.6 356.73 1049.99 370.19 1063.69 383.65 1078.2 397.11 1091.91 410.57 1103.33 424.03 1111.19 437.49 1114.63 450.95 1113.27 464.4 1107.27 477.86 1097.28 491.32 1084.4 504.78 1070.05 518.24 1055.8 531.7 1043.22 545.16 1033.7 558.61 1028.27 572.07 1027.54 585.53 1031.59 598.99 1039.96 612.45 1051.75 625.91 1065.66 639.36 1057.16 653.4 1047.32 664.09 1033.72 669.55 1017.19 672.49 1007.08 672.88 995.9 672.97 983.68 672.96 970.48 673.07 956.39 673.53 941.51 674.55 925.99 676.33 909.96 679.03 893.58 682.81 877.01 687.76 860.4 693.95 843.91 701.42 827.7 710.14 811.88 720.06 796.57 731.08 781.88 743.04 767.87 755.78 754.6 769.09 742.09 782.75 730.35 796.52 719.35 810.14 709.05 823.37 699.4 835.98 690.31 847.75 678.1 845.05 666.55 841.11 655.64 835.83 645.33 829.2 635.56 821.23 626.25 812 617.31 801.62 608.66 790.22 600.19 777.98 591.81 765.12 583.42 751.85 574.93 738.41 566.26 725.04 557.35 711.96 548.12 699.41 538.54 687.57 528.58 676.62 518.22 666.69 507.47 657.89 496.34 650.29 484.86 643.9 473.07 638.7 461.02 634.64 448.77 631.61 436.38 629.49 423.91 628.11 411.43 627.28 398.99 626.82 386.64 626.51 374.44 626.14 362.42 625.49 350.6 624.39 349.57 611.15 348.69 597.92 348.07 584.68 347.77 571.44 347.82 558.21 348.22 544.97 348.93 531.74 349.87 518.5 350.92 505.26 351.99 492.03 352.95 478.79 353.69 465.56 354.14 452.32 354.24 439.08 353.98 425.85 353.4 412.61 352.55 399.37 351.53 386.14 350.45 372.9 349.43 359.67 348.59 346.43 348.01 333.19 347.75 319.96 347.86 306.72 348.3 293.48 349.05 280.25 350.01 267.01 351.07 253.78 352.13 240.54 353.06 227.3 353.77 214.07 354.17 200.83 366.12 191.38 377.98 181.82 389.69 172.26 401.2 162.8 412.47 153.55 423.48 144.58 434.2 135.98 444.63 127.81 454.77 120.11 464.64 112.9 474.27 106.21 483.7 100.01 492.99 94.29 502.2 88.99 511.41 84.07 520.69 79.45 530.12 75.06 539.78 70.83 549.75 66.65 560.09 62.47 570.87 58.18 582.13 53.72 593.91 49.03 606.22 44.05 619.06 38.75 632.42 33.08 646.26 27.05 660.53 20.64 675.15 13.87 690.03 6.78 712.64 -4.43 720.2 -8.25" stroke-dasharray="10 7" transform="rotate(50.5, 711, 400)" opacity="0.72"></path><path d="M704.87 18.48Q718.73 28.14 733.11 37.09 740.85 41.25 749.05 45.33 757.8 49.36 767.17 53.43 777.22 57.6 787.98 61.92 799.48 66.47 811.72 71.29 824.69 76.45 838.35 81.97 852.65 87.89 867.51 94.23 882.84 101 898.53 108.18 914.46 115.75 930.5 123.69 946.51 131.94 962.35 140.45 977.87 149.15 992.95 157.96 1007.44 166.81 1021.23 175.6 1034.21 184.25 1046.3 192.68 1057.43 200.82 1067.56 208.58 1076.67 215.91 1084.77 222.76 1076.22 235.39 1064.99 248.02 1052.16 260.66 1038.98 273.29 1026.72 285.92 1016.56 298.56 1009.5 311.19 1006.21 323.82 1007 336.46 1011.81 349.09 1020.17 361.72 1031.27 374.36 1044.03 386.99 1057.23 399.62 1069.58 412.26 1079.89 424.89 1087.17 437.52 1090.7 450.16 1090.15 462.79 1085.58 475.42 1077.41 488.06 1066.45 500.69 1053.76 513.32 1040.55 525.96 1028.11 538.59 1017.65 551.22 1010.16 563.86 1006.39 576.49 1006.69 589.12 1011.03 601.75 1018.99 614.39 1029.81 627.02 1014.94 640.44 1003.24 645.82 990.63 646.79 975.7 647.23 966.74 647.59 956.89 648.3 946.16 649.52 934.58 651.42 922.22 654.13 909.13 657.76 895.41 662.4 881.17 668.1 866.5 674.89 851.54 682.77 836.4 691.68 821.21 701.56 806.08 712.31 791.14 723.79 776.48 735.86 762.2 748.33 748.38 761.03 735.08 773.76 722.36 786.31 710.23 798.49 698.73 810.11 687.84 821 678.76 818.42 670.15 814.76 661.93 809.98 654.03 804.03 646.35 796.93 638.81 788.72 631.33 779.49 623.81 769.32 616.18 758.37 608.36 746.77 600.29 734.71 591.91 722.37 583.19 709.93 574.09 697.59 564.61 685.53 554.72 673.93 544.45 662.94 533.81 652.7 522.83 643.34 511.56 634.92 500.03 627.52 488.3 621.15 476.43 615.81 464.47 611.47 452.48 608.06 440.52 605.49 428.62 603.63 416.84 602.37 405.22 601.54 393.78 600.98 382.54 600.52 371.51 600 370.36 587.75 369.51 575.5 369.05 563.25 369.02 551 369.42 538.74 370.22 526.49 371.33 514.24 372.65 501.99 374.05 489.74 375.4 477.49 376.57 465.24 377.44 452.99 377.92 440.74 377.98 428.48 377.61 416.23 376.83 403.98 375.74 391.73 374.42 379.48 373.02 367.23 371.66 354.98 370.48 342.72 369.6 330.47 369.08 318.22 369 305.97 369.35 293.72 370.1 281.47 371.18 269.22 372.48 256.96 373.88 244.71 375.25 232.46 376.44 220.21 377.35 207.96 388.76 198.82 400.13 189.78 411.41 180.9 422.55 172.28 433.51 163.97 444.25 156.05 454.73 148.55 464.94 141.5 474.86 134.93 484.49 128.83 493.82 123.19 502.88 117.98 511.69 113.17 520.29 108.7 528.72 104.51 537.05 100.54 545.34 96.72 553.64 92.97 562.04 89.21 570.61 85.39 579.41 81.43 588.52 77.26 598 72.85 607.9 68.15 618.26 63.12 629.13 57.74 640.51 52.01 652.42 45.93 664.84 39.5 677.75 32.76 697.99 22.11 704.87 18.48" stroke-dasharray="3 2" transform="rotate(53.86666666666667, 711, 400)" opacity="0.17"></path><path d="M692.16 45.23Q699.68 49.82 707.56 54.16 715.89 58.27 724.7 62.19 734.05 65.96 743.96 69.63 754.47 73.25 765.57 76.87 777.27 80.56 789.54 84.37 802.35 88.35 815.66 92.56 829.39 97.04 843.47 101.83 857.83 106.98 872.37 112.5 886.98 118.4 901.56 124.7 916.01 131.39 930.22 138.45 944.07 145.86 957.47 153.57 970.33 161.54 982.55 169.72 994.07 178.04 1004.83 186.44 1014.78 194.85 1023.91 203.18 1032.19 211.38 1039.65 219.36 1046.32 227.06 1052.24 234.42 1042 246.17 1030.41 257.92 1018.44 269.67 1007.12 281.42 997.39 293.16 990.07 304.91 985.78 316.66 984.88 328.41 987.45 340.16 993.27 351.91 1001.85 363.66 1012.47 375.4 1024.23 387.15 1036.13 398.9 1047.19 410.65 1056.45 422.4 1063.15 434.15 1066.71 445.9 1066.84 457.64 1063.52 469.39 1057.04 481.14 1047.94 492.89 1036.99 504.64 1025.11 516.39 1013.31 528.14 1002.57 539.89 993.81 551.64 987.77 563.38 984.95 575.13 985.59 586.88 986.78 612.04 978.66 619.27 962.78 621.16 949.68 622.35 935.85 625.11 919.96 629.69 910.76 633.28 900.84 637.74 890.24 643.09 878.98 649.38 867.12 656.58 854.74 664.67 841.89 673.59 828.67 683.28 815.16 693.64 801.45 704.54 787.65 715.87 773.83 727.47 760.09 739.2 746.52 750.89 733.19 762.39 720.16 773.55 707.51 784.21 695.27 794.25 681.76 787.94 668.43 778.77 661.68 772.48 654.77 765.22 647.64 757.07 640.24 748.08 632.52 738.36 624.46 728.02 616.02 717.18 607.19 705.99 597.98 694.6 588.39 683.15 578.43 671.79 568.13 660.67 557.53 649.94 546.66 639.71 535.57 630.09 524.3 621.19 512.91 613.08 501.45 605.8 489.97 599.4 478.51 593.88 467.12 589.22 455.84 585.39 444.7 582.33 433.74 579.95 422.97 578.17 412.4 576.88 396.47 569.97 390.33 552.71 390.24 541.43 390.63 530.15 391.48 518.87 392.71 507.59 394.22 496.32 395.87 485.04 397.54 473.76 399.07 462.48 400.35 451.2 401.26 439.92 401.72 428.64 401.71 417.37 401.21 406.09 400.27 394.81 398.97 383.53 397.42 372.25 395.75 360.98 394.1 349.7 392.61 338.42 391.41 327.14 390.59 315.86 390.23 304.58 390.35 293.31 390.96 282.03 391.98 270.75 393.35 259.47 394.94 248.19 396.61 236.92 398.24 225.64 399.68 214.36 410.54 205.94 421.41 197.76 432.25 189.87 443.01 182.33 453.66 175.17 464.16 168.42 474.46 162.1 484.54 156.23 494.37 150.78 503.92 145.75 513.18 141.1 522.15 136.81 530.83 132.82 539.22 129.08 555.15 122.15 570.49 115.42 585.35 108.41 600.25 100.9 607.89 96.73 615.74 92.27 623.86 87.5 632.3 82.4 641.12 76.97 650.37 71.2 660.08 65.12 670.27 58.74 686.56 48.66 692.16 45.23" stroke-dasharray="3 7" transform="rotate(57.233333333333334, 711, 400)" opacity="0.15"></path><path d="M687.5 71.99Q696.43 76.16 705.81 80.1 715.67 83.83 725.99 87.37 736.79 90.77 748.04 94.06 759.72 97.29 771.79 100.51 784.21 103.75 796.93 107.08 809.88 110.53 823 114.16 836.22 118.01 849.46 122.12 862.63 126.51 875.67 131.23 888.48 136.29 900.98 141.7 913.11 147.48 924.79 153.61 935.96 160.09 946.56 166.9 956.55 174 965.9 181.37 974.58 188.97 982.58 196.73 989.91 204.62 996.58 212.56 1002.62 220.51 1008.07 228.39 1013 236.16 1017.46 243.74 1006.94 254.56 996.18 265.39 985.94 276.21 976.99 287.03 969.96 297.85 965.37 308.67 963.56 319.5 964.66 330.32 968.58 341.14 975.05 351.96 983.58 362.79 993.57 373.61 1004.28 384.43 1014.93 395.25 1024.74 406.07 1033.02 416.9 1039.14 427.72 1042.67 438.54 1043.34 449.36 1041.12 460.19 1036.15 471.01 1028.81 481.83 1019.63 492.65 1009.27 503.48 998.49 514.3 988.08 525.12 978.78 535.94 971.29 546.77 966.14 557.59 963.71 568.41 956.85 589.71 946.16 594.57 931.04 596.5 920.08 598.8 909.86 603.18 898.4 609.44 891.8 613.8 884.66 618.92 876.95 624.83 868.66 631.5 859.79 638.92 850.35 647.04 840.37 655.82 829.89 665.18 818.94 675.02 807.59 685.27 795.87 695.8 783.86 706.49 771.63 717.24 759.23 727.92 746.75 738.4 734.24 748.56 721.78 758.29 709.43 767.49 697.15 761.65 684.23 753.43 677.28 747.88 669.99 741.52 662.35 734.37 654.34 726.49 645.96 717.95 637.21 708.83 628.09 699.22 618.64 689.21 608.86 678.93 598.79 668.49 588.48 658 577.94 647.58 567.24 637.35 556.41 627.42 545.5 617.88 534.55 608.83 523.6 600.34 512.7 592.49 501.88 585.32 491.18 578.86 480.63 573.14 470.25 568.15 460.06 563.89 450.07 560.31 440.28 557.38 430.7 555.02 416.45 547.3 411.48 531.08 411.91 520.74 412.81 510.4 414.14 500.07 415.78 489.73 417.61 479.39 419.51 469.05 421.34 458.71 422.96 448.37 424.26 438.03 425.13 427.69 425.52 417.36 425.4 407.02 424.78 396.68 423.7 386.34 422.24 376 420.51 365.66 418.63 355.32 416.74 344.99 414.98 334.65 413.48 324.31 412.34 313.97 411.65 303.63 411.45 293.29 411.77 282.95 412.58 272.62 413.82 262.28 415.4 251.94 417.2 241.6 419.1 231.26 420.96 220.92 431.21 213.56 441.52 206.51 451.85 199.82 462.18 193.5 472.46 187.57 482.66 182.05 492.75 176.92 502.68 172.17 512.43 167.79 521.97 163.74 531.27 159.99 540.3 156.49 549.06 153.21 557.53 150.09 573.48 144.11 588.6 138.13 602.58 131.64 616.08 124.59 629.23 116.26 642.48 107.04 649.31 101.9 656.34 96.45 663.63 90.72 671.22 84.71 683.33 75.22 687.5 71.99" stroke-dasharray="0 6" transform="rotate(60.599999999999994, 711, 400)" opacity="0.48"></path><path d="M692.89 98.74Q703.01 102.51 713.48 106.07 724.26 109.43 735.33 112.62 746.66 115.67 758.21 118.61 769.92 121.48 781.76 124.32 793.66 127.16 805.58 130.05 817.44 133.02 829.2 136.12 840.79 139.39 852.15 142.85 863.23 146.55 873.97 150.51 884.33 154.76 894.26 159.31 903.73 164.18 912.7 169.37 921.15 174.89 929.07 180.73 936.44 186.87 943.28 193.3 949.6 200 955.41 206.93 965.44 221.39 974.32 236.19 978.22 243.66 981.92 251.1 972.33 260.98 963.28 270.86 955.33 280.73 948.97 290.61 944.6 300.49 942.48 310.36 942.77 320.24 945.42 330.12 950.28 339.99 957.05 349.87 965.31 359.74 974.54 369.62 984.17 379.5 993.6 389.37 1002.25 399.25 1009.58 409.13 1015.14 419 1018.58 428.88 1019.68 438.75 1018.38 448.63 1014.76 458.51 1009.05 468.38 1001.59 478.26 992.85 488.14 983.38 498.01 973.76 507.89 964.59 517.76 956.44 527.64 949.81 537.52 945.12 547.39 939.05 562.63 928.88 568.65 909.98 570.87 898.15 573.24 883.23 581.76 872.16 590.67 861.91 601.57 850.61 614.37 844.26 621.82 837.47 629.8 830.23 638.28 822.54 647.17 814.38 656.42 805.78 665.93 796.75 675.62 787.32 685.4 777.51 695.17 767.37 704.85 756.92 714.33 746.22 723.53 735.32 732.36 724.25 740.74 710.88 735.37 696.49 728.03 688.68 723.16 680.52 717.61 672.02 711.4 663.19 704.56 654.06 697.14 644.66 689.18 635 680.76 625.13 671.95 615.08 662.82 604.89 653.46 594.59 643.97 584.23 634.42 573.83 624.91 563.45 615.52 553.12 606.35 542.86 597.47 532.72 588.96 522.7 580.88 512.85 573.28 503.17 566.22 493.68 559.73 484.39 553.83 475.3 548.54 466.41 543.86 457.72 539.78 449.22 536.28 436.83 527.36 433.29 511.96 434.29 502.51 435.72 493.07 437.47 483.62 439.44 474.17 441.51 464.73 443.54 455.28 445.42 445.84 447.02 436.39 448.25 426.94 449.03 417.5 449.31 408.05 449.07 398.6 448.33 389.16 447.14 379.71 445.56 370.26 443.7 360.82 441.68 351.37 439.61 341.93 437.62 332.48 435.85 323.03 434.4 313.59 433.35 304.14 432.78 294.69 432.72 285.25 433.17 275.8 434.11 266.35 435.48 256.91 437.19 247.46 439.13 238.01 441.19 228.57 450.74 222.46 460.37 216.7 470.09 211.29 479.85 206.24 489.64 201.55 499.42 197.2 509.16 193.18 518.83 189.46 528.41 186.02 537.85 182.82 547.14 179.82 556.24 177 565.12 174.29 573.77 171.66 590.17 166.43 605.75 161.03 619.96 154.96 633.4 148.29 645.78 140.38 657.7 131.65 669.25 121.54 680.84 110.65 689.84 101.76 692.89 98.74" stroke-dasharray="2 9" transform="rotate(63.96666666666666, 711, 400)" opacity="0.49"></path><path d="M706.02 125.49Q716.37 128.87 726.85 132.06 737.42 135.08 748.05 137.94 758.7 140.66 769.31 143.28 779.87 145.82 790.31 148.31 800.6 150.78 810.69 153.28 820.56 155.82 830.15 158.44 839.43 161.18 848.38 164.07 864.97 170.51 880.35 177.62 893.64 186.05 905.69 195.32 915.81 206.02 924.93 217.52 932.77 230.2 940.1 243.42 941.46 258.2 932.52 275.06 927.08 283.99 923.29 292.93 921.33 301.86 921.31 310.79 923.23 319.72 926.99 328.66 932.4 337.59 939.17 346.52 946.95 355.45 955.33 364.39 963.88 373.32 972.15 382.25 979.7 391.18 986.15 400.12 991.15 409.05 994.45 417.98 995.87 426.91 995.33 435.85 992.88 444.78 988.63 453.71 982.81 462.65 975.71 471.58 967.72 480.51 959.25 489.44 950.74 498.38 942.63 507.31 935.35 516.24 929.28 525.18 919.35 538.88 906.48 544.27 893.12 545.92 881.05 548.17 863.87 556.16 852.74 564.15 844.45 573.61 836.09 584.62 827.16 598.09 817.63 612.86 812.43 620.89 806.94 629.22 801.12 637.77 794.98 646.5 788.48 655.32 781.63 664.17 774.43 672.98 766.88 681.67 758.99 690.19 750.76 698.46 734.07 709.16 718.09 709.34 709.97 706.23 701.56 702.55 692.89 698.32 683.98 693.52 674.84 688.17 665.52 682.3 656.04 675.92 646.44 669.07 636.74 661.8 626.98 654.15 617.19 646.18 607.41 637.95 597.66 629.53 587.97 620.97 578.38 612.34 568.9 603.72 559.55 595.17 550.35 586.75 541.33 578.53 532.49 570.56 523.83 562.91 515.37 555.6 507.1 548.7 499.03 542.23 491.14 536.22 483.43 530.69 468.58 521.37 454.13 513.51 456.2 496.3 459.42 479.09 461.5 470.48 463.68 461.87 465.85 453.26 467.89 444.66 471 427.44 472.91 410.23 472.45 393.02 470.56 375.8 468.91 367.19 466.98 358.59 464.86 349.98 462.68 341.37 460.53 332.77 458.54 324.16 455.63 306.95 453.97 289.73 454.71 272.52 456.84 255.31 463.93 240.01 478.12 228.86 487.06 224.71 496.1 220.86 505.22 217.29 514.39 213.99 523.6 210.93 532.81 208.09 542.01 205.43 551.17 202.92 560.26 200.53 569.25 198.21 578.12 195.95 586.84 193.69 603.66 189.01 619.84 184.04 634.82 178.3 649.02 171.96 661.94 164.45 674.12 156.21 685.25 146.73 695.88 136.56 703.51 128.3 706.02 125.49" stroke-dasharray="7 2" transform="rotate(67.33333333333333, 711, 400)" opacity="0.81"></path><path d="M721.28 152.24Q739.97 158.09 758.28 163.32 775.97 168.05 792.83 172.47 808.68 176.76 823.37 181.12 836.81 185.77 848.96 190.91 859.84 196.72 869.53 203.35 878.18 210.91 885.99 219.46 893.21 229.01 900.13 239.51 907.06 250.87 914.34 262.92 904.48 278.95 900 294.97 901.68 310.99 909.22 327.01 921.33 343.03 935.95 359.06 950.58 375.08 962.71 391.1 970.28 407.12 971.99 423.14 967.55 439.16 957.72 455.18 944.18 471.21 929.23 487.23 915.45 503.25 905.17 519.27 888.61 521.12 873.6 523.75 860.12 527.47 848.06 532.53 837.28 539.14 827.58 547.4 818.7 557.33 810.38 568.88 802.33 581.88 794.27 596.1 785.93 611.24 777.07 626.93 767.48 642.79 757 658.39 745.52 673.33 732.98 687.24 716.06 682.98 698.49 677.02 680.48 669.25 662.23 659.7 643.97 648.47 625.88 635.76 608.15 621.84 590.94 607.03 574.34 591.7 558.43 576.25 543.25 561.06 528.78 546.5 514.99 532.91 501.8 520.54 489.09 509.6 476.74 500.21 479.82 484.58 483.96 468.95 488.44 453.32 492.5 437.68 495.45 422.05 496.78 406.42 496.27 390.79 494 375.15 490.36 359.52 485.97 343.89 481.59 328.25 477.96 312.62 475.69 296.99 475.19 281.35 476.53 265.72 479.49 250.09 495.16 243.3 511.33 237.46 527.94 232.41 544.89 227.96 562.04 223.9 579.25 220.01 596.34 216.05 613.15 211.81 629.49 207.08 645.21 201.71 660.16 195.56 674.26 188.57 687.41 180.7 699.61 171.98 716.08 157.34 721.28 152.24" stroke-dasharray="3 10" transform="rotate(70.69999999999999, 711, 400)" opacity="0.61"></path><path d="M732.14 178.99Q747.02 184.15 761.16 188.76 774.44 192.93 786.81 196.79 798.21 200.48 808.66 204.14 818.17 207.96 826.84 212.08 834.77 216.65 842.1 221.81 849.01 227.68 855.69 234.33 862.37 241.82 869.27 250.17 876.61 259.34 884.61 269.29 879.45 283.54 879.02 297.78 883.37 312.03 891.9 326.28 903.43 340.53 916.35 354.77 928.88 369.02 939.28 383.27 946.09 397.52 948.38 411.76 945.83 426.01 938.8 440.26 928.25 454.51 915.65 468.76 902.75 483.01 891.35 497.25 874.6 500.26 858.95 504.23 844.44 509.32 831.11 515.65 818.93 523.29 807.82 532.25 797.7 542.47 788.41 553.85 779.81 566.24 771.7 579.43 763.91 593.18 756.24 607.22 748.5 621.26 740.5 635 732.1 648.17 723.15 660.49 706.29 656.63 689.4 651.43 672.63 644.82 656.15 636.79 640.07 627.4 624.51 616.76 609.53 605.03 595.2 592.42 581.53 579.18 568.52 565.57 556.12 551.86 544.29 538.33 532.94 525.24 521.98 512.84 511.3 501.33 500.8 490.87 504.76 476.74 509.23 462.61 513.6 448.48 517.27 434.35 519.71 420.22 520.59 406.09 519.8 391.96 517.43 377.84 513.82 363.71 509.48 349.58 504.99 335.45 500.99 321.32 498.03 307.19 496.52 293.06 496.67 278.94 498.46 264.81 512.05 260.07 526.15 255.94 540.73 252.25 555.76 248.85 571.16 245.55 586.85 242.18 602.72 238.58 618.64 234.58 634.48 230.06 650.09 224.91 665.35 219.06 680.11 212.47 694.26 205.13 707.69 197.06 726.24 183.65 732.14 178.99" stroke-dasharray="8 6" transform="rotate(74.06666666666666, 711, 400)" opacity="0.84"></path><path d="M733.96 205.74Q744.65 210.23 754.64 214.26 763.94 217.9 772.57 221.25 787.8 227.5 801.68 233.85 814.45 241.55 827.37 250.68 834.29 256.28 841.71 262.56 849.74 269.55 858.52 277.24 857.45 289.8 860.07 302.36 866.09 314.91 874.85 327.47 885.38 340.03 896.53 352.58 907.07 365.14 915.84 377.7 921.88 390.25 924.53 402.81 923.49 415.36 918.88 427.92 911.2 440.48 901.3 453.03 890.27 465.59 879.32 478.14 863.32 482.44 847.95 487.67 833.32 493.88 819.49 501.09 806.5 509.31 794.37 518.48 783.09 528.54 772.63 539.37 762.92 550.83 753.91 562.77 745.48 575 737.53 587.33 729.95 599.57 722.6 611.5 715.37 622.95 708.13 633.74 693.23 630.28 678.71 625.79 664.66 620.23 651.12 613.58 638.14 605.86 625.74 597.13 613.93 587.47 602.67 577.02 591.96 565.92 581.72 554.33 571.9 542.44 562.43 530.42 553.22 518.48 544.19 506.8 535.26 495.54 526.34 484.86 530.7 472.19 535.08 459.52 539.02 446.85 542.08 434.18 543.91 421.52 544.32 408.85 543.27 396.18 540.87 383.51 537.38 370.84 533.19 358.17 528.75 345.5 524.56 332.83 521.08 320.16 518.69 307.49 517.64 294.82 518.07 282.15 529.5 278.92 541.37 275.98 553.69 273.2 566.46 270.44 579.66 267.58 593.26 264.5 607.21 261.08 621.43 257.24 635.85 252.88 650.37 247.95 664.91 242.41 679.34 236.25 693.56 229.46 707.48 222.08 727.46 209.94 733.96 205.74" stroke-dasharray="9 7" transform="rotate(77.43333333333334, 711, 400)" opacity="0.75"></path><path d="M725.96 232.49Q740.06 239.65 753.12 245.85 765.12 251.09 776.95 256.21 789.43 261.97 802.84 268.59 810.3 272.58 818.31 277.05 826.94 282.04 836.22 287.57 838.23 298.52 842.8 309.46 849.54 320.4 857.88 331.34 867.11 342.29 876.45 353.23 885.13 364.17 892.41 375.11 897.66 386.06 900.46 397 900.56 407.94 897.96 418.89 892.87 429.83 885.72 440.77 877.12 451.72 867.8 462.66 853.36 468.04 839.18 474.16 825.37 481.03 811.99 488.63 799.1 496.92 786.76 505.83 775 515.29 763.84 525.21 753.3 535.48 743.35 546 733.98 556.62 725.16 567.24 716.85 577.7 708.98 587.9 701.5 597.7 694.33 606.99 682.7 603.93 671.56 600.11 660.91 595.5 650.75 590.08 641.07 583.86 631.83 576.86 623.01 569.12 614.55 560.7 606.41 551.7 598.52 542.2 590.84 532.31 583.28 522.14 575.8 511.82 568.32 501.47 560.8 491.21 553.17 481.15 557.39 469.93 561.28 458.71 564.51 447.49 566.81 436.27 567.99 425.05 567.95 413.83 566.68 402.61 564.3 391.39 561.01 380.17 557.09 368.95 552.86 357.73 548.68 346.51 544.91 335.29 541.86 324.07 543.99 306.09 557.81 297.09 567.8 294.78 578.17 292.34 588.93 289.67 600.08 286.71 611.61 283.39 623.5 279.65 635.72 275.45 648.23 270.77 660.97 265.58 673.89 259.89 686.92 253.7 700 247.05 719.49 236.22 725.96 232.49" stroke-dasharray="2 9" transform="rotate(80.80000000000001, 711, 400)" opacity="0.38"></path><path d="M711.56 259.23Q722.38 265.28 733.11 270.55 744.23 274.92 755.9 279.06 768.98 283.34 783.18 288.02 791.03 290.74 799.33 293.74 808.12 297.06 817.4 300.76 821.31 310.15 826.75 319.54 833.38 328.93 840.8 338.32 848.54 347.71 856.12 357.1 863.08 366.49 868.97 375.88 873.44 385.27 876.2 394.66 877.09 404.06 876.04 413.45 873.14 422.84 868.54 432.23 862.55 441.62 855.52 451.01 843.24 456.99 830.98 463.49 818.81 470.47 806.79 477.91 794.96 485.75 783.39 493.95 772.11 502.45 761.17 511.18 750.58 520.07 740.38 529.05 730.58 538.02 721.19 546.92 712.21 555.67 703.64 564.19 687.5 574.99 671.77 574.4 657.34 566.04 643.72 555.97 637.27 549.95 630.98 543.41 624.79 536.38 618.66 528.92 612.54 521.07 606.41 512.91 600.2 504.49 593.9 495.88 587.46 487.17 580.86 478.43 584.45 468.68 587.52 458.93 589.87 449.18 591.36 439.43 591.89 429.68 591.44 419.93 590.02 410.18 587.74 400.43 584.72 390.68 581.17 380.93 577.29 371.18 573.33 361.43 569.53 351.68 566.14 341.93 566.02 326.38 576.2 318.6 592.16 313.97 608.97 308.55 617.91 305.29 627.18 301.67 636.76 297.67 646.66 293.29 656.86 288.52 667.35 283.36 678.09 277.83 689.07 271.95 705.9 262.49 711.56 259.23" stroke-dasharray="4 1" transform="rotate(84.16666666666667, 711, 400)" opacity="0.74"></path><path d="M696.92 285.98Q706.8 291.05 717.26 295.34 728.5 299.02 740.7 302.32 754.03 305.49 768.56 308.81 784.36 312.52 801.4 316.9 811.4 332.65 823.46 348.4 835.53 364.15 845.54 379.9 851.78 395.65 853.19 411.4 849.53 427.14 841.42 442.89 821.71 455.13 801.76 468.42 781.86 482.5 762.26 497.09 743.2 511.83 724.87 526.37 707.42 540.37 690.96 553.49 680.44 548.66 670.41 542.34 660.65 534.48 650.94 525.09 641.07 514.28 630.85 502.21 620.14 489.11 608.8 475.29 613.47 458.82 615.58 442.35 614.77 425.89 611.17 409.42 605.41 392.95 598.46 376.48 591.52 360.01 585.77 343.54 597.04 339.8 608.81 335.26 621.25 329.76 634.5 323.18 648.64 315.48 663.76 306.65 679.86 296.78 696.92 285.98 696.92 285.98 696.92 285.98" stroke-dasharray="5 5" transform="rotate(87.53333333333333, 711, 400)" opacity="0.97"></path><path d="M688.3 312.73Q698.22 316.73 708.79 320.19 720.06 323.19 732.06 325.84 744.8 328.28 758.28 330.64 772.46 333.06 787.28 335.69 796.22 348.42 805.7 361.15 814.65 373.88 822.1 386.61 827.23 399.34 829.48 412.07 828.6 424.8 824.68 437.53 810 448.36 794.9 459.6 779.51 471.12 763.97 482.74 748.41 494.28 732.96 505.57 717.73 516.45 702.83 526.74 695.47 522.89 688.01 518.14 680.36 512.44 672.41 505.77 664.09 498.17 655.32 489.69 646.06 480.41 636.27 470.43 638.8 457.11 639.37 443.78 637.92 430.46 634.61 417.13 629.8 403.81 624.02 390.48 617.91 377.15 612.13 363.83 620.43 359.95 628.89 355.39 637.62 350.1 646.7 344.06 656.24 337.26 666.31 329.74 682.64 317.14 688.3 312.73" stroke-dasharray="5 8" transform="rotate(90.9, 711, 400)" opacity="0.79"></path><path d="M689.38 339.48Q698.73 342.45 708.46 345.08 718.56 347.42 729.02 349.51 739.82 351.4 750.93 353.14 762.32 354.8 773.93 356.43 780.73 366.1 787.39 375.78 793.49 385.45 798.66 395.12 802.59 404.79 805.01 414.47 805.79 424.14 804.87 433.81 794.92 442.3 784.62 450.87 774.02 459.45 763.16 467.96 752.1 476.34 740.89 484.51 729.57 492.42 718.2 499.99 705.98 493.49 692.9 485.48 685.81 480.57 678.39 475.15 670.62 469.22 662.53 462.83 663.19 452.76 662.62 442.68 660.87 432.61 658.04 422.54 654.31 412.46 649.9 402.39 645.6 385.36 651.98 374.11 663.93 364 676.21 352.6 686.03 342.85 689.38 339.48" stroke-dasharray="10 9" transform="rotate(94.26666666666667, 711, 400)" opacity="0.65"></path><path d="M699.71 366.23Q714.32 369.99 729.36 373.15 744.71 375.83 760.28 378.14 768.44 391.21 775.23 404.29 779.91 417.37 781.96 430.44 770.03 441.64 757.43 452.61 744.21 463.19 730.48 473.24 720.56 469.2 709.97 464.31 698.74 458.54 686.9 451.87 685.25 438.39 681.48 424.91 676.01 411.43 669.43 397.96 677.21 391.16 684.77 383.56 695.97 370.73 699.71 366.23" stroke-dasharray="5 1" transform="rotate(97.63333333333334, 711, 400)" opacity="0.79"></path></g></svg>