<svg xmlns="http://www.w3.org/2000/svg" version="1.1" xmlnsXlink="http://www.w3.org/1999/xlink" xmlnsSvgjs="http://svgjs.dev/svgjs" viewBox="0 0 800 800" opacity="0.53"><defs><linearGradient x1="50%" y1="0%" x2="50%" y2="100%" id="uundulate-grad"><stop stop-color="#feb703" stop-opacity="1" offset="45%"></stop><stop stop-color="#db2777" stop-opacity="1" offset="100%"></stop></linearGradient></defs><g stroke-width="2" stroke="url(#uundulate-grad)" fill="none"><path d="M752.4921118732439 480.20487935375013C752.0445042221927 635.0503717808581 681.330736128576 720.9196902745739 588.0904687253393 764.2572703622675C494.85020132210275 807.5948504499611 415.2691562973664 791.5817612623346 304.93882833770886 688.2252637746793C194.60850037805147 584.8687662870241 -0.9326382128243722 407.15157347621516 58.50489451898329 268.14608242152144C117.9424272507909 129.1405913668276 445.6583151682478 -23.180009315398706 590.2389854503851 20.998906712148823C734.8196557325225 65.17782273969635 752.9397195242948 325.3593869266422 752.4921118732439 480.20487935375013C752.0445042221927 635.0503717808581 681.330736128576 720.9196902745739 588.0904687253393 764.2572703622675 "></path><path d="M728.9926906454963 474.8579301214429C728.5749235045154 619.380389720077 662.5754066171396 699.5250869808784 575.5511570407855 739.9734950627258C488.52690746443136 780.4219031445732 414.251265441344 765.4763532361219 311.27629267899715 669.0102889143102C208.30131991665013 572.5442245924986 25.79625723183267 406.6748446357436 81.27128778151985 276.93638631802946C136.7463183312069 147.19792800031513 442.61448038749995 5.0320340302372415 577.556439317495 46.265688989281614C712.4983982474898 87.49934394832599 729.4104577864772 330.3354705228087 728.9926906454963 474.8579301214429C728.5749235045154 619.380389720077 662.5754066171396 699.5250869808784 575.5511570407855 739.9734950627258 "></path><path d="M705.4931778650143 469.51095037155744C705.1052512341035 603.7103771417176 643.8199855529689 678.1304531696046 563.0117538034972 715.6896892456058C482.2035220540255 753.248925321607 413.23328303258734 739.3709146923308 317.61366546755085 649.7952835363627C221.9940479025144 560.2196523803948 52.525061123755336 406.19808527769385 104.03758949132197 285.72665969695913C155.5501178588886 165.25523411622453 439.57055405401786 33.244046858295064 564.8738016318703 71.53244074883628C690.1770492097227 109.8208346393775 705.8811044959252 335.3115236013972 705.4931778650143 469.51095037155744C705.1052512341035 603.7103771417176 643.8199855529689 678.1304531696046 563.0117538034972 715.6896892456058 "></path><path d="M681.9937261196889 464.1638790689376C681.635639998848 588.0402730106239 625.0646255239544 656.7357278055965 550.4724116013651 691.4057918757514C475.88019767877597 726.0758559459064 412.2153616589869 713.2653845958052 323.9510992912609 630.580186605681C235.68683692353494 547.8949886155567 79.25392605083425 405.7212343669097 126.8039522362804 294.51684152315465C174.35397842172648 183.31244867939955 436.526688755692 61.45596813361851 552.1912249814019 96.79910095565657C667.8557612071118 132.14223377769457 682.3518122405295 340.2874851272512 681.9937261196889 464.1638790689376C681.635639998848 588.0402730106239 625.0646255239544 656.7357278055965 550.4724116013651 691.4057918757514 "></path><path d="M658.494243856785 458.81689931905225C658.1659982460143 572.3702604322647 606.3092349773619 635.3410939943229 537.9330388816551 667.1219860586316C469.5568427859482 698.9028781229403 411.19740976780827 687.1599460520142 330.28850259739284 611.3651812277336C249.37959542697735 535.570416403453 105.98276046033504 405.2444750088599 149.57028446366064 303.30711490208444C193.15780846698624 201.369754795309 433.48279293978794 89.66798096167634 539.5086178133554 122.06585271521124C645.5344426869228 154.46372446874608 658.8224894675558 345.2635382058397 658.494243856785 458.81689931905225C658.1659982460143 572.3702604322647 606.3092349773619 635.3410939943229 537.9330388816551 667.1219860586316 "></path><path d="M634.9947921114594 453.4699500867448C634.6963870107588 556.7002783714835 587.5538749483475 613.9464907006272 525.3936966795231 642.8382107590897C463.2335184106987 671.7299308175521 410.17948839420774 661.0545380258012 336.6259364211028 592.1502063673644C263.0723844479979 523.2458747089274 132.71162538741396 404.76774616838827 172.33664720861907 312.09741879859234C211.96166902982418 219.42709142879653 430.438927641462 117.88002430731228 526.8260411628869 147.33263499234403C623.2131546843119 176.7852456773757 635.2931972121601 350.23962180200624 634.9947921114594 453.4699500867448C634.6963870107588 556.7002783714835 587.5538749483475 613.9464907006272 525.3936966795231 642.8382107590897 "></path><path d="M611.4952640721884 448.1229093017032C611.226699481558 541.030204757968 568.7984386253877 592.5517958541975 512.8542781834458 618.5543439068136C456.9101177415039 644.5568919594298 409.161490726662 634.949038446854 342.9632939508675 572.9351399542608C276.7650971750731 510.9212414616676 159.44041402054756 404.29092577518225 195.10293365963219 320.887631142366C230.76545329871675 237.48433650954968 427.39498604919083 146.09197610021386 514.1433882184733 172.59932571674244C600.8917903877557 199.10667533327097 611.763828662819 355.2156138454384 611.4952640721884 448.1229093017032C611.226699481558 541.030204757968 568.7984386253877 592.5517958541975 512.8542781834458 618.5543439068136 "></path><path d="M587.9957665504957 442.7758990342397C587.7570424699352 525.3601616620306 550.0430328200061 571.1571315253457 500.31489020494655 594.2705075721155C450.58674758988707 617.3838836188855 408.1435235766944 608.8435693854848 349.3006819982104 553.7201040587353C290.45784041972644 498.59663873198576 186.1692331712593 403.81413589955434 217.86925062822337 329.67787400371765C249.56926808518745 255.54161210788095 424.3510749744978 174.3039584106936 501.46076579163764 197.86604695871893C578.5704566087777 221.4281355067443 588.2344906310561 360.19163640644877 587.9957665504957 442.7758990342397C587.7570424699352 525.3601616620306 550.0430328200061 571.1571315253457 500.31489020494655 594.2705075721155 "></path><path d="M564.49631480517 437.4289498019324C564.2874312346796 509.6901796012494 531.2876727909917 549.7625282316501 487.7755480028146 569.9867322725738C444.26342321463756 590.2109363134975 407.1256022030939 582.7381613592719 355.63811582192045 534.505129198366C304.1506294407469 486.2720970374603 212.8980980983382 403.3374070590828 240.6356133731818 338.46817790022567C268.37312864802533 273.59894874136853 421.30720967617185 202.51600175632956 488.7781891411694 223.13282923585172C556.2491686061668 243.74965671537393 564.7051983756605 365.1677200026153 564.49631480517 437.4289498019324C564.2874312346796 509.6901796012494 531.2876727909917 549.7625282316501 487.7755480028146 569.9867322725738 "></path><path d="M540.9968478010553 432.0819700520469C540.817804740635 494.02016702289006 512.5322975031881 528.3678944203764 475.2361905418935 545.7029264554538C437.94008358059887 563.0379584905313 406.1076655707044 556.6327228154807 361.9755343868414 515.2901238204186C317.8434032029784 473.9475248253565 239.62694776662806 402.860647701033 263.4019608593511 347.25845127915545C287.1769739520742 291.65625485727793 418.26332911905695 230.72801458438738 476.0955972319118 248.39958099540638C533.9278653447668 266.07114740642544 541.1758908614756 370.14377308120373 540.9968478010553 432.0819700520469C540.817804740635 494.02016702289006 512.5322975031881 528.3678944203764 475.2361905418935 545.7029264554538 "></path><path d="M517.4973807969407 426.73495978458334C517.3481782465904 478.3501239269526 493.77692221538473 506.97323009152456 462.6968330809725 521.4190901207558C431.6167439465603 535.864950149987 405.0897289383148 530.5272537541116 368.3129529517623 496.07508792489307C331.53617696520985 461.62292209567465 266.3557974349179 402.3838578254051 286.1683083455205 356.0486941405071C305.980819256123 309.7135304556092 415.21944856194193 258.9399968948671 463.4130053226544 273.6663022373829C511.60656208336695 288.39260757989877 517.646583347291 375.11979564221406 517.4973807969407 426.73495978458334C517.3481782465904 478.3501239269526 493.77692221538473 506.97323009152456 462.6968330809725 521.4190901207558 "></path><path d="M493.9978832752479 421.38799529348705C493.8785212349676 462.6801266073825 475.0215164100031 485.57861153904 450.1574451024733 497.13529956242496C425.29337379494353 508.69198758581 404.0717617883472 504.42183046910964 374.6503409991052 476.86009780573477C345.2289202098632 449.29836514236007 293.08461658562965 401.90711372614436 308.9346253141117 364.838982778226C324.7846340425937 327.77085183030766 412.1755374872489 287.15202498171396 450.7303828958188 298.93306925572665C489.28522830438885 310.71411352973934 494.11724531552807 380.09586397959157 493.9978832752479 421.38799529348705C493.8785212349676 462.6801266073825 475.0215164100031 485.57861153904 450.1574451024733 497.13529956242496 "></path><path d="M470.4984315299222 416.04098502602346C470.408909999712 447.01008351144503 456.2661563809886 464.1839472101882 437.6181029003413 472.8514632277269C418.97004941969396 481.51897924526565 403.05384041474673 478.3163614077404 380.9877748228152 457.6450619102093C358.9217092308837 436.97376241267824 319.81348151270856 401.4303238505165 331.7009880590701 373.6292256395777C343.5884946054316 345.82812742863894 409.131672188923 315.3640072921937 438.04780624535044 324.1997904977032C466.96394030177794 333.0355737032127 470.58795306013235 385.0718865406019 470.4984315299222 416.04098502602346C470.408909999712 447.01008351144503 456.2661563809886 464.1839472101882 437.6181029003413 472.8514632277269 "></path><path d="M446.9989492670185 410.693990017349C446.9392682468783 431.3400556742967 437.51076583439607 442.7892981401255 425.07873018063117 448.56764215181795C412.6466945268663 454.3459861635105 402.03588852356813 452.2109076051603 387.32517812894713 438.43004127347285C372.6144677343261 424.64917494178553 346.54231592220935 400.9535492336777 354.4673202864504 382.4194837597185C362.3923246506914 363.88541828575933 406.087776373019 343.5760048614625 425.36519907730394 349.4665269984688C444.64262178158896 355.35704913547517 447.05863028715856 390.0479243604012 446.9989492670185 410.693990017349C446.9392682468783 431.3400556742967 437.51076583439607 442.7892981401255 425.07873018063117 448.56764215181795 "></path><path d="M423.49948226290377 405.34699500867447C423.4696417528337 415.6700278371484 418.7553905465926 421.3946490700627 412.5393727197101 424.283821075909C406.3233548928277 427.17299308175524 401.0179518911786 426.10545380258014 393.66259669386807 419.2150206367364C386.3072414965576 412.32458747089277 373.2711655904992 400.47677461683884 377.2336677726197 391.2097418798592C381.19616995474024 381.94270914287966 403.043895815904 371.78800243073124 412.6826071680465 374.7332634992344C422.321318520189 377.67852456773755 423.52932277297384 395.0239621802006 423.49948226290377 405.34699500867447C423.4696417528337 415.6700278371484 418.7553905465926 421.3946490700627 412.5393727197101 424.283821075909 "></path></g></svg>