<svg id="visual" viewBox="0 0 900 600" width="900" height="600" xmlns="http://www.w3.org/2000/svg" xmlns:xlink="http://www.w3.org/1999/xlink" version="1.1"><g stroke-width="1" stroke-linejoin="bevel"><path d="M406 277L485 189L421 208Z" fill="#ffffff" stroke="#ffffff"></path><path d="M406 277L493 334L485 189Z" fill="#f5f5f5" stroke="#f5f5f5"></path><path d="M493 334L576 281L485 189Z" fill="#f2f2f2" stroke="#f2f2f2"></path><path d="M386 383L518 376L493 334Z" fill="#f2f2f2" stroke="#f2f2f2"></path><path d="M493 334L562 367L576 281Z" fill="#fafafa" stroke="#fafafa"></path><path d="M518 376L562 367L493 334Z" fill="#fdfdfd" stroke="#fdfdfd"></path><path d="M576 281L592 165L485 189Z" fill="#ffffff" stroke="#ffffff"></path><path d="M406 277L386 383L493 334Z" fill="#f1f1f1" stroke="#f1f1f1"></path><path d="M485 189L409 102L421 208Z" fill="#f5f5f5" stroke="#f5f5f5"></path><path d="M421 208L313 174L406 277Z" fill="#f9f9f9" stroke="#f9f9f9"></path><path d="M406 277L289 316L386 383Z" fill="#f5f5f5" stroke="#f5f5f5"></path><path d="M513 70L409 102L485 189Z" fill="#f5f5f5" stroke="#f5f5f5"></path><path d="M409 102L313 174L421 208Z" fill="#f7f7f7" stroke="#f7f7f7"></path><path d="M592 165L513 70L485 189Z" fill="#f4f4f4" stroke="#f4f4f4"></path><path d="M313 174L289 316L406 277Z" fill="#f1f1f1" stroke="#f1f1f1"></path><path d="M562 367L672 329L576 281Z" fill="#f7f7f7" stroke="#f7f7f7"></path><path d="M576 281L685 160L592 165Z" fill="#fdfdfd" stroke="#fdfdfd"></path><path d="M326 0L299 107L409 102Z" fill="#efefef" stroke="#efefef"></path><path d="M409 102L299 107L313 174Z" fill="#f9f9f9" stroke="#f9f9f9"></path><path d="M313 174L210 189L289 316Z" fill="#f4f4f4" stroke="#f4f4f4"></path><path d="M685 160L631 87L592 165Z" fill="#ffffff" stroke="#ffffff"></path><path d="M592 165L631 87L513 70Z" fill="#f4f4f4" stroke="#f4f4f4"></path><path d="M672 329L685 160L576 281Z" fill="#f9f9f9" stroke="#f9f9f9"></path><path d="M386 383L529 484L518 376Z" fill="#fdfdfd" stroke="#fdfdfd"></path><path d="M518 376L529 484L562 367Z" fill="#fcfcfc" stroke="#fcfcfc"></path><path d="M562 367L680 434L672 329Z" fill="#f5f5f5" stroke="#f5f5f5"></path><path d="M376 510L529 484L386 383Z" fill="#fcfcfc" stroke="#fcfcfc"></path><path d="M596 0L518 0L513 70Z" fill="#fdfdfd" stroke="#fdfdfd"></path><path d="M513 70L404 0L409 102Z" fill="#f4f4f4" stroke="#f4f4f4"></path><path d="M518 0L404 0L513 70Z" fill="#fdfdfd" stroke="#fdfdfd"></path><path d="M165 131L210 189L299 107Z" fill="#f9f9f9" stroke="#f9f9f9"></path><path d="M299 107L210 189L313 174Z" fill="#fcfcfc" stroke="#fcfcfc"></path><path d="M231 423L265 432L289 316Z" fill="#f5f5f5" stroke="#f5f5f5"></path><path d="M289 316L265 432L386 383Z" fill="#fcfcfc" stroke="#fcfcfc"></path><path d="M265 432L376 510L386 383Z" fill="#f5f5f5" stroke="#f5f5f5"></path><path d="M685 160L694 99L631 87Z" fill="#fafafa" stroke="#fafafa"></path><path d="M631 87L596 0L513 70Z" fill="#ffffff" stroke="#ffffff"></path><path d="M825 130L694 99L685 160Z" fill="#fcfcfc" stroke="#fcfcfc"></path><path d="M518 600L567 513L529 484Z" fill="#fafafa" stroke="#fafafa"></path><path d="M529 484L567 513L562 367Z" fill="#fdfdfd" stroke="#fdfdfd"></path><path d="M567 513L680 434L562 367Z" fill="#f4f4f4" stroke="#f4f4f4"></path><path d="M672 329L772 329L685 160Z" fill="#fcfcfc" stroke="#fcfcfc"></path><path d="M716 0L596 0L631 87Z" fill="#f4f4f4" stroke="#f4f4f4"></path><path d="M210 189L186 308L289 316Z" fill="#ffffff" stroke="#ffffff"></path><path d="M186 308L231 423L289 316Z" fill="#ffffff" stroke="#ffffff"></path><path d="M265 432L288 507L376 510Z" fill="#f1f1f1" stroke="#f1f1f1"></path><path d="M404 0L326 0L409 102Z" fill="#f5f5f5" stroke="#f5f5f5"></path><path d="M182 498L288 507L265 432Z" fill="#f2f2f2" stroke="#f2f2f2"></path><path d="M680 434L772 329L672 329Z" fill="#f9f9f9" stroke="#f9f9f9"></path><path d="M174 0L165 131L299 107Z" fill="#f4f4f4" stroke="#f4f4f4"></path><path d="M210 189L117 235L186 308Z" fill="#fdfdfd" stroke="#fdfdfd"></path><path d="M567 513L708 484L680 434Z" fill="#fafafa" stroke="#fafafa"></path><path d="M680 434L794 360L772 329Z" fill="#ffffff" stroke="#ffffff"></path><path d="M708 484L794 360L680 434Z" fill="#f2f2f2" stroke="#f2f2f2"></path><path d="M772 329L808 206L685 160Z" fill="#fdfdfd" stroke="#fdfdfd"></path><path d="M900 298L808 206L772 329Z" fill="#fdfdfd" stroke="#fdfdfd"></path><path d="M694 99L716 0L631 87Z" fill="#fdfdfd" stroke="#fdfdfd"></path><path d="M406 600L518 600L529 484Z" fill="#f5f5f5" stroke="#f5f5f5"></path><path d="M567 513L605 600L708 484Z" fill="#f1f1f1" stroke="#f1f1f1"></path><path d="M406 600L529 484L376 510Z" fill="#ffffff" stroke="#ffffff"></path><path d="M299 600L406 600L376 510Z" fill="#fafafa" stroke="#fafafa"></path><path d="M165 131L117 235L210 189Z" fill="#f7f7f7" stroke="#f7f7f7"></path><path d="M118 419L182 498L231 423Z" fill="#f9f9f9" stroke="#f9f9f9"></path><path d="M769 0L716 0L694 99Z" fill="#efefef" stroke="#efefef"></path><path d="M174 0L132 122L165 131Z" fill="#ffffff" stroke="#ffffff"></path><path d="M165 131L132 122L117 235Z" fill="#fcfcfc" stroke="#fcfcfc"></path><path d="M518 600L605 600L567 513Z" fill="#f1f1f1" stroke="#f1f1f1"></path><path d="M808 206L825 130L685 160Z" fill="#f7f7f7" stroke="#f7f7f7"></path><path d="M900 164L825 130L808 206Z" fill="#ffffff" stroke="#ffffff"></path><path d="M231 423L182 498L265 432Z" fill="#fdfdfd" stroke="#fdfdfd"></path><path d="M288 507L299 600L376 510Z" fill="#f7f7f7" stroke="#f7f7f7"></path><path d="M118 419L231 423L186 308Z" fill="#efefef" stroke="#efefef"></path><path d="M227 600L299 600L288 507Z" fill="#f7f7f7" stroke="#f7f7f7"></path><path d="M62 275L118 419L186 308Z" fill="#fcfcfc" stroke="#fcfcfc"></path><path d="M326 0L174 0L299 107Z" fill="#fafafa" stroke="#fafafa"></path><path d="M825 130L769 0L694 99Z" fill="#fdfdfd" stroke="#fdfdfd"></path><path d="M117 235L62 275L186 308Z" fill="#f7f7f7" stroke="#f7f7f7"></path><path d="M0 169L62 275L117 235Z" fill="#f2f2f2" stroke="#f2f2f2"></path><path d="M0 169L117 235L132 122Z" fill="#fcfcfc" stroke="#fcfcfc"></path><path d="M87 600L227 600L182 498Z" fill="#fcfcfc" stroke="#fcfcfc"></path><path d="M182 498L227 600L288 507Z" fill="#f7f7f7" stroke="#f7f7f7"></path><path d="M708 484L827 524L794 360Z" fill="#fdfdfd" stroke="#fdfdfd"></path><path d="M605 600L714 600L708 484Z" fill="#f7f7f7" stroke="#f7f7f7"></path><path d="M900 384L900 298L794 360Z" fill="#ffffff" stroke="#ffffff"></path><path d="M794 360L900 298L772 329Z" fill="#f2f2f2" stroke="#f2f2f2"></path><path d="M825 130L900 76L769 0Z" fill="#fafafa" stroke="#fafafa"></path><path d="M900 298L900 164L808 206Z" fill="#fdfdfd" stroke="#fdfdfd"></path><path d="M0 439L94 488L118 419Z" fill="#f2f2f2" stroke="#f2f2f2"></path><path d="M118 419L94 488L182 498Z" fill="#f5f5f5" stroke="#f5f5f5"></path><path d="M174 0L104 0L132 122Z" fill="#ffffff" stroke="#ffffff"></path><path d="M781 600L827 524L708 484Z" fill="#f1f1f1" stroke="#f1f1f1"></path><path d="M827 524L900 384L794 360Z" fill="#f2f2f2" stroke="#f2f2f2"></path><path d="M714 600L781 600L708 484Z" fill="#fdfdfd" stroke="#fdfdfd"></path><path d="M900 164L900 76L825 130Z" fill="#f4f4f4" stroke="#f4f4f4"></path><path d="M0 169L0 330L62 275Z" fill="#efefef" stroke="#efefef"></path><path d="M62 275L0 330L118 419Z" fill="#f5f5f5" stroke="#f5f5f5"></path><path d="M0 72L0 169L132 122Z" fill="#fafafa" stroke="#fafafa"></path><path d="M900 600L900 496L827 524Z" fill="#f7f7f7" stroke="#f7f7f7"></path><path d="M827 524L900 496L900 384Z" fill="#f9f9f9" stroke="#f9f9f9"></path><path d="M900 76L900 0L769 0Z" fill="#f7f7f7" stroke="#f7f7f7"></path><path d="M104 0L0 72L132 122Z" fill="#f1f1f1" stroke="#f1f1f1"></path><path d="M0 330L0 439L118 419Z" fill="#f2f2f2" stroke="#f2f2f2"></path><path d="M94 488L87 600L182 498Z" fill="#f5f5f5" stroke="#f5f5f5"></path><path d="M0 500L87 600L94 488Z" fill="#fcfcfc" stroke="#fcfcfc"></path><path d="M0 439L0 500L94 488Z" fill="#f1f1f1" stroke="#f1f1f1"></path><path d="M104 0L0 0L0 72Z" fill="#fcfcfc" stroke="#fcfcfc"></path><path d="M781 600L900 600L827 524Z" fill="#f1f1f1" stroke="#f1f1f1"></path><path d="M0 500L0 600L87 600Z" fill="#f7f7f7" stroke="#f7f7f7"></path></g></svg>