<svg id="visual" viewBox="0 0 900 600" width="900" height="600" xmlns="http://www.w3.org/2000/svg" xmlns:xlink="http://www.w3.org/1999/xlink" version="1.1"><g stroke-width="1" stroke-linejoin="bevel"><path d="M418 302L437 392L530 327Z" fill="#fbfbfb" stroke="#fbfbfb"></path><path d="M437 392L516 409L530 327Z" fill="#fbfbfb" stroke="#fbfbfb"></path><path d="M516 409L570 403L530 327Z" fill="#fdfdfd" stroke="#fdfdfd"></path><path d="M437 392L487 470L516 409Z" fill="#f0f0f0" stroke="#f0f0f0"></path><path d="M516 409L487 470L570 403Z" fill="#f0f0f0" stroke="#f0f0f0"></path><path d="M597 276L511 207L530 327Z" fill="#f3f3f3" stroke="#f3f3f3"></path><path d="M530 327L511 207L418 302Z" fill="#f3f3f3" stroke="#f3f3f3"></path><path d="M570 403L597 276L530 327Z" fill="#f3f3f3" stroke="#f3f3f3"></path><path d="M300 423L425 490L437 392Z" fill="#f8f8f8" stroke="#f8f8f8"></path><path d="M437 392L425 490L487 470Z" fill="#f6f6f6" stroke="#f6f6f6"></path><path d="M385 162L320 278L418 302Z" fill="#eeeeee" stroke="#eeeeee"></path><path d="M418 302L300 423L437 392Z" fill="#f3f3f3" stroke="#f3f3f3"></path><path d="M320 278L300 423L418 302Z" fill="#f6f6f6" stroke="#f6f6f6"></path><path d="M511 207L385 162L418 302Z" fill="#f0f0f0" stroke="#f0f0f0"></path><path d="M597 276L584 176L511 207Z" fill="#f4f4f4" stroke="#f4f4f4"></path><path d="M511 207L479 112L385 162Z" fill="#fdfdfd" stroke="#fdfdfd"></path><path d="M570 403L681 305L597 276Z" fill="#f1f1f1" stroke="#f1f1f1"></path><path d="M597 276L702 193L584 176Z" fill="#eeeeee" stroke="#eeeeee"></path><path d="M584 176L479 112L511 207Z" fill="#f1f1f1" stroke="#f1f1f1"></path><path d="M487 470L596 526L570 403Z" fill="#fafafa" stroke="#fafafa"></path><path d="M570 403L717 405L681 305Z" fill="#ffffff" stroke="#ffffff"></path><path d="M471 600L596 526L487 470Z" fill="#fafafa" stroke="#fafafa"></path><path d="M479 112L387 114L385 162Z" fill="#fafafa" stroke="#fafafa"></path><path d="M273 173L226 278L320 278Z" fill="#ffffff" stroke="#ffffff"></path><path d="M273 173L320 278L385 162Z" fill="#ffffff" stroke="#ffffff"></path><path d="M320 278L215 378L300 423Z" fill="#eeeeee" stroke="#eeeeee"></path><path d="M300 423L289 519L425 490Z" fill="#fdfdfd" stroke="#fdfdfd"></path><path d="M425 490L471 600L487 470Z" fill="#f0f0f0" stroke="#f0f0f0"></path><path d="M189 487L289 519L300 423Z" fill="#f4f4f4" stroke="#f4f4f4"></path><path d="M387 114L273 173L385 162Z" fill="#eeeeee" stroke="#eeeeee"></path><path d="M226 278L215 378L320 278Z" fill="#fafafa" stroke="#fafafa"></path><path d="M596 526L717 405L570 403Z" fill="#f1f1f1" stroke="#f1f1f1"></path><path d="M412 600L471 600L425 490Z" fill="#fdfdfd" stroke="#fdfdfd"></path><path d="M332 600L412 600L425 490Z" fill="#f8f8f8" stroke="#f8f8f8"></path><path d="M681 305L702 193L597 276Z" fill="#f0f0f0" stroke="#f0f0f0"></path><path d="M584 176L637 79L479 112Z" fill="#f1f1f1" stroke="#f1f1f1"></path><path d="M784 281L702 193L681 305Z" fill="#ffffff" stroke="#ffffff"></path><path d="M471 600L588 600L596 526Z" fill="#ffffff" stroke="#ffffff"></path><path d="M596 526L703 517L717 405Z" fill="#fdfdfd" stroke="#fdfdfd"></path><path d="M698 600L703 517L596 526Z" fill="#f1f1f1" stroke="#f1f1f1"></path><path d="M289 519L332 600L425 490Z" fill="#f0f0f0" stroke="#f0f0f0"></path><path d="M700 113L637 79L584 176Z" fill="#f3f3f3" stroke="#f3f3f3"></path><path d="M479 112L394 0L387 114Z" fill="#f4f4f4" stroke="#f4f4f4"></path><path d="M790 505L777 406L717 405Z" fill="#fdfdfd" stroke="#fdfdfd"></path><path d="M717 405L784 281L681 305Z" fill="#f6f6f6" stroke="#f6f6f6"></path><path d="M82 417L189 487L215 378Z" fill="#f3f3f3" stroke="#f3f3f3"></path><path d="M215 378L189 487L300 423Z" fill="#fdfdfd" stroke="#fdfdfd"></path><path d="M289 519L214 600L332 600Z" fill="#f3f3f3" stroke="#f3f3f3"></path><path d="M777 406L784 281L717 405Z" fill="#f6f6f6" stroke="#f6f6f6"></path><path d="M702 193L700 113L584 176Z" fill="#fdfdfd" stroke="#fdfdfd"></path><path d="M784 218L700 113L702 193Z" fill="#f4f4f4" stroke="#f4f4f4"></path><path d="M784 281L784 218L702 193Z" fill="#f3f3f3" stroke="#f3f3f3"></path><path d="M637 79L472 0L479 112Z" fill="#f8f8f8" stroke="#f8f8f8"></path><path d="M387 114L273 62L273 173Z" fill="#eeeeee" stroke="#eeeeee"></path><path d="M301 0L273 62L387 114Z" fill="#f1f1f1" stroke="#f1f1f1"></path><path d="M273 173L163 191L226 278Z" fill="#fafafa" stroke="#fafafa"></path><path d="M179 123L163 191L273 173Z" fill="#f8f8f8" stroke="#f8f8f8"></path><path d="M226 278L82 309L215 378Z" fill="#f4f4f4" stroke="#f4f4f4"></path><path d="M472 0L394 0L479 112Z" fill="#f3f3f3" stroke="#f3f3f3"></path><path d="M588 600L698 600L596 526Z" fill="#f1f1f1" stroke="#f1f1f1"></path><path d="M703 517L790 505L717 405Z" fill="#f4f4f4" stroke="#f4f4f4"></path><path d="M273 62L179 123L273 173Z" fill="#fbfbfb" stroke="#fbfbfb"></path><path d="M763 600L790 505L703 517Z" fill="#ffffff" stroke="#ffffff"></path><path d="M777 406L900 300L784 281Z" fill="#f6f6f6" stroke="#f6f6f6"></path><path d="M900 202L794 71L784 218Z" fill="#f3f3f3" stroke="#f3f3f3"></path><path d="M189 487L214 600L289 519Z" fill="#fafafa" stroke="#fafafa"></path><path d="M637 79L628 0L472 0Z" fill="#f4f4f4" stroke="#f4f4f4"></path><path d="M720 0L628 0L637 79Z" fill="#fdfdfd" stroke="#fdfdfd"></path><path d="M720 0L637 79L700 113Z" fill="#f6f6f6" stroke="#f6f6f6"></path><path d="M394 0L301 0L387 114Z" fill="#fbfbfb" stroke="#fbfbfb"></path><path d="M273 62L224 0L179 123Z" fill="#f8f8f8" stroke="#f8f8f8"></path><path d="M95 91L103 212L163 191Z" fill="#fdfdfd" stroke="#fdfdfd"></path><path d="M163 191L103 212L226 278Z" fill="#ffffff" stroke="#ffffff"></path><path d="M189 487L121 526L214 600Z" fill="#f4f4f4" stroke="#f4f4f4"></path><path d="M103 212L82 309L226 278Z" fill="#fbfbfb" stroke="#fbfbfb"></path><path d="M698 600L763 600L703 517Z" fill="#f8f8f8" stroke="#f8f8f8"></path><path d="M82 309L82 417L215 378Z" fill="#f3f3f3" stroke="#f3f3f3"></path><path d="M82 417L121 526L189 487Z" fill="#ffffff" stroke="#ffffff"></path><path d="M301 0L224 0L273 62Z" fill="#f0f0f0" stroke="#f0f0f0"></path><path d="M179 123L95 91L163 191Z" fill="#ffffff" stroke="#ffffff"></path><path d="M900 202L784 218L784 281Z" fill="#fbfbfb" stroke="#fbfbfb"></path><path d="M784 218L794 71L700 113Z" fill="#f6f6f6" stroke="#f6f6f6"></path><path d="M794 71L720 0L700 113Z" fill="#f8f8f8" stroke="#f8f8f8"></path><path d="M900 415L777 406L900 480Z" fill="#fbfbfb" stroke="#fbfbfb"></path><path d="M900 415L900 300L777 406Z" fill="#fafafa" stroke="#fafafa"></path><path d="M900 480L777 406L790 505Z" fill="#ffffff" stroke="#ffffff"></path><path d="M0 262L0 412L82 309Z" fill="#f1f1f1" stroke="#f1f1f1"></path><path d="M224 0L95 91L179 123Z" fill="#f0f0f0" stroke="#f0f0f0"></path><path d="M900 300L900 202L784 281Z" fill="#f0f0f0" stroke="#f0f0f0"></path><path d="M900 600L900 480L790 505Z" fill="#fdfdfd" stroke="#fdfdfd"></path><path d="M0 504L97 600L121 526Z" fill="#f0f0f0" stroke="#f0f0f0"></path><path d="M121 526L97 600L214 600Z" fill="#fafafa" stroke="#fafafa"></path><path d="M82 309L0 412L82 417Z" fill="#f0f0f0" stroke="#f0f0f0"></path><path d="M82 417L0 504L121 526Z" fill="#f6f6f6" stroke="#f6f6f6"></path><path d="M0 262L82 309L103 212Z" fill="#eeeeee" stroke="#eeeeee"></path><path d="M0 230L0 262L103 212Z" fill="#f0f0f0" stroke="#f0f0f0"></path><path d="M0 103L0 230L103 212Z" fill="#f4f4f4" stroke="#f4f4f4"></path><path d="M900 90L829 0L794 71Z" fill="#fafafa" stroke="#fafafa"></path><path d="M794 71L829 0L720 0Z" fill="#f1f1f1" stroke="#f1f1f1"></path><path d="M0 412L0 504L82 417Z" fill="#f3f3f3" stroke="#f3f3f3"></path><path d="M900 202L900 90L794 71Z" fill="#f0f0f0" stroke="#f0f0f0"></path><path d="M763 600L900 600L790 505Z" fill="#f1f1f1" stroke="#f1f1f1"></path><path d="M224 0L72 0L95 91Z" fill="#f6f6f6" stroke="#f6f6f6"></path><path d="M95 91L0 103L103 212Z" fill="#fdfdfd" stroke="#fdfdfd"></path><path d="M72 0L0 103L95 91Z" fill="#eeeeee" stroke="#eeeeee"></path><path d="M0 504L0 600L97 600Z" fill="#f0f0f0" stroke="#f0f0f0"></path><path d="M900 90L900 0L829 0Z" fill="#f6f6f6" stroke="#f6f6f6"></path><path d="M72 0L0 0L0 103Z" fill="#f1f1f1" stroke="#f1f1f1"></path></g></svg>