<?xml version="1.0" standalone="no"?><svg xmlns:xlink="http://www.w3.org/1999/xlink" xmlns="http://www.w3.org/2000/svg" viewBox="0 0 500 660.7269687731012" preserveAspectRatio="xMaxYMax slice"><g transform="scale(1.2079103633877537)"><rect x="0" y="0" width="413.94594594594594" height="547" fill="#ffffff"/><circle cx="7.390000000000001" cy="7.390000000000001" r="1.48" fill="#f8efcc"/><circle cx="22.18" cy="7.390000000000001" r="1.48" fill="#9babf2"/><circle cx="36.959999999999994" cy="7.390000000000001" r="1.48" fill="#ff658a"/><circle cx="51.739999999999995" cy="7.390000000000001" r="1.48" fill="#fffdfe"/><circle cx="66.53" cy="7.390000000000001" r="1.48" fill="#899df0"/><circle cx="81.31" cy="7.390000000000001" r="1.48" fill="#ff4471"/><circle cx="96.10000000000001" cy="7.390000000000001" r="1.48" fill="#e5c64a"/><circle cx="110.88000000000001" cy="7.390000000000001" r="1.48" fill="#e6c953"/><circle cx="125.66000000000001" cy="7.390000000000001" r="1.48" fill="#ff6f92"/><circle cx="140.45" cy="7.390000000000001" r="1.48" fill="#ff9fb6"/><circle cx="155.23" cy="7.390000000000001" r="1.48" fill="#ffc8d5"/><circle cx="170.01999999999998" cy="7.390000000000001" r="1.48" fill="#b9c5f6"/><circle cx="184.79999999999998" cy="7.390000000000001" r="1.48" fill="#f7edc7"/><circle cx="199.57999999999998" cy="7.390000000000001" r="1.48" fill="#edd984"/><circle cx="214.36999999999998" cy="7.390000000000001" r="1.48" fill="#ff4672"/><circle cx="229.14999999999998" cy="7.390000000000001" r="1.48" fill="#fff7f9"/><circle cx="243.92999999999998" cy="7.390000000000001" r="1.48" fill="#ff83a1"/><circle cx="258.72" cy="7.390000000000001" r="1.48" fill="#ff7c9b"/><circle cx="273.5" cy="7.390000000000001" r="1.48" fill="#ebd373"/><circle cx="288.29" cy="7.390000000000001" r="1.48" fill="#fff3f6"/><circle cx="303.07" cy="7.390000000000001" r="1.48" fill="#ffa7bc"/><circle cx="317.85" cy="7.390000000000001" r="1.48" fill="#b9c4f6"/><circle cx="332.64000000000004" cy="7.390000000000001" r="1.48" fill="#e9ce64"/><circle cx="347.42" cy="7.390000000000001" r="1.48" fill="#ffcbd8"/><circle cx="362.20000000000005" cy="7.390000000000001" r="1.48" fill="#e8ecfc"/><circle cx="376.99" cy="7.390000000000001" r="1.48" fill="#3053e4"/><circle cx="391.77000000000004" cy="7.390000000000001" r="1.48" fill="#ead16c"/><circle cx="406.56" cy="7.390000000000001" r="1.48" fill="#efdc8e"/><circle cx="7.390000000000001" cy="22.18" r="1.48" fill="#4c6ae8"/><circle cx="22.18" cy="22.18" r="1.48" fill="#516fe8"/><circle cx="36.959999999999994" cy="22.18" r="1.48" fill="#e5eafc"/><circle cx="51.739999999999995" cy="22.18" r="1.48" fill="#99aaf2"/><circle cx="66.53" cy="22.18" r="1.48" fill="#e8ce61"/><circle cx="81.31" cy="22.18" r="1.48" fill="#95a7f1"/><circle cx="96.10000000000001" cy="22.18" r="1.48" fill="#d4dbf9"/><circle cx="110.88000000000001" cy="22.18" r="1.48" fill="#98aaf2"/><circle cx="125.66000000000001" cy="22.18" r="1.48" fill="#ff547c"/><circle cx="140.45" cy="22.18" r="1.48" fill="#f8f0cf"/><circle cx="155.23" cy="22.18" r="1.48" fill="#ff6a8d"/><circle cx="170.01999999999998" cy="22.18" r="1.48" fill="#ced6f9"/><circle cx="184.79999999999998" cy="22.18" r="1.48" fill="#fffcfd"/><circle cx="199.57999999999998" cy="22.18" r="1.48" fill="#ff3f6c"/><circle cx="214.36999999999998" cy="22.18" r="1.48" fill="#ffc3d1"/><circle cx="229.14999999999998" cy="22.18" r="1.48" fill="#faf3d9"/><circle cx="243.92999999999998" cy="22.18" r="1.48" fill="#5774e9"/><circle cx="258.72" cy="22.18" r="1.48" fill="#e4c340"/><circle cx="273.5" cy="22.18" r="1.48" fill="#ff6c8f"/><circle cx="288.29" cy="22.18" r="1.48" fill="#8196ef"/><circle cx="303.07" cy="22.18" r="1.48" fill="#fcf9eb"/><circle cx="317.85" cy="22.18" r="1.48" fill="#3154e4"/><circle cx="332.64000000000004" cy="22.18" r="1.48" fill="#f2e2a2"/><circle cx="347.42" cy="22.18" r="1.48" fill="#4d6be8"/><circle cx="362.20000000000005" cy="22.18" r="1.48" fill="#ffdbe3"/><circle cx="376.99" cy="22.18" r="1.48" fill="#889cf0"/><circle cx="391.77000000000004" cy="22.18" r="1.48" fill="#a3b2f3"/><circle cx="406.56" cy="22.18" r="1.48" fill="#e5c74b"/><circle cx="7.390000000000001" cy="36.959999999999994" r="1.48" fill="#ffc0cf"/><circle cx="22.18" cy="36.959999999999994" r="1.48" fill="#ffceda"/><circle cx="36.959999999999994" cy="36.959999999999994" r="1.48" fill="#ffd3dd"/><circle cx="51.739999999999995" cy="36.959999999999994" r="1.48" fill="#ffe0e8"/><circle cx="66.53" cy="36.959999999999994" r="1.48" fill="#6781eb"/><circle cx="81.31" cy="36.959999999999994" r="1.48" fill="#7f95ee"/><circle cx="96.10000000000001" cy="36.959999999999994" r="1.48" fill="#ffeef2"/><circle cx="110.88000000000001" cy="36.959999999999994" r="1.48" fill="#8ea1f0"/><circle cx="125.66000000000001" cy="36.959999999999994" r="1.48" fill="#ff94ad"/><circle cx="140.45" cy="36.959999999999994" r="1.48" fill="#264ae3"/><circle cx="155.23" cy="36.959999999999994" r="1.48" fill="#f0dd94"/><circle cx="170.01999999999998" cy="36.959999999999994" r="1.48" fill="#8b9ef0"/><circle cx="184.79999999999998" cy="36.959999999999994" r="1.48" fill="#fff7f9"/><circle cx="199.57999999999998" cy="36.959999999999994" r="1.48" fill="#ff93ad"/><circle cx="214.36999999999998" cy="36.959999999999994" r="1.48" fill="#f0de97"/><circle cx="229.14999999999998" cy="36.959999999999994" r="1.48" fill="#859aef"/><circle cx="243.92999999999998" cy="36.959999999999994" r="1.48" fill="#e3c23c"/><circle cx="258.72" cy="36.959999999999994" r="1.48" fill="#2449e3"/><circle cx="273.5" cy="36.959999999999994" r="1.48" fill="#efdd93"/><circle cx="288.29" cy="36.959999999999994" r="1.48" fill="#fffbfc"/><circle cx="303.07" cy="36.959999999999994" r="1.48" fill="#ff7898"/><circle cx="317.85" cy="36.959999999999994" r="1.48" fill="#bdc8f6"/><circle cx="332.64000000000004" cy="36.959999999999994" r="1.48" fill="#e3c139"/><circle cx="347.42" cy="36.959999999999994" r="1.48" fill="#f0f3fd"/><circle cx="362.20000000000005" cy="36.959999999999994" r="1.48" fill="#c7d0f8"/><circle cx="376.99" cy="36.959999999999994" r="1.48" fill="#f7eec7"/><circle cx="391.77000000000004" cy="36.959999999999994" r="1.48" fill="#e1bd2d"/><circle cx="406.56" cy="36.959999999999994" r="1.48" fill="#faf5df"/><circle cx="7.390000000000001" cy="51.739999999999995" r="1.48" fill="#ffd0dc"/><circle cx="22.18" cy="51.739999999999995" r="1.48" fill="#f3e4a8"/><circle cx="36.959999999999994" cy="51.739999999999995" r="1.48" fill="#ffe0e8"/><circle cx="51.739999999999995" cy="51.739999999999995" r="1.48" fill="#e8cc5c"/><circle cx="66.53" cy="51.739999999999995" r="1.48" fill="#faf5e0"/><circle cx="81.31" cy="51.739999999999995" r="1.48" fill="#e0e6fb"/><circle cx="96.10000000000001" cy="51.739999999999995" r="1.48" fill="#fdfaef"/><circle cx="110.88000000000001" cy="51.739999999999995" r="1.48" fill="#ff3766"/><circle cx="125.66000000000001" cy="51.739999999999995" r="1.48" fill="#eeda89"/><circle cx="140.45" cy="51.739999999999995" r="1.48" fill="#c3cdf7"/><circle cx="155.23" cy="51.739999999999995" r="1.48" fill="#f1e1a0"/><circle cx="170.01999999999998" cy="51.739999999999995" r="1.48" fill="#fffbfc"/><circle cx="184.79999999999998" cy="51.739999999999995" r="1.48" fill="#2f52e4"/><circle cx="199.57999999999998" cy="51.739999999999995" r="1.48" fill="#4e6ce8"/><circle cx="214.36999999999998" cy="51.739999999999995" r="1.48" fill="#294de3"/><circle cx="229.14999999999998" cy="51.739999999999995" r="1.48" fill="#ff3e6c"/><circle cx="243.92999999999998" cy="51.739999999999995" r="1.48" fill="#ffa9bd"/><circle cx="258.72" cy="51.739999999999995" r="1.48" fill="#fbf7e4"/><circle cx="273.5" cy="51.739999999999995" r="1.48" fill="#ff3867"/><circle cx="288.29" cy="51.739999999999995" r="1.48" fill="#ffecf0"/><circle cx="303.07" cy="51.739999999999995" r="1.48" fill="#ffebf0"/><circle cx="317.85" cy="51.739999999999995" r="1.48" fill="#e9d069"/><circle cx="332.64000000000004" cy="51.739999999999995" r="1.48" fill="#ffdee6"/><circle cx="347.42" cy="51.739999999999995" r="1.48" fill="#90a3f1"/><circle cx="362.20000000000005" cy="51.739999999999995" r="1.48" fill="#fffcfc"/><circle cx="376.99" cy="51.739999999999995" r="1.48" fill="#e7cb5a"/><circle cx="391.77000000000004" cy="51.739999999999995" r="1.48" fill="#e3c33f"/><circle cx="406.56" cy="51.739999999999995" r="1.48" fill="#ebd270"/><circle cx="7.390000000000001" cy="66.53" r="1.48" fill="#e4c340"/><circle cx="22.18" cy="66.53" r="1.48" fill="#4262e6"/><circle cx="36.959999999999994" cy="66.53" r="1.48" fill="#92a4f1"/><circle cx="51.739999999999995" cy="66.53" r="1.48" fill="#ff6a8d"/><circle cx="66.53" cy="66.53" r="1.48" fill="#ffffff"/><circle cx="81.31" cy="66.53" r="1.48" fill="#8fa2f0"/><circle cx="96.10000000000001" cy="66.53" r="1.48" fill="#e7cb5a"/><circle cx="110.88000000000001" cy="66.53" r="1.48" fill="#ff527b"/><circle cx="125.66000000000001" cy="66.53" r="1.48" fill="#abb9f4"/><circle cx="140.45" cy="66.53" r="1.48" fill="#e0bb26"/><circle cx="155.23" cy="66.53" r="1.48" fill="#ff507a"/><circle cx="170.01999999999998" cy="66.53" r="1.48" fill="#ebd373"/><circle cx="184.79999999999998" cy="66.53" r="1.48" fill="#ffc8d5"/><circle cx="199.57999999999998" cy="66.53" r="1.48" fill="#f6ecc4"/><circle cx="214.36999999999998" cy="66.53" r="1.48" fill="#f5e9ba"/><circle cx="229.14999999999998" cy="66.53" r="1.48" fill="#ff6187"/><circle cx="243.92999999999998" cy="66.53" r="1.48" fill="#a5b5f3"/><circle cx="258.72" cy="66.53" r="1.48" fill="#e8cc5c"/><circle cx="273.5" cy="66.53" r="1.48" fill="#ff3666"/><circle cx="288.29" cy="66.53" r="1.48" fill="#eef1fd"/><circle cx="303.07" cy="66.53" r="1.48" fill="#efdd92"/><circle cx="317.85" cy="66.53" r="1.48" fill="#b8c4f6"/><circle cx="332.64000000000004" cy="66.53" r="1.48" fill="#e9edfc"/><circle cx="347.42" cy="66.53" r="1.48" fill="#e1bd2b"/><circle cx="362.20000000000005" cy="66.53" r="1.48" fill="#e0bb26"/><circle cx="376.99" cy="66.53" r="1.48" fill="#e3c13a"/><circle cx="391.77000000000004" cy="66.53" r="1.48" fill="#ffc8d5"/><circle cx="406.56" cy="66.53" r="1.48" fill="#ffe2e9"/><circle cx="7.390000000000001" cy="81.31" r="1.48" fill="#fffdfe"/><circle cx="22.18" cy="81.31" r="1.48" fill="#ff83a0"/><circle cx="36.959999999999994" cy="81.31" r="1.48" fill="#ffbdcd"/><circle cx="51.739999999999995" cy="81.31" r="1.48" fill="#e1bc2b"/><circle cx="66.53" cy="81.31" r="1.48" fill="#9bacf2"/><circle cx="81.31" cy="81.31" r="1.48" fill="#fffefc"/><circle cx="96.10000000000001" cy="81.31" r="1.48" fill="#f9f2d6"/><circle cx="110.88000000000001" cy="81.31" r="1.48" fill="#ffc4d2"/><circle cx="125.66000000000001" cy="81.31" r="1.48" fill="#ebd475"/><circle cx="140.45" cy="81.31" r="1.48" fill="#ecd477"/><circle cx="155.23" cy="81.31" r="1.48" fill="#ff95ae"/><circle cx="170.01999999999998" cy="81.31" r="1.48" fill="#f8f0cf"/><circle cx="184.79999999999998" cy="81.31" r="1.48" fill="#ffd8e1"/><circle cx="199.57999999999998" cy="81.31" r="1.48" fill="#4968e7"/><circle cx="214.36999999999998" cy="81.31" r="1.48" fill="#5a76ea"/><circle cx="229.14999999999998" cy="81.31" r="1.48" fill="#eed987"/><circle cx="243.92999999999998" cy="81.31" r="1.48" fill="#f5eabd"/><circle cx="258.72" cy="81.31" r="1.48" fill="#ff7798"/><circle cx="273.5" cy="81.31" r="1.48" fill="#fbf6e1"/><circle cx="288.29" cy="81.31" r="1.48" fill="#e5c74b"/><circle cx="303.07" cy="81.31" r="1.48" fill="#f3e4aa"/><circle cx="317.85" cy="81.31" r="1.48" fill="#faf5df"/><circle cx="332.64000000000004" cy="81.31" r="1.48" fill="#aebcf4"/><circle cx="347.42" cy="81.31" r="1.48" fill="#ffb5c7"/><circle cx="362.20000000000005" cy="81.31" r="1.48" fill="#f5eabc"/><circle cx="376.99" cy="81.31" r="1.48" fill="#3759e5"/><circle cx="391.77000000000004" cy="81.31" r="1.48" fill="#fdfbf3"/><circle cx="406.56" cy="81.31" r="1.48" fill="#5572e9"/><circle cx="7.390000000000001" cy="96.10000000000001" r="1.48" fill="#ffd6df"/><circle cx="22.18" cy="96.10000000000001" r="1.48" fill="#aab9f4"/><circle cx="36.959999999999994" cy="96.10000000000001" r="1.48" fill="#eed987"/><circle cx="51.739999999999995" cy="96.10000000000001" r="1.48" fill="#ff7495"/><circle cx="66.53" cy="96.10000000000001" r="1.48" fill="#fbf6e3"/><circle cx="81.31" cy="96.10000000000001" r="1.48" fill="#ff9eb5"/><circle cx="96.10000000000001" cy="96.10000000000001" r="1.48" fill="#a3b3f3"/><circle cx="110.88000000000001" cy="96.10000000000001" r="1.48" fill="#e8cc5c"/><circle cx="125.66000000000001" cy="96.10000000000001" r="1.48" fill="#ff7b9a"/><circle cx="140.45" cy="96.10000000000001" r="1.48" fill="#cbd4f8"/><circle cx="155.23" cy="96.10000000000001" r="1.48" fill="#ffecf1"/><circle cx="170.01999999999998" cy="96.10000000000001" r="1.48" fill="#ff6c8f"/><circle cx="184.79999999999998" cy="96.10000000000001" r="1.48" fill="#ff7999"/><circle cx="199.57999999999998" cy="96.10000000000001" r="1.48" fill="#ff3665"/><circle cx="214.36999999999998" cy="96.10000000000001" r="1.48" fill="#f9f1d3"/><circle cx="229.14999999999998" cy="96.10000000000001" r="1.48" fill="#c1cbf7"/><circle cx="243.92999999999998" cy="96.10000000000001" r="1.48" fill="#ffcad7"/><circle cx="258.72" cy="96.10000000000001" r="1.48" fill="#eceffc"/><circle cx="273.5" cy="96.10000000000001" r="1.48" fill="#1e44e2"/><circle cx="288.29" cy="96.10000000000001" r="1.48" fill="#fefeff"/><circle cx="303.07" cy="96.10000000000001" r="1.48" fill="#edd882"/><circle cx="317.85" cy="96.10000000000001" r="1.48" fill="#ecf0fd"/><circle cx="332.64000000000004" cy="96.10000000000001" r="1.48" fill="#ffebf0"/><circle cx="347.42" cy="96.10000000000001" r="1.48" fill="#ff8ca7"/><circle cx="362.20000000000005" cy="96.10000000000001" r="1.48" fill="#f6ecc4"/><circle cx="376.99" cy="96.10000000000001" r="1.48" fill="#ff7d9c"/><circle cx="391.77000000000004" cy="96.10000000000001" r="1.48" fill="#ffb1c4"/><circle cx="406.56" cy="96.10000000000001" r="1.48" fill="#fff5f8"/><circle cx="7.390000000000001" cy="110.88000000000001" r="1.48" fill="#e6c74e"/><circle cx="22.18" cy="110.88000000000001" r="1.48" fill="#ced7f9"/><circle cx="36.959999999999994" cy="110.88000000000001" r="1.48" fill="#e2c035"/><circle cx="51.739999999999995" cy="110.88000000000001" r="1.48" fill="#ffa7bc"/><circle cx="66.53" cy="110.88000000000001" r="1.48" fill="#ead16d"/><circle cx="81.31" cy="110.88000000000001" r="1.48" fill="#f8efcd"/><circle cx="96.10000000000001" cy="110.88000000000001" r="1.48" fill="#ffcfda"/><circle cx="110.88000000000001" cy="110.88000000000001" r="1.48" fill="#3759e5"/><circle cx="125.66000000000001" cy="110.88000000000001" r="1.48" fill="#92a5f1"/><circle cx="140.45" cy="110.88000000000001" r="1.48" fill="#5d78ea"/><circle cx="155.23" cy="110.88000000000001" r="1.48" fill="#ff527b"/><circle cx="170.01999999999998" cy="110.88000000000001" r="1.48" fill="#7189ed"/><circle cx="184.79999999999998" cy="110.88000000000001" r="1.48" fill="#aab9f4"/><circle cx="199.57999999999998" cy="110.88000000000001" r="1.48" fill="#ff7092"/><circle cx="214.36999999999998" cy="110.88000000000001" r="1.48" fill="#ff819f"/><circle cx="229.14999999999998" cy="110.88000000000001" r="1.48" fill="#ff4d78"/><circle cx="243.92999999999998" cy="110.88000000000001" r="1.48" fill="#99aaf2"/><circle cx="258.72" cy="110.88000000000001" r="1.48" fill="#ffdee6"/><circle cx="273.5" cy="110.88000000000001" r="1.48" fill="#d2daf9"/><circle cx="288.29" cy="110.88000000000001" r="1.48" fill="#e7ca55"/><circle cx="303.07" cy="110.88000000000001" r="1.48" fill="#d7defa"/><circle cx="317.85" cy="110.88000000000001" r="1.48" fill="#dee4fb"/><circle cx="332.64000000000004" cy="110.88000000000001" r="1.48" fill="#fff0f3"/><circle cx="347.42" cy="110.88000000000001" r="1.48" fill="#ff5880"/><circle cx="362.20000000000005" cy="110.88000000000001" r="1.48" fill="#1940e1"/><circle cx="376.99" cy="110.88000000000001" r="1.48" fill="#ff436f"/><circle cx="391.77000000000004" cy="110.88000000000001" r="1.48" fill="#d1d8f9"/><circle cx="406.56" cy="110.88000000000001" r="1.48" fill="#dbe1fa"/><circle cx="7.390000000000001" cy="125.66000000000001" r="1.48" fill="#1d43e2"/><circle cx="22.18" cy="125.66000000000001" r="1.48" fill="#e2bf33"/><circle cx="36.959999999999994" cy="125.66000000000001" r="1.48" fill="#ffc1d0"/><circle cx="51.739999999999995" cy="125.66000000000001" r="1.48" fill="#ff4d77"/><circle cx="66.53" cy="125.66000000000001" r="1.48" fill="#ff5b82"/><circle cx="81.31" cy="125.66000000000001" r="1.48" fill="#fff3f6"/><circle cx="96.10000000000001" cy="125.66000000000001" r="1.48" fill="#7990ee"/><circle cx="110.88000000000001" cy="125.66000000000001" r="1.48" fill="#a1b1f3"/><circle cx="125.66000000000001" cy="125.66000000000001" r="1.48" fill="#ff5c83"/><circle cx="140.45" cy="125.66000000000001" r="1.48" fill="#e3e7fb"/><circle cx="155.23" cy="125.66000000000001" r="1.48" fill="#fffefd"/><circle cx="170.01999999999998" cy="125.66000000000001" r="1.48" fill="#f9f2d4"/><circle cx="184.79999999999998" cy="125.66000000000001" r="1.48" fill="#bec9f7"/><circle cx="199.57999999999998" cy="125.66000000000001" r="1.48" fill="#ff7697"/><circle cx="214.36999999999998" cy="125.66000000000001" r="1.48" fill="#ffdfe7"/><circle cx="229.14999999999998" cy="125.66000000000001" r="1.48" fill="#ff7999"/><circle cx="243.92999999999998" cy="125.66000000000001" r="1.48" fill="#647eeb"/><circle cx="258.72" cy="125.66000000000001" r="1.48" fill="#a5b4f3"/><circle cx="273.5" cy="125.66000000000001" r="1.48" fill="#ffbaca"/><circle cx="288.29" cy="125.66000000000001" r="1.48" fill="#ff7192"/><circle cx="303.07" cy="125.66000000000001" r="1.48" fill="#ffc3d1"/><circle cx="317.85" cy="125.66000000000001" r="1.48" fill="#eed987"/><circle cx="332.64000000000004" cy="125.66000000000001" r="1.48" fill="#ffc2d1"/><circle cx="347.42" cy="125.66000000000001" r="1.48" fill="#e2bf32"/><circle cx="362.20000000000005" cy="125.66000000000001" r="1.48" fill="#d7defa"/><circle cx="376.99" cy="125.66000000000001" r="1.48" fill="#b5c2f5"/><circle cx="391.77000000000004" cy="125.66000000000001" r="1.48" fill="#ff7898"/><circle cx="406.56" cy="125.66000000000001" r="1.48" fill="#e4c443"/><circle cx="7.390000000000001" cy="140.45" r="1.48" fill="#98a9f2"/><circle cx="22.18" cy="140.45" r="1.48" fill="#f3e4aa"/><circle cx="36.959999999999994" cy="140.45" r="1.48" fill="#3b5ce5"/><circle cx="51.739999999999995" cy="140.45" r="1.48" fill="#ff7c9b"/><circle cx="66.53" cy="140.45" r="1.48" fill="#90a3f1"/><circle cx="81.31" cy="140.45" r="1.48" fill="#efdd92"/><circle cx="96.10000000000001" cy="140.45" r="1.48" fill="#ff4773"/><circle cx="110.88000000000001" cy="140.45" r="1.48" fill="#ff9fb6"/><circle cx="125.66000000000001" cy="140.45" r="1.48" fill="#ff698d"/><circle cx="140.45" cy="140.45" r="1.48" fill="#e4c442"/><circle cx="155.23" cy="140.45" r="1.48" fill="#ffc2d0"/><circle cx="170.01999999999998" cy="140.45" r="1.48" fill="#fffafb"/><circle cx="184.79999999999998" cy="140.45" r="1.48" fill="#fefcf6"/><circle cx="199.57999999999998" cy="140.45" r="1.48" fill="#ff7999"/><circle cx="214.36999999999998" cy="140.45" r="1.48" fill="#f3e6ae"/><circle cx="229.14999999999998" cy="140.45" r="1.48" fill="#ff8da8"/><circle cx="243.92999999999998" cy="140.45" r="1.48" fill="#e7ebfc"/><circle cx="258.72" cy="140.45" r="1.48" fill="#fff2f5"/><circle cx="273.5" cy="140.45" r="1.48" fill="#91a4f1"/><circle cx="288.29" cy="140.45" r="1.48" fill="#fdfbf3"/><circle cx="303.07" cy="140.45" r="1.48" fill="#fff0f4"/><circle cx="317.85" cy="140.45" r="1.48" fill="#a2b1f3"/><circle cx="332.64000000000004" cy="140.45" r="1.48" fill="#ff7092"/><circle cx="347.42" cy="140.45" r="1.48" fill="#6982ec"/><circle cx="362.20000000000005" cy="140.45" r="1.48" fill="#e3c139"/><circle cx="376.99" cy="140.45" r="1.48" fill="#e2c037"/><circle cx="391.77000000000004" cy="140.45" r="1.48" fill="#f8f0d0"/><circle cx="406.56" cy="140.45" r="1.48" fill="#1a41e1"/><circle cx="7.390000000000001" cy="155.23" r="1.48" fill="#aebcf5"/><circle cx="22.18" cy="155.23" r="1.48" fill="#4b69e8"/><circle cx="36.959999999999994" cy="155.23" r="1.48" fill="#fafbfe"/><circle cx="51.739999999999995" cy="155.23" r="1.48" fill="#ffeef2"/><circle cx="66.53" cy="155.23" r="1.48" fill="#8fa2f0"/><circle cx="81.31" cy="155.23" r="1.48" fill="#ff4c77"/><circle cx="96.10000000000001" cy="155.23" r="1.48" fill="#ff90aa"/><circle cx="110.88000000000001" cy="155.23" r="1.48" fill="#e7cb5a"/><circle cx="125.66000000000001" cy="155.23" r="1.48" fill="#b3c0f5"/><circle cx="140.45" cy="155.23" r="1.48" fill="#ffa4ba"/><circle cx="155.23" cy="155.23" r="1.48" fill="#edd882"/><circle cx="170.01999999999998" cy="155.23" r="1.48" fill="#ff7193"/><circle cx="184.79999999999998" cy="155.23" r="1.48" fill="#ff4a75"/><circle cx="199.57999999999998" cy="155.23" r="1.48" fill="#ff5880"/><circle cx="214.36999999999998" cy="155.23" r="1.48" fill="#c5cff7"/><circle cx="229.14999999999998" cy="155.23" r="1.48" fill="#f1f4fd"/><circle cx="243.92999999999998" cy="155.23" r="1.48" fill="#f8efcd"/><circle cx="258.72" cy="155.23" r="1.48" fill="#c9d2f8"/><circle cx="273.5" cy="155.23" r="1.48" fill="#f1e09c"/><circle cx="288.29" cy="155.23" r="1.48" fill="#ffa6bb"/><circle cx="303.07" cy="155.23" r="1.48" fill="#ff9ab2"/><circle cx="317.85" cy="155.23" r="1.48" fill="#f5f7fe"/><circle cx="332.64000000000004" cy="155.23" r="1.48" fill="#5370e9"/><circle cx="347.42" cy="155.23" r="1.48" fill="#f1e19f"/><circle cx="362.20000000000005" cy="155.23" r="1.48" fill="#3758e5"/><circle cx="376.99" cy="155.23" r="1.48" fill="#ff7495"/><circle cx="391.77000000000004" cy="155.23" r="1.48" fill="#ffd2dd"/><circle cx="406.56" cy="155.23" r="1.48" fill="#fefdf8"/><circle cx="7.390000000000001" cy="170.01999999999998" r="1.48" fill="#5f7aea"/><circle cx="22.18" cy="170.01999999999998" r="1.48" fill="#778eed"/><circle cx="36.959999999999994" cy="170.01999999999998" r="1.48" fill="#95a7f1"/><circle cx="51.739999999999995" cy="170.01999999999998" r="1.48" fill="#748ced"/><circle cx="66.53" cy="170.01999999999998" r="1.48" fill="#647eeb"/><circle cx="81.31" cy="170.01999999999998" r="1.48" fill="#f9f3d8"/><circle cx="96.10000000000001" cy="170.01999999999998" r="1.48" fill="#ff416e"/><circle cx="110.88000000000001" cy="170.01999999999998" r="1.48" fill="#eed986"/><circle cx="125.66000000000001" cy="170.01999999999998" r="1.48" fill="#cfd7f9"/><circle cx="140.45" cy="170.01999999999998" r="1.48" fill="#4968e7"/><circle cx="155.23" cy="170.01999999999998" r="1.48" fill="#f4e8b4"/><circle cx="170.01999999999998" cy="170.01999999999998" r="1.48" fill="#fdfaf0"/><circle cx="184.79999999999998" cy="170.01999999999998" r="1.48" fill="#ff3d6b"/><circle cx="199.57999999999998" cy="170.01999999999998" r="1.48" fill="#f8efcd"/><circle cx="214.36999999999998" cy="170.01999999999998" r="1.48" fill="#e4c546"/><circle cx="229.14999999999998" cy="170.01999999999998" r="1.48" fill="#5270e9"/><circle cx="243.92999999999998" cy="170.01999999999998" r="1.48" fill="#f9f3d9"/><circle cx="258.72" cy="170.01999999999998" r="1.48" fill="#778eed"/><circle cx="273.5" cy="170.01999999999998" r="1.48" fill="#fcfcff"/><circle cx="288.29" cy="170.01999999999998" r="1.48" fill="#c1ccf7"/><circle cx="303.07" cy="170.01999999999998" r="1.48" fill="#f4e6b0"/><circle cx="317.85" cy="170.01999999999998" r="1.48" fill="#fffdfe"/><circle cx="332.64000000000004" cy="170.01999999999998" r="1.48" fill="#b6c2f6"/><circle cx="347.42" cy="170.01999999999998" r="1.48" fill="#ff9cb4"/><circle cx="362.20000000000005" cy="170.01999999999998" r="1.48" fill="#e0bc28"/><circle cx="376.99" cy="170.01999999999998" r="1.48" fill="#879bef"/><circle cx="391.77000000000004" cy="170.01999999999998" r="1.48" fill="#e6c953"/><circle cx="406.56" cy="170.01999999999998" r="1.48" fill="#ff88a4"/><circle cx="7.390000000000001" cy="184.79999999999998" r="1.48" fill="#eed985"/><circle cx="22.18" cy="184.79999999999998" r="1.48" fill="#f2e2a4"/><circle cx="36.959999999999994" cy="184.79999999999998" r="1.48" fill="#ff416e"/><circle cx="51.739999999999995" cy="184.79999999999998" r="1.48" fill="#627deb"/><circle cx="66.53" cy="184.79999999999998" r="1.48" fill="#e5c547"/><circle cx="81.31" cy="184.79999999999998" r="1.48" fill="#ffb4c6"/><circle cx="96.10000000000001" cy="184.79999999999998" r="1.48" fill="#96a8f1"/><circle cx="110.88000000000001" cy="184.79999999999998" r="1.48" fill="#93a5f1"/><circle cx="125.66000000000001" cy="184.79999999999998" r="1.48" fill="#ffadc0"/><circle cx="140.45" cy="184.79999999999998" r="1.48" fill="#efdb8d"/><circle cx="155.23" cy="184.79999999999998" r="1.48" fill="#f4e8b4"/><circle cx="170.01999999999998" cy="184.79999999999998" r="1.48" fill="#e9cf65"/><circle cx="184.79999999999998" cy="184.79999999999998" r="1.48" fill="#1f45e2"/><circle cx="199.57999999999998" cy="184.79999999999998" r="1.48" fill="#ebd475"/><circle cx="214.36999999999998" cy="184.79999999999998" r="1.48" fill="#ffaabe"/><circle cx="229.14999999999998" cy="184.79999999999998" r="1.48" fill="#f7edc6"/><circle cx="243.92999999999998" cy="184.79999999999998" r="1.48" fill="#fbf6e3"/><circle cx="258.72" cy="184.79999999999998" r="1.48" fill="#ffe6ec"/><circle cx="273.5" cy="184.79999999999998" r="1.48" fill="#efdc90"/><circle cx="288.29" cy="184.79999999999998" r="1.48" fill="#edd883"/><circle cx="303.07" cy="184.79999999999998" r="1.48" fill="#ffe3ea"/><circle cx="317.85" cy="184.79999999999998" r="1.48" fill="#fefcf5"/><circle cx="332.64000000000004" cy="184.79999999999998" r="1.48" fill="#ead16c"/><circle cx="347.42" cy="184.79999999999998" r="1.48" fill="#e7cb5a"/><circle cx="362.20000000000005" cy="184.79999999999998" r="1.48" fill="#5975e9"/><circle cx="376.99" cy="184.79999999999998" r="1.48" fill="#e6c74e"/><circle cx="391.77000000000004" cy="184.79999999999998" r="1.48" fill="#ccd5f8"/><circle cx="406.56" cy="184.79999999999998" r="1.48" fill="#fefcf6"/><circle cx="7.390000000000001" cy="199.57999999999998" r="1.48" fill="#dbe1fa"/><circle cx="22.18" cy="199.57999999999998" r="1.48" fill="#f3e4a8"/><circle cx="36.959999999999994" cy="199.57999999999998" r="1.48" fill="#4766e7"/><circle cx="51.739999999999995" cy="199.57999999999998" r="1.48" fill="#f9f1d2"/><circle cx="66.53" cy="199.57999999999998" r="1.48" fill="#ff557d"/><circle cx="81.31" cy="199.57999999999998" r="1.48" fill="#ff5a81"/><circle cx="96.10000000000001" cy="199.57999999999998" r="1.48" fill="#ebd373"/><circle cx="110.88000000000001" cy="199.57999999999998" r="1.48" fill="#c0cbf7"/><circle cx="125.66000000000001" cy="199.57999999999998" r="1.48" fill="#b2bff5"/><circle cx="140.45" cy="199.57999999999998" r="1.48" fill="#e0bc29"/><circle cx="155.23" cy="199.57999999999998" r="1.48" fill="#4363e7"/><circle cx="170.01999999999998" cy="199.57999999999998" r="1.48" fill="#faf4dc"/><circle cx="184.79999999999998" cy="199.57999999999998" r="1.48" fill="#627ceb"/><circle cx="199.57999999999998" cy="199.57999999999998" r="1.48" fill="#e6c850"/><circle cx="214.36999999999998" cy="199.57999999999998" r="1.48" fill="#ffafc2"/><circle cx="229.14999999999998" cy="199.57999999999998" r="1.48" fill="#294de3"/><circle cx="243.92999999999998" cy="199.57999999999998" r="1.48" fill="#4363e7"/><circle cx="258.72" cy="199.57999999999998" r="1.48" fill="#fefeff"/><circle cx="273.5" cy="199.57999999999998" r="1.48" fill="#f5eabc"/><circle cx="288.29" cy="199.57999999999998" r="1.48" fill="#f1e09b"/><circle cx="303.07" cy="199.57999999999998" r="1.48" fill="#e4c545"/><circle cx="317.85" cy="199.57999999999998" r="1.48" fill="#ff6489"/><circle cx="332.64000000000004" cy="199.57999999999998" r="1.48" fill="#f2f4fd"/><circle cx="347.42" cy="199.57999999999998" r="1.48" fill="#e4c443"/><circle cx="362.20000000000005" cy="199.57999999999998" r="1.48" fill="#f3f5fd"/><circle cx="376.99" cy="199.57999999999998" r="1.48" fill="#ff86a3"/><circle cx="391.77000000000004" cy="199.57999999999998" r="1.48" fill="#f6eabe"/><circle cx="406.56" cy="199.57999999999998" r="1.48" fill="#3254e4"/><circle cx="7.390000000000001" cy="214.36999999999998" r="1.48" fill="#f2e2a4"/><circle cx="22.18" cy="214.36999999999998" r="1.48" fill="#f5e9b9"/><circle cx="36.959999999999994" cy="214.36999999999998" r="1.48" fill="#ffd9e2"/><circle cx="51.739999999999995" cy="214.36999999999998" r="1.48" fill="#96a8f1"/><circle cx="66.53" cy="214.36999999999998" r="1.48" fill="#ffd6e0"/><circle cx="81.31" cy="214.36999999999998" r="1.48" fill="#e4c444"/><circle cx="96.10000000000001" cy="214.36999999999998" r="1.48" fill="#ff7f9e"/><circle cx="110.88000000000001" cy="214.36999999999998" r="1.48" fill="#ead16d"/><circle cx="125.66000000000001" cy="214.36999999999998" r="1.48" fill="#ffa7bc"/><circle cx="140.45" cy="214.36999999999998" r="1.48" fill="#e5eafc"/><circle cx="155.23" cy="214.36999999999998" r="1.48" fill="#fff7f9"/><circle cx="170.01999999999998" cy="214.36999999999998" r="1.48" fill="#f5e9ba"/><circle cx="184.79999999999998" cy="214.36999999999998" r="1.48" fill="#eef1fd"/><circle cx="199.57999999999998" cy="214.36999999999998" r="1.48" fill="#f7edc7"/><circle cx="214.36999999999998" cy="214.36999999999998" r="1.48" fill="#6680eb"/><circle cx="229.14999999999998" cy="214.36999999999998" r="1.48" fill="#faf3d9"/><circle cx="243.92999999999998" cy="214.36999999999998" r="1.48" fill="#ffa9bd"/><circle cx="258.72" cy="214.36999999999998" r="1.48" fill="#ffdbe4"/><circle cx="273.5" cy="214.36999999999998" r="1.48" fill="#f4e6b0"/><circle cx="288.29" cy="214.36999999999998" r="1.48" fill="#738bed"/><circle cx="303.07" cy="214.36999999999998" r="1.48" fill="#f6ecc3"/><circle cx="317.85" cy="214.36999999999998" r="1.48" fill="#3759e5"/><circle cx="332.64000000000004" cy="214.36999999999998" r="1.48" fill="#e1bd2c"/><circle cx="347.42" cy="214.36999999999998" r="1.48" fill="#ecd67d"/><circle cx="362.20000000000005" cy="214.36999999999998" r="1.48" fill="#ffb4c6"/><circle cx="376.99" cy="214.36999999999998" r="1.48" fill="#ffa7bc"/><circle cx="391.77000000000004" cy="214.36999999999998" r="1.48" fill="#1f45e2"/><circle cx="406.56" cy="214.36999999999998" r="1.48" fill="#ff7898"/><circle cx="7.390000000000001" cy="229.14999999999998" r="1.48" fill="#f7f9fe"/><circle cx="22.18" cy="229.14999999999998" r="1.48" fill="#e6ebfc"/><circle cx="36.959999999999994" cy="229.14999999999998" r="1.48" fill="#ebd374"/><circle cx="51.739999999999995" cy="229.14999999999998" r="1.48" fill="#91a3f1"/><circle cx="66.53" cy="229.14999999999998" r="1.48" fill="#395be5"/><circle cx="81.31" cy="229.14999999999998" r="1.48" fill="#fff3f6"/><circle cx="96.10000000000001" cy="229.14999999999998" r="1.48" fill="#ffd7e0"/><circle cx="110.88000000000001" cy="229.14999999999998" r="1.48" fill="#efdd93"/><circle cx="125.66000000000001" cy="229.14999999999998" r="1.48" fill="#889cf0"/><circle cx="140.45" cy="229.14999999999998" r="1.48" fill="#9cadf2"/><circle cx="155.23" cy="229.14999999999998" r="1.48" fill="#738bed"/><circle cx="170.01999999999998" cy="229.14999999999998" r="1.48" fill="#ff4f79"/><circle cx="184.79999999999998" cy="229.14999999999998" r="1.48" fill="#dde3fb"/><circle cx="199.57999999999998" cy="229.14999999999998" r="1.48" fill="#ecd67e"/><circle cx="214.36999999999998" cy="229.14999999999998" r="1.48" fill="#e7cb59"/><circle cx="229.14999999999998" cy="229.14999999999998" r="1.48" fill="#ffa9bd"/><circle cx="243.92999999999998" cy="229.14999999999998" r="1.48" fill="#ff8ba7"/><circle cx="258.72" cy="229.14999999999998" r="1.48" fill="#ffd7e0"/><circle cx="273.5" cy="229.14999999999998" r="1.48" fill="#3356e5"/><circle cx="288.29" cy="229.14999999999998" r="1.48" fill="#f4e6af"/><circle cx="303.07" cy="229.14999999999998" r="1.48" fill="#ff5980"/><circle cx="317.85" cy="229.14999999999998" r="1.48" fill="#fffefe"/><circle cx="332.64000000000004" cy="229.14999999999998" r="1.48" fill="#fefdf9"/><circle cx="347.42" cy="229.14999999999998" r="1.48" fill="#e1bd2c"/><circle cx="362.20000000000005" cy="229.14999999999998" r="1.48" fill="#ff7c9b"/><circle cx="376.99" cy="229.14999999999998" r="1.48" fill="#ff7092"/><circle cx="391.77000000000004" cy="229.14999999999998" r="1.48" fill="#ffe1e8"/><circle cx="406.56" cy="229.14999999999998" r="1.48" fill="#ffb3c5"/><circle cx="7.390000000000001" cy="243.92999999999998" r="1.48" fill="#ff527b"/><circle cx="22.18" cy="243.92999999999998" r="1.48" fill="#eff2fd"/><circle cx="36.959999999999994" cy="243.92999999999998" r="1.48" fill="#ead06a"/><circle cx="51.739999999999995" cy="243.92999999999998" r="1.48" fill="#607bea"/><circle cx="66.53" cy="243.92999999999998" r="1.48" fill="#ebd373"/><circle cx="81.31" cy="243.92999999999998" r="1.48" fill="#617bea"/><circle cx="96.10000000000001" cy="243.92999999999998" r="1.48" fill="#ffecf1"/><circle cx="110.88000000000001" cy="243.92999999999998" r="1.48" fill="#fff7f9"/><circle cx="125.66000000000001" cy="243.92999999999998" r="1.48" fill="#fdfaee"/><circle cx="140.45" cy="243.92999999999998" r="1.48" fill="#f4e7b2"/><circle cx="155.23" cy="243.92999999999998" r="1.48" fill="#fff1f4"/><circle cx="170.01999999999998" cy="243.92999999999998" r="1.48" fill="#ff3867"/><circle cx="184.79999999999998" cy="243.92999999999998" r="1.48" fill="#fff2f5"/><circle cx="199.57999999999998" cy="243.92999999999998" r="1.48" fill="#ff4e78"/><circle cx="214.36999999999998" cy="243.92999999999998" r="1.48" fill="#4262e6"/><circle cx="229.14999999999998" cy="243.92999999999998" r="1.48" fill="#284ce3"/><circle cx="243.92999999999998" cy="243.92999999999998" r="1.48" fill="#5f7aea"/><circle cx="258.72" cy="243.92999999999998" r="1.48" fill="#5e79ea"/><circle cx="273.5" cy="243.92999999999998" r="1.48" fill="#5d79ea"/><circle cx="288.29" cy="243.92999999999998" r="1.48" fill="#f3e6ae"/><circle cx="303.07" cy="243.92999999999998" r="1.48" fill="#2348e2"/><circle cx="317.85" cy="243.92999999999998" r="1.48" fill="#ffc5d2"/><circle cx="332.64000000000004" cy="243.92999999999998" r="1.48" fill="#3658e5"/><circle cx="347.42" cy="243.92999999999998" r="1.48" fill="#f2e3a6"/><circle cx="362.20000000000005" cy="243.92999999999998" r="1.48" fill="#ffbecd"/><circle cx="376.99" cy="243.92999999999998" r="1.48" fill="#e9cf66"/><circle cx="391.77000000000004" cy="243.92999999999998" r="1.48" fill="#f6ebc1"/><circle cx="406.56" cy="243.92999999999998" r="1.48" fill="#e1bd2e"/><circle cx="7.390000000000001" cy="258.72" r="1.48" fill="#ff6388"/><circle cx="22.18" cy="258.72" r="1.48" fill="#b5c2f5"/><circle cx="36.959999999999994" cy="258.72" r="1.48" fill="#ff7c9b"/><circle cx="51.739999999999995" cy="258.72" r="1.48" fill="#5e79ea"/><circle cx="66.53" cy="258.72" r="1.48" fill="#ff4471"/><circle cx="81.31" cy="258.72" r="1.48" fill="#ead06a"/><circle cx="96.10000000000001" cy="258.72" r="1.48" fill="#ffa8bd"/><circle cx="110.88000000000001" cy="258.72" r="1.48" fill="#f9f2d4"/><circle cx="125.66000000000001" cy="258.72" r="1.48" fill="#edd882"/><circle cx="140.45" cy="258.72" r="1.48" fill="#ffd7e0"/><circle cx="155.23" cy="258.72" r="1.48" fill="#ffeef2"/><circle cx="170.01999999999998" cy="258.72" r="1.48" fill="#96a8f1"/><circle cx="184.79999999999998" cy="258.72" r="1.48" fill="#edd77f"/><circle cx="199.57999999999998" cy="258.72" r="1.48" fill="#ff3767"/><circle cx="214.36999999999998" cy="258.72" r="1.48" fill="#ff97b0"/><circle cx="229.14999999999998" cy="258.72" r="1.48" fill="#ffb6c7"/><circle cx="243.92999999999998" cy="258.72" r="1.48" fill="#eff2fd"/><circle cx="258.72" cy="258.72" r="1.48" fill="#ff5e84"/><circle cx="273.5" cy="258.72" r="1.48" fill="#fdfdff"/><circle cx="288.29" cy="258.72" r="1.48" fill="#8c9ff0"/><circle cx="303.07" cy="258.72" r="1.48" fill="#e9ce64"/><circle cx="317.85" cy="258.72" r="1.48" fill="#aab8f4"/><circle cx="332.64000000000004" cy="258.72" r="1.48" fill="#ffdae3"/><circle cx="347.42" cy="258.72" r="1.48" fill="#d3daf9"/><circle cx="362.20000000000005" cy="258.72" r="1.48" fill="#ffd0db"/><circle cx="376.99" cy="258.72" r="1.48" fill="#a5b5f3"/><circle cx="391.77000000000004" cy="258.72" r="1.48" fill="#ff96af"/><circle cx="406.56" cy="258.72" r="1.48" fill="#edd884"/><circle cx="7.390000000000001" cy="273.5" r="1.48" fill="#efdb8d"/><circle cx="22.18" cy="273.5" r="1.48" fill="#f8f1d2"/><circle cx="36.959999999999994" cy="273.5" r="1.48" fill="#f8f0cf"/><circle cx="51.739999999999995" cy="273.5" r="1.48" fill="#8398ef"/><circle cx="66.53" cy="273.5" r="1.48" fill="#eaedfc"/><circle cx="81.31" cy="273.5" r="1.48" fill="#e5c64a"/><circle cx="96.10000000000001" cy="273.5" r="1.48" fill="#ff93ad"/><circle cx="110.88000000000001" cy="273.5" r="1.48" fill="#8a9ef0"/><circle cx="125.66000000000001" cy="273.5" r="1.48" fill="#d3dbf9"/><circle cx="140.45" cy="273.5" r="1.48" fill="#f6eabe"/><circle cx="155.23" cy="273.5" r="1.48" fill="#ff3666"/><circle cx="170.01999999999998" cy="273.5" r="1.48" fill="#ffadc1"/><circle cx="184.79999999999998" cy="273.5" r="1.48" fill="#ff3a69"/><circle cx="199.57999999999998" cy="273.5" r="1.48" fill="#7b91ee"/><circle cx="214.36999999999998" cy="273.5" r="1.48" fill="#ff4b76"/><circle cx="229.14999999999998" cy="273.5" r="1.48" fill="#5b77ea"/><circle cx="243.92999999999998" cy="273.5" r="1.48" fill="#ff3968"/><circle cx="258.72" cy="273.5" r="1.48" fill="#ff89a5"/><circle cx="273.5" cy="273.5" r="1.48" fill="#fffefd"/><circle cx="288.29" cy="273.5" r="1.48" fill="#f4f6fe"/><circle cx="303.07" cy="273.5" r="1.48" fill="#f2e3a6"/><circle cx="317.85" cy="273.5" r="1.48" fill="#5c78ea"/><circle cx="332.64000000000004" cy="273.5" r="1.48" fill="#fdfbf1"/><circle cx="347.42" cy="273.5" r="1.48" fill="#fdfaef"/><circle cx="362.20000000000005" cy="273.5" r="1.48" fill="#ff6b8e"/><circle cx="376.99" cy="273.5" r="1.48" fill="#869bef"/><circle cx="391.77000000000004" cy="273.5" r="1.48" fill="#ff4873"/><circle cx="406.56" cy="273.5" r="1.48" fill="#e1bd2b"/><circle cx="7.390000000000001" cy="288.29" r="1.48" fill="#ff3e6c"/><circle cx="22.18" cy="288.29" r="1.48" fill="#9bacf2"/><circle cx="36.959999999999994" cy="288.29" r="1.48" fill="#3d5de6"/><circle cx="51.739999999999995" cy="288.29" r="1.48" fill="#ffb5c7"/><circle cx="66.53" cy="288.29" r="1.48" fill="#274be3"/><circle cx="81.31" cy="288.29" r="1.48" fill="#eeda88"/><circle cx="96.10000000000001" cy="288.29" r="1.48" fill="#ff6287"/><circle cx="110.88000000000001" cy="288.29" r="1.48" fill="#5c77ea"/><circle cx="125.66000000000001" cy="288.29" r="1.48" fill="#ffafc2"/><circle cx="140.45" cy="288.29" r="1.48" fill="#ff9bb2"/><circle cx="155.23" cy="288.29" r="1.48" fill="#ffb3c5"/><circle cx="170.01999999999998" cy="288.29" r="1.48" fill="#ff9eb5"/><circle cx="184.79999999999998" cy="288.29" r="1.48" fill="#ff4470"/><circle cx="199.57999999999998" cy="288.29" r="1.48" fill="#ff3968"/><circle cx="214.36999999999998" cy="288.29" r="1.48" fill="#fff6f8"/><circle cx="229.14999999999998" cy="288.29" r="1.48" fill="#faf5de"/><circle cx="243.92999999999998" cy="288.29" r="1.48" fill="#f5e9b7"/><circle cx="258.72" cy="288.29" r="1.48" fill="#e0bb27"/><circle cx="273.5" cy="288.29" r="1.48" fill="#ff9eb5"/><circle cx="288.29" cy="288.29" r="1.48" fill="#f1f3fd"/><circle cx="303.07" cy="288.29" r="1.48" fill="#f1e19f"/><circle cx="317.85" cy="288.29" r="1.48" fill="#879bef"/><circle cx="332.64000000000004" cy="288.29" r="1.48" fill="#e7c954"/><circle cx="347.42" cy="288.29" r="1.48" fill="#ff5079"/><circle cx="362.20000000000005" cy="288.29" r="1.48" fill="#ff88a4"/><circle cx="376.99" cy="288.29" r="1.48" fill="#93a5f1"/><circle cx="391.77000000000004" cy="288.29" r="1.48" fill="#ead16b"/><circle cx="406.56" cy="288.29" r="1.48" fill="#e3c23d"/><circle cx="7.390000000000001" cy="303.07" r="1.48" fill="#e5c64a"/><circle cx="22.18" cy="303.07" r="1.48" fill="#ff3968"/><circle cx="36.959999999999994" cy="303.07" r="1.48" fill="#ff4974"/><circle cx="51.739999999999995" cy="303.07" r="1.48" fill="#fffefc"/><circle cx="66.53" cy="303.07" r="1.48" fill="#ff8aa6"/><circle cx="81.31" cy="303.07" r="1.48" fill="#f8f0d0"/><circle cx="96.10000000000001" cy="303.07" r="1.48" fill="#edd883"/><circle cx="110.88000000000001" cy="303.07" r="1.48" fill="#ffdde5"/><circle cx="125.66000000000001" cy="303.07" r="1.48" fill="#ffb1c3"/><circle cx="140.45" cy="303.07" r="1.48" fill="#fffafb"/><circle cx="155.23" cy="303.07" r="1.48" fill="#ff3e6c"/><circle cx="170.01999999999998" cy="303.07" r="1.48" fill="#8297ef"/><circle cx="184.79999999999998" cy="303.07" r="1.48" fill="#ff82a0"/><circle cx="199.57999999999998" cy="303.07" r="1.48" fill="#3356e5"/><circle cx="214.36999999999998" cy="303.07" r="1.48" fill="#e2bf34"/><circle cx="229.14999999999998" cy="303.07" r="1.48" fill="#ff3867"/><circle cx="243.92999999999998" cy="303.07" r="1.48" fill="#6f87ec"/><circle cx="258.72" cy="303.07" r="1.48" fill="#f7edc7"/><circle cx="273.5" cy="303.07" r="1.48" fill="#aebcf4"/><circle cx="288.29" cy="303.07" r="1.48" fill="#eedb8c"/><circle cx="303.07" cy="303.07" r="1.48" fill="#4464e7"/><circle cx="317.85" cy="303.07" r="1.48" fill="#ecd67b"/><circle cx="332.64000000000004" cy="303.07" r="1.48" fill="#f7edc6"/><circle cx="347.42" cy="303.07" r="1.48" fill="#f8f0cf"/><circle cx="362.20000000000005" cy="303.07" r="1.48" fill="#ead16c"/><circle cx="376.99" cy="303.07" r="1.48" fill="#97a8f1"/><circle cx="391.77000000000004" cy="303.07" r="1.48" fill="#ffeef2"/><circle cx="406.56" cy="303.07" r="1.48" fill="#ff96af"/><circle cx="7.390000000000001" cy="317.85" r="1.48" fill="#ffa5bb"/><circle cx="22.18" cy="317.85" r="1.48" fill="#b5c2f5"/><circle cx="36.959999999999994" cy="317.85" r="1.48" fill="#edd985"/><circle cx="51.739999999999995" cy="317.85" r="1.48" fill="#6d85ec"/><circle cx="66.53" cy="317.85" r="1.48" fill="#96a8f1"/><circle cx="81.31" cy="317.85" r="1.48" fill="#fbf6e2"/><circle cx="96.10000000000001" cy="317.85" r="1.48" fill="#ffa1b7"/><circle cx="110.88000000000001" cy="317.85" r="1.48" fill="#f8efcb"/><circle cx="125.66000000000001" cy="317.85" r="1.48" fill="#fffafc"/><circle cx="140.45" cy="317.85" r="1.48" fill="#ff93ad"/><circle cx="155.23" cy="317.85" r="1.48" fill="#c9d2f8"/><circle cx="170.01999999999998" cy="317.85" r="1.48" fill="#ff6288"/><circle cx="184.79999999999998" cy="317.85" r="1.48" fill="#e4c341"/><circle cx="199.57999999999998" cy="317.85" r="1.48" fill="#6b84ec"/><circle cx="214.36999999999998" cy="317.85" r="1.48" fill="#8a9ef0"/><circle cx="229.14999999999998" cy="317.85" r="1.48" fill="#2248e2"/><circle cx="243.92999999999998" cy="317.85" r="1.48" fill="#bfcaf7"/><circle cx="258.72" cy="317.85" r="1.48" fill="#ff3e6c"/><circle cx="273.5" cy="317.85" r="1.48" fill="#6f87ec"/><circle cx="288.29" cy="317.85" r="1.48" fill="#adbbf4"/><circle cx="303.07" cy="317.85" r="1.48" fill="#f5e8b7"/><circle cx="317.85" cy="317.85" r="1.48" fill="#ff3a69"/><circle cx="332.64000000000004" cy="317.85" r="1.48" fill="#ffdee6"/><circle cx="347.42" cy="317.85" r="1.48" fill="#ff5a81"/><circle cx="362.20000000000005" cy="317.85" r="1.48" fill="#758ded"/><circle cx="376.99" cy="317.85" r="1.48" fill="#bec9f7"/><circle cx="391.77000000000004" cy="317.85" r="1.48" fill="#ff6186"/><circle cx="406.56" cy="317.85" r="1.48" fill="#1f44e2"/><circle cx="7.390000000000001" cy="332.64000000000004" r="1.48" fill="#2449e3"/><circle cx="22.18" cy="332.64000000000004" r="1.48" fill="#fbf5e0"/><circle cx="36.959999999999994" cy="332.64000000000004" r="1.48" fill="#1c43e2"/><circle cx="51.739999999999995" cy="332.64000000000004" r="1.48" fill="#fefefb"/><circle cx="66.53" cy="332.64000000000004" r="1.48" fill="#ffdee6"/><circle cx="81.31" cy="332.64000000000004" r="1.48" fill="#ffdce4"/><circle cx="96.10000000000001" cy="332.64000000000004" r="1.48" fill="#eed985"/><circle cx="110.88000000000001" cy="332.64000000000004" r="1.48" fill="#e3c13a"/><circle cx="125.66000000000001" cy="332.64000000000004" r="1.48" fill="#93a5f1"/><circle cx="140.45" cy="332.64000000000004" r="1.48" fill="#ff84a2"/><circle cx="155.23" cy="332.64000000000004" r="1.48" fill="#ff658a"/><circle cx="170.01999999999998" cy="332.64000000000004" r="1.48" fill="#ffdce4"/><circle cx="184.79999999999998" cy="332.64000000000004" r="1.48" fill="#f5e8b6"/><circle cx="199.57999999999998" cy="332.64000000000004" r="1.48" fill="#eff2fd"/><circle cx="214.36999999999998" cy="332.64000000000004" r="1.48" fill="#e5c548"/><circle cx="229.14999999999998" cy="332.64000000000004" r="1.48" fill="#ecd67e"/><circle cx="243.92999999999998" cy="332.64000000000004" r="1.48" fill="#d8defa"/><circle cx="258.72" cy="332.64000000000004" r="1.48" fill="#ff7495"/><circle cx="273.5" cy="332.64000000000004" r="1.48" fill="#ffb5c7"/><circle cx="288.29" cy="332.64000000000004" r="1.48" fill="#4060e6"/><circle cx="303.07" cy="332.64000000000004" r="1.48" fill="#ffedf1"/><circle cx="317.85" cy="332.64000000000004" r="1.48" fill="#e0bc29"/><circle cx="332.64000000000004" cy="332.64000000000004" r="1.48" fill="#3b5de6"/><circle cx="347.42" cy="332.64000000000004" r="1.48" fill="#3658e5"/><circle cx="362.20000000000005" cy="332.64000000000004" r="1.48" fill="#4a69e8"/><circle cx="376.99" cy="332.64000000000004" r="1.48" fill="#e4c33f"/><circle cx="391.77000000000004" cy="332.64000000000004" r="1.48" fill="#efdb8d"/><circle cx="406.56" cy="332.64000000000004" r="1.48" fill="#ff3d6b"/><circle cx="7.390000000000001" cy="347.42" r="1.48" fill="#faf4db"/><circle cx="22.18" cy="347.42" r="1.48" fill="#4c6be8"/><circle cx="36.959999999999994" cy="347.42" r="1.48" fill="#748bed"/><circle cx="51.739999999999995" cy="347.42" r="1.48" fill="#ff7697"/><circle cx="66.53" cy="347.42" r="1.48" fill="#ff88a4"/><circle cx="81.31" cy="347.42" r="1.48" fill="#ff9eb5"/><circle cx="96.10000000000001" cy="347.42" r="1.48" fill="#c7d1f8"/><circle cx="110.88000000000001" cy="347.42" r="1.48" fill="#e8ce62"/><circle cx="125.66000000000001" cy="347.42" r="1.48" fill="#5471e9"/><circle cx="140.45" cy="347.42" r="1.48" fill="#e2e7fb"/><circle cx="155.23" cy="347.42" r="1.48" fill="#ff7596"/><circle cx="170.01999999999998" cy="347.42" r="1.48" fill="#ffffff"/><circle cx="184.79999999999998" cy="347.42" r="1.48" fill="#e1bd2d"/><circle cx="199.57999999999998" cy="347.42" r="1.48" fill="#fdfbf4"/><circle cx="214.36999999999998" cy="347.42" r="1.48" fill="#ecd67d"/><circle cx="229.14999999999998" cy="347.42" r="1.48" fill="#ffabbf"/><circle cx="243.92999999999998" cy="347.42" r="1.48" fill="#b9c4f6"/><circle cx="258.72" cy="347.42" r="1.48" fill="#fdfbf1"/><circle cx="273.5" cy="347.42" r="1.48" fill="#f5e9b9"/><circle cx="288.29" cy="347.42" r="1.48" fill="#5370e9"/><circle cx="303.07" cy="347.42" r="1.48" fill="#3154e4"/><circle cx="317.85" cy="347.42" r="1.48" fill="#e4c445"/><circle cx="332.64000000000004" cy="347.42" r="1.48" fill="#3557e5"/><circle cx="347.42" cy="347.42" r="1.48" fill="#869bef"/><circle cx="362.20000000000005" cy="347.42" r="1.48" fill="#edd882"/><circle cx="376.99" cy="347.42" r="1.48" fill="#fdfaf0"/><circle cx="391.77000000000004" cy="347.42" r="1.48" fill="#4060e6"/><circle cx="406.56" cy="347.42" r="1.48" fill="#f0de95"/><circle cx="7.390000000000001" cy="362.20000000000005" r="1.48" fill="#edd884"/><circle cx="22.18" cy="362.20000000000005" r="1.48" fill="#ffc6d4"/><circle cx="36.959999999999994" cy="362.20000000000005" r="1.48" fill="#f1e09d"/><circle cx="51.739999999999995" cy="362.20000000000005" r="1.48" fill="#ffd0db"/><circle cx="66.53" cy="362.20000000000005" r="1.48" fill="#f0df98"/><circle cx="81.31" cy="362.20000000000005" r="1.48" fill="#ebd374"/><circle cx="96.10000000000001" cy="362.20000000000005" r="1.48" fill="#4766e7"/><circle cx="110.88000000000001" cy="362.20000000000005" r="1.48" fill="#f9f1d3"/><circle cx="125.66000000000001" cy="362.20000000000005" r="1.48" fill="#5975e9"/><circle cx="140.45" cy="362.20000000000005" r="1.48" fill="#eeda8a"/><circle cx="155.23" cy="362.20000000000005" r="1.48" fill="#ffcbd7"/><circle cx="170.01999999999998" cy="362.20000000000005" r="1.48" fill="#385ae5"/><circle cx="184.79999999999998" cy="362.20000000000005" r="1.48" fill="#ff8aa6"/><circle cx="199.57999999999998" cy="362.20000000000005" r="1.48" fill="#cbd4f8"/><circle cx="214.36999999999998" cy="362.20000000000005" r="1.48" fill="#5e79ea"/><circle cx="229.14999999999998" cy="362.20000000000005" r="1.48" fill="#ffe0e7"/><circle cx="243.92999999999998" cy="362.20000000000005" r="1.48" fill="#e7cb59"/><circle cx="258.72" cy="362.20000000000005" r="1.48" fill="#e6c850"/><circle cx="273.5" cy="362.20000000000005" r="1.48" fill="#eed986"/><circle cx="288.29" cy="362.20000000000005" r="1.48" fill="#e9cf67"/><circle cx="303.07" cy="362.20000000000005" r="1.48" fill="#627ceb"/><circle cx="317.85" cy="362.20000000000005" r="1.48" fill="#8499ef"/><circle cx="332.64000000000004" cy="362.20000000000005" r="1.48" fill="#f2f4fd"/><circle cx="347.42" cy="362.20000000000005" r="1.48" fill="#f0df9a"/><circle cx="362.20000000000005" cy="362.20000000000005" r="1.48" fill="#ff6e91"/><circle cx="376.99" cy="362.20000000000005" r="1.48" fill="#9dadf2"/><circle cx="391.77000000000004" cy="362.20000000000005" r="1.48" fill="#e4c340"/><circle cx="406.56" cy="362.20000000000005" r="1.48" fill="#f0f2fd"/><circle cx="7.390000000000001" cy="376.99" r="1.48" fill="#ff7193"/><circle cx="22.18" cy="376.99" r="1.48" fill="#ff6186"/><circle cx="36.959999999999994" cy="376.99" r="1.48" fill="#2a4ee3"/><circle cx="51.739999999999995" cy="376.99" r="1.48" fill="#5673e9"/><circle cx="66.53" cy="376.99" r="1.48" fill="#ffc6d4"/><circle cx="81.31" cy="376.99" r="1.48" fill="#ffc7d4"/><circle cx="96.10000000000001" cy="376.99" r="1.48" fill="#ff4672"/><circle cx="110.88000000000001" cy="376.99" r="1.48" fill="#fefefb"/><circle cx="125.66000000000001" cy="376.99" r="1.48" fill="#ff4470"/><circle cx="140.45" cy="376.99" r="1.48" fill="#f6ecc3"/><circle cx="155.23" cy="376.99" r="1.48" fill="#ffb3c5"/><circle cx="170.01999999999998" cy="376.99" r="1.48" fill="#ff3666"/><circle cx="184.79999999999998" cy="376.99" r="1.48" fill="#e3c23b"/><circle cx="199.57999999999998" cy="376.99" r="1.48" fill="#ffabbf"/><circle cx="214.36999999999998" cy="376.99" r="1.48" fill="#758ced"/><circle cx="229.14999999999998" cy="376.99" r="1.48" fill="#ffffff"/><circle cx="243.92999999999998" cy="376.99" r="1.48" fill="#748bed"/><circle cx="258.72" cy="376.99" r="1.48" fill="#ffb6c7"/><circle cx="273.5" cy="376.99" r="1.48" fill="#ff5981"/><circle cx="288.29" cy="376.99" r="1.48" fill="#3053e4"/><circle cx="303.07" cy="376.99" r="1.48" fill="#f5e9b7"/><circle cx="317.85" cy="376.99" r="1.48" fill="#3e5ee6"/><circle cx="332.64000000000004" cy="376.99" r="1.48" fill="#ff86a3"/><circle cx="347.42" cy="376.99" r="1.48" fill="#ff5981"/><circle cx="362.20000000000005" cy="376.99" r="1.48" fill="#dfe4fb"/><circle cx="376.99" cy="376.99" r="1.48" fill="#ffdfe6"/><circle cx="391.77000000000004" cy="376.99" r="1.48" fill="#4665e7"/><circle cx="406.56" cy="376.99" r="1.48" fill="#788fed"/><circle cx="7.390000000000001" cy="391.77000000000004" r="1.48" fill="#8599ef"/><circle cx="22.18" cy="391.77000000000004" r="1.48" fill="#ffbacb"/><circle cx="36.959999999999994" cy="391.77000000000004" r="1.48" fill="#ffdae3"/><circle cx="51.739999999999995" cy="391.77000000000004" r="1.48" fill="#f9f3d8"/><circle cx="66.53" cy="391.77000000000004" r="1.48" fill="#e7ebfc"/><circle cx="81.31" cy="391.77000000000004" r="1.48" fill="#ff8da8"/><circle cx="96.10000000000001" cy="391.77000000000004" r="1.48" fill="#748bed"/><circle cx="110.88000000000001" cy="391.77000000000004" r="1.48" fill="#788fed"/><circle cx="125.66000000000001" cy="391.77000000000004" r="1.48" fill="#ff6e90"/><circle cx="140.45" cy="391.77000000000004" r="1.48" fill="#e5c74b"/><circle cx="155.23" cy="391.77000000000004" r="1.48" fill="#f9f1d2"/><circle cx="170.01999999999998" cy="391.77000000000004" r="1.48" fill="#e9cf67"/><circle cx="184.79999999999998" cy="391.77000000000004" r="1.48" fill="#eed987"/><circle cx="199.57999999999998" cy="391.77000000000004" r="1.48" fill="#ff4873"/><circle cx="214.36999999999998" cy="391.77000000000004" r="1.48" fill="#e4c545"/><circle cx="229.14999999999998" cy="391.77000000000004" r="1.48" fill="#ffcad7"/><circle cx="243.92999999999998" cy="391.77000000000004" r="1.48" fill="#5a76ea"/><circle cx="258.72" cy="391.77000000000004" r="1.48" fill="#efdd92"/><circle cx="273.5" cy="391.77000000000004" r="1.48" fill="#ff9eb5"/><circle cx="288.29" cy="391.77000000000004" r="1.48" fill="#fefefa"/><circle cx="303.07" cy="391.77000000000004" r="1.48" fill="#faf4db"/><circle cx="317.85" cy="391.77000000000004" r="1.48" fill="#e4c444"/><circle cx="332.64000000000004" cy="391.77000000000004" r="1.48" fill="#ffe8ed"/><circle cx="347.42" cy="391.77000000000004" r="1.48" fill="#4e6ce8"/><circle cx="362.20000000000005" cy="391.77000000000004" r="1.48" fill="#f7edc7"/><circle cx="376.99" cy="391.77000000000004" r="1.48" fill="#fefefb"/><circle cx="391.77000000000004" cy="391.77000000000004" r="1.48" fill="#d2daf9"/><circle cx="406.56" cy="391.77000000000004" r="1.48" fill="#5471e9"/><circle cx="7.390000000000001" cy="406.56" r="1.48" fill="#b3c0f5"/><circle cx="22.18" cy="406.56" r="1.48" fill="#e0bb27"/><circle cx="36.959999999999994" cy="406.56" r="1.48" fill="#ead16b"/><circle cx="51.739999999999995" cy="406.56" r="1.48" fill="#3a5ce5"/><circle cx="66.53" cy="406.56" r="1.48" fill="#ff698c"/><circle cx="81.31" cy="406.56" r="1.48" fill="#ead06b"/><circle cx="96.10000000000001" cy="406.56" r="1.48" fill="#e4e9fc"/><circle cx="110.88000000000001" cy="406.56" r="1.48" fill="#96a8f1"/><circle cx="125.66000000000001" cy="406.56" r="1.48" fill="#4f6de8"/><circle cx="140.45" cy="406.56" r="1.48" fill="#fefefb"/><circle cx="155.23" cy="406.56" r="1.48" fill="#a9b7f4"/><circle cx="170.01999999999998" cy="406.56" r="1.48" fill="#ffb0c3"/><circle cx="184.79999999999998" cy="406.56" r="1.48" fill="#d9dffa"/><circle cx="199.57999999999998" cy="406.56" r="1.48" fill="#efdc91"/><circle cx="214.36999999999998" cy="406.56" r="1.48" fill="#e9d069"/><circle cx="229.14999999999998" cy="406.56" r="1.48" fill="#4967e7"/><circle cx="243.92999999999998" cy="406.56" r="1.48" fill="#7088ec"/><circle cx="258.72" cy="406.56" r="1.48" fill="#ecd578"/><circle cx="273.5" cy="406.56" r="1.48" fill="#f5eabb"/><circle cx="288.29" cy="406.56" r="1.48" fill="#c2ccf7"/><circle cx="303.07" cy="406.56" r="1.48" fill="#ffecf1"/><circle cx="317.85" cy="406.56" r="1.48" fill="#d7defa"/><circle cx="332.64000000000004" cy="406.56" r="1.48" fill="#ff89a5"/><circle cx="347.42" cy="406.56" r="1.48" fill="#1c43e2"/><circle cx="362.20000000000005" cy="406.56" r="1.48" fill="#eef1fd"/><circle cx="376.99" cy="406.56" r="1.48" fill="#e4e8fb"/><circle cx="391.77000000000004" cy="406.56" r="1.48" fill="#faf5de"/><circle cx="406.56" cy="406.56" r="1.48" fill="#e3c139"/><circle cx="7.390000000000001" cy="421.34000000000003" r="1.48" fill="#dfb920"/><circle cx="22.18" cy="421.34000000000003" r="1.48" fill="#e2bf33"/><circle cx="36.959999999999994" cy="421.34000000000003" r="1.48" fill="#2b4fe3"/><circle cx="51.739999999999995" cy="421.34000000000003" r="1.48" fill="#ff5880"/><circle cx="66.53" cy="421.34000000000003" r="1.48" fill="#ff7696"/><circle cx="81.31" cy="421.34000000000003" r="1.48" fill="#96a7f1"/><circle cx="96.10000000000001" cy="421.34000000000003" r="1.48" fill="#ff95ae"/><circle cx="110.88000000000001" cy="421.34000000000003" r="1.48" fill="#e3c33f"/><circle cx="125.66000000000001" cy="421.34000000000003" r="1.48" fill="#3254e4"/><circle cx="140.45" cy="421.34000000000003" r="1.48" fill="#889cf0"/><circle cx="155.23" cy="421.34000000000003" r="1.48" fill="#e8ecfc"/><circle cx="170.01999999999998" cy="421.34000000000003" r="1.48" fill="#edd77e"/><circle cx="184.79999999999998" cy="421.34000000000003" r="1.48" fill="#fefdf8"/><circle cx="199.57999999999998" cy="421.34000000000003" r="1.48" fill="#3557e5"/><circle cx="214.36999999999998" cy="421.34000000000003" r="1.48" fill="#ffcbd7"/><circle cx="229.14999999999998" cy="421.34000000000003" r="1.48" fill="#e5c649"/><circle cx="243.92999999999998" cy="421.34000000000003" r="1.48" fill="#f4e8b6"/><circle cx="258.72" cy="421.34000000000003" r="1.48" fill="#ffe1e8"/><circle cx="273.5" cy="421.34000000000003" r="1.48" fill="#e7cc5b"/><circle cx="288.29" cy="421.34000000000003" r="1.48" fill="#f6ecc2"/><circle cx="303.07" cy="421.34000000000003" r="1.48" fill="#fafbfe"/><circle cx="317.85" cy="421.34000000000003" r="1.48" fill="#f0de97"/><circle cx="332.64000000000004" cy="421.34000000000003" r="1.48" fill="#ff6287"/><circle cx="347.42" cy="421.34000000000003" r="1.48" fill="#c6cff8"/><circle cx="362.20000000000005" cy="421.34000000000003" r="1.48" fill="#ff88a4"/><circle cx="376.99" cy="421.34000000000003" r="1.48" fill="#ff537c"/><circle cx="391.77000000000004" cy="421.34000000000003" r="1.48" fill="#f8efcd"/><circle cx="406.56" cy="421.34000000000003" r="1.48" fill="#edf0fd"/><circle cx="7.390000000000001" cy="436.12" r="1.48" fill="#e6c850"/><circle cx="22.18" cy="436.12" r="1.48" fill="#5a76ea"/><circle cx="36.959999999999994" cy="436.12" r="1.48" fill="#fafbfe"/><circle cx="51.739999999999995" cy="436.12" r="1.48" fill="#dfba22"/><circle cx="66.53" cy="436.12" r="1.48" fill="#778eed"/><circle cx="81.31" cy="436.12" r="1.48" fill="#ebd372"/><circle cx="96.10000000000001" cy="436.12" r="1.48" fill="#4d6be8"/><circle cx="110.88000000000001" cy="436.12" r="1.48" fill="#e3c33f"/><circle cx="125.66000000000001" cy="436.12" r="1.48" fill="#a6b5f3"/><circle cx="140.45" cy="436.12" r="1.48" fill="#f5e9b9"/><circle cx="155.23" cy="436.12" r="1.48" fill="#ebd373"/><circle cx="170.01999999999998" cy="436.12" r="1.48" fill="#fffbfc"/><circle cx="184.79999999999998" cy="436.12" r="1.48" fill="#ff577f"/><circle cx="199.57999999999998" cy="436.12" r="1.48" fill="#284ce3"/><circle cx="214.36999999999998" cy="436.12" r="1.48" fill="#f1e09d"/><circle cx="229.14999999999998" cy="436.12" r="1.48" fill="#fbf6e2"/><circle cx="243.92999999999998" cy="436.12" r="1.48" fill="#f8fafe"/><circle cx="258.72" cy="436.12" r="1.48" fill="#e9cf67"/><circle cx="273.5" cy="436.12" r="1.48" fill="#fbf7e4"/><circle cx="288.29" cy="436.12" r="1.48" fill="#ffa3b9"/><circle cx="303.07" cy="436.12" r="1.48" fill="#ff4470"/><circle cx="317.85" cy="436.12" r="1.48" fill="#ffcad6"/><circle cx="332.64000000000004" cy="436.12" r="1.48" fill="#395ae5"/><circle cx="347.42" cy="436.12" r="1.48" fill="#ff557d"/><circle cx="362.20000000000005" cy="436.12" r="1.48" fill="#ffa2b8"/><circle cx="376.99" cy="436.12" r="1.48" fill="#ffd5df"/><circle cx="391.77000000000004" cy="436.12" r="1.48" fill="#f4e6af"/><circle cx="406.56" cy="436.12" r="1.48" fill="#889cf0"/><circle cx="7.390000000000001" cy="450.91" r="1.48" fill="#dee3fb"/><circle cx="22.18" cy="450.91" r="1.48" fill="#fefdf9"/><circle cx="36.959999999999994" cy="450.91" r="1.48" fill="#fffbfc"/><circle cx="51.739999999999995" cy="450.91" r="1.48" fill="#f7eec8"/><circle cx="66.53" cy="450.91" r="1.48" fill="#ecd579"/><circle cx="81.31" cy="450.91" r="1.48" fill="#ffccd8"/><circle cx="96.10000000000001" cy="450.91" r="1.48" fill="#ff92ac"/><circle cx="110.88000000000001" cy="450.91" r="1.48" fill="#e7ebfc"/><circle cx="125.66000000000001" cy="450.91" r="1.48" fill="#a6b5f3"/><circle cx="140.45" cy="450.91" r="1.48" fill="#ead16d"/><circle cx="155.23" cy="450.91" r="1.48" fill="#f5eabb"/><circle cx="170.01999999999998" cy="450.91" r="1.48" fill="#ff88a4"/><circle cx="184.79999999999998" cy="450.91" r="1.48" fill="#f3f5fd"/><circle cx="199.57999999999998" cy="450.91" r="1.48" fill="#fffffe"/><circle cx="214.36999999999998" cy="450.91" r="1.48" fill="#ffb5c7"/><circle cx="229.14999999999998" cy="450.91" r="1.48" fill="#e3c139"/><circle cx="243.92999999999998" cy="450.91" r="1.48" fill="#ffc7d4"/><circle cx="258.72" cy="450.91" r="1.48" fill="#ff4f79"/><circle cx="273.5" cy="450.91" r="1.48" fill="#ffaec1"/><circle cx="288.29" cy="450.91" r="1.48" fill="#fbf5e0"/><circle cx="303.07" cy="450.91" r="1.48" fill="#5874e9"/><circle cx="317.85" cy="450.91" r="1.48" fill="#ffd4de"/><circle cx="332.64000000000004" cy="450.91" r="1.48" fill="#ff5980"/><circle cx="347.42" cy="450.91" r="1.48" fill="#e1be30"/><circle cx="362.20000000000005" cy="450.91" r="1.48" fill="#ff84a1"/><circle cx="376.99" cy="450.91" r="1.48" fill="#5b76ea"/><circle cx="391.77000000000004" cy="450.91" r="1.48" fill="#e1bd2c"/><circle cx="406.56" cy="450.91" r="1.48" fill="#3b5ce5"/><circle cx="7.390000000000001" cy="465.69" r="1.48" fill="#607bea"/><circle cx="22.18" cy="465.69" r="1.48" fill="#f8efcb"/><circle cx="36.959999999999994" cy="465.69" r="1.48" fill="#899df0"/><circle cx="51.739999999999995" cy="465.69" r="1.48" fill="#ffebf0"/><circle cx="66.53" cy="465.69" r="1.48" fill="#f5f6fe"/><circle cx="81.31" cy="465.69" r="1.48" fill="#3255e4"/><circle cx="96.10000000000001" cy="465.69" r="1.48" fill="#ffaabf"/><circle cx="110.88000000000001" cy="465.69" r="1.48" fill="#657feb"/><circle cx="125.66000000000001" cy="465.69" r="1.48" fill="#ffe7ed"/><circle cx="140.45" cy="465.69" r="1.48" fill="#ffa1b7"/><circle cx="155.23" cy="465.69" r="1.48" fill="#6680eb"/><circle cx="170.01999999999998" cy="465.69" r="1.48" fill="#657feb"/><circle cx="184.79999999999998" cy="465.69" r="1.48" fill="#ff4c77"/><circle cx="199.57999999999998" cy="465.69" r="1.48" fill="#e9edfc"/><circle cx="214.36999999999998" cy="465.69" r="1.48" fill="#e4c546"/><circle cx="229.14999999999998" cy="465.69" r="1.48" fill="#ecd477"/><circle cx="243.92999999999998" cy="465.69" r="1.48" fill="#ead06a"/><circle cx="258.72" cy="465.69" r="1.48" fill="#4363e7"/><circle cx="273.5" cy="465.69" r="1.48" fill="#ff5a81"/><circle cx="288.29" cy="465.69" r="1.48" fill="#2147e2"/><circle cx="303.07" cy="465.69" r="1.48" fill="#edd883"/><circle cx="317.85" cy="465.69" r="1.48" fill="#ffd3de"/><circle cx="332.64000000000004" cy="465.69" r="1.48" fill="#ff809f"/><circle cx="347.42" cy="465.69" r="1.48" fill="#93a5f1"/><circle cx="362.20000000000005" cy="465.69" r="1.48" fill="#8196ef"/><circle cx="376.99" cy="465.69" r="1.48" fill="#fdfbf2"/><circle cx="391.77000000000004" cy="465.69" r="1.48" fill="#f5e9b7"/><circle cx="406.56" cy="465.69" r="1.48" fill="#e1bd2c"/><circle cx="7.390000000000001" cy="480.47" r="1.48" fill="#ff4974"/><circle cx="22.18" cy="480.47" r="1.48" fill="#ff94ae"/><circle cx="36.959999999999994" cy="480.47" r="1.48" fill="#d7defa"/><circle cx="51.739999999999995" cy="480.47" r="1.48" fill="#ebeffc"/><circle cx="66.53" cy="480.47" r="1.48" fill="#ffb2c4"/><circle cx="81.31" cy="480.47" r="1.48" fill="#f5e8b6"/><circle cx="96.10000000000001" cy="480.47" r="1.48" fill="#d7defa"/><circle cx="110.88000000000001" cy="480.47" r="1.48" fill="#8398ef"/><circle cx="125.66000000000001" cy="480.47" r="1.48" fill="#ff9ab2"/><circle cx="140.45" cy="480.47" r="1.48" fill="#2046e2"/><circle cx="155.23" cy="480.47" r="1.48" fill="#8b9ff0"/><circle cx="170.01999999999998" cy="480.47" r="1.48" fill="#ffccd8"/><circle cx="184.79999999999998" cy="480.47" r="1.48" fill="#c9d2f8"/><circle cx="199.57999999999998" cy="480.47" r="1.48" fill="#607bea"/><circle cx="214.36999999999998" cy="480.47" r="1.48" fill="#768ded"/><circle cx="229.14999999999998" cy="480.47" r="1.48" fill="#f3e6af"/><circle cx="243.92999999999998" cy="480.47" r="1.48" fill="#f0df98"/><circle cx="258.72" cy="480.47" r="1.48" fill="#ff7b9a"/><circle cx="273.5" cy="480.47" r="1.48" fill="#bdc8f6"/><circle cx="288.29" cy="480.47" r="1.48" fill="#dfba23"/><circle cx="303.07" cy="480.47" r="1.48" fill="#4d6be8"/><circle cx="317.85" cy="480.47" r="1.48" fill="#ecd579"/><circle cx="332.64000000000004" cy="480.47" r="1.48" fill="#ffd8e1"/><circle cx="347.42" cy="480.47" r="1.48" fill="#b5c1f5"/><circle cx="362.20000000000005" cy="480.47" r="1.48" fill="#b5c1f5"/><circle cx="376.99" cy="480.47" r="1.48" fill="#ebd476"/><circle cx="391.77000000000004" cy="480.47" r="1.48" fill="#fcf9eb"/><circle cx="406.56" cy="480.47" r="1.48" fill="#ffcfda"/><circle cx="7.390000000000001" cy="495.26" r="1.48" fill="#ffbdcd"/><circle cx="22.18" cy="495.26" r="1.48" fill="#eeda89"/><circle cx="36.959999999999994" cy="495.26" r="1.48" fill="#869bef"/><circle cx="51.739999999999995" cy="495.26" r="1.48" fill="#ff7092"/><circle cx="66.53" cy="495.26" r="1.48" fill="#ff3968"/><circle cx="81.31" cy="495.26" r="1.48" fill="#e4c443"/><circle cx="96.10000000000001" cy="495.26" r="1.48" fill="#ffe2e9"/><circle cx="110.88000000000001" cy="495.26" r="1.48" fill="#ff7596"/><circle cx="125.66000000000001" cy="495.26" r="1.48" fill="#f1e19f"/><circle cx="140.45" cy="495.26" r="1.48" fill="#fff4f6"/><circle cx="155.23" cy="495.26" r="1.48" fill="#f4e7b4"/><circle cx="170.01999999999998" cy="495.26" r="1.48" fill="#3557e5"/><circle cx="184.79999999999998" cy="495.26" r="1.48" fill="#5d78ea"/><circle cx="199.57999999999998" cy="495.26" r="1.48" fill="#ff4c77"/><circle cx="214.36999999999998" cy="495.26" r="1.48" fill="#8096ef"/><circle cx="229.14999999999998" cy="495.26" r="1.48" fill="#3c5de6"/><circle cx="243.92999999999998" cy="495.26" r="1.48" fill="#e6c850"/><circle cx="258.72" cy="495.26" r="1.48" fill="#fff7f9"/><circle cx="273.5" cy="495.26" r="1.48" fill="#ff93ad"/><circle cx="288.29" cy="495.26" r="1.48" fill="#ff4773"/><circle cx="303.07" cy="495.26" r="1.48" fill="#ff3565"/><circle cx="317.85" cy="495.26" r="1.48" fill="#a5b5f3"/><circle cx="332.64000000000004" cy="495.26" r="1.48" fill="#ead26e"/><circle cx="347.42" cy="495.26" r="1.48" fill="#ff7092"/><circle cx="362.20000000000005" cy="495.26" r="1.48" fill="#95a7f1"/><circle cx="376.99" cy="495.26" r="1.48" fill="#ffecf1"/><circle cx="391.77000000000004" cy="495.26" r="1.48" fill="#e0bb25"/><circle cx="406.56" cy="495.26" r="1.48" fill="#667feb"/><circle cx="7.390000000000001" cy="510.04" r="1.48" fill="#efdc91"/><circle cx="22.18" cy="510.04" r="1.48" fill="#e0bc2a"/><circle cx="36.959999999999994" cy="510.04" r="1.48" fill="#e2c036"/><circle cx="51.739999999999995" cy="510.04" r="1.48" fill="#f2e3a7"/><circle cx="66.53" cy="510.04" r="1.48" fill="#eceffc"/><circle cx="81.31" cy="510.04" r="1.48" fill="#ffd2dc"/><circle cx="96.10000000000001" cy="510.04" r="1.48" fill="#ffabbf"/><circle cx="110.88000000000001" cy="510.04" r="1.48" fill="#f4e8b5"/><circle cx="125.66000000000001" cy="510.04" r="1.48" fill="#ff678b"/><circle cx="140.45" cy="510.04" r="1.48" fill="#1f45e2"/><circle cx="155.23" cy="510.04" r="1.48" fill="#f4e7b2"/><circle cx="170.01999999999998" cy="510.04" r="1.48" fill="#788fee"/><circle cx="184.79999999999998" cy="510.04" r="1.48" fill="#f2e2a4"/><circle cx="199.57999999999998" cy="510.04" r="1.48" fill="#e3c23d"/><circle cx="214.36999999999998" cy="510.04" r="1.48" fill="#fdfbf3"/><circle cx="229.14999999999998" cy="510.04" r="1.48" fill="#2e51e4"/><circle cx="243.92999999999998" cy="510.04" r="1.48" fill="#ff9cb4"/><circle cx="258.72" cy="510.04" r="1.48" fill="#ffc9d6"/><circle cx="273.5" cy="510.04" r="1.48" fill="#adbbf4"/><circle cx="288.29" cy="510.04" r="1.48" fill="#a3b2f3"/><circle cx="303.07" cy="510.04" r="1.48" fill="#ff7495"/><circle cx="317.85" cy="510.04" r="1.48" fill="#f6ebbf"/><circle cx="332.64000000000004" cy="510.04" r="1.48" fill="#fbf6e2"/><circle cx="347.42" cy="510.04" r="1.48" fill="#a5b4f3"/><circle cx="362.20000000000005" cy="510.04" r="1.48" fill="#647eeb"/><circle cx="376.99" cy="510.04" r="1.48" fill="#2e51e4"/><circle cx="391.77000000000004" cy="510.04" r="1.48" fill="#ffffff"/><circle cx="406.56" cy="510.04" r="1.48" fill="#fbf7e4"/><circle cx="7.390000000000001" cy="524.83" r="1.48" fill="#91a4f1"/><circle cx="22.18" cy="524.83" r="1.48" fill="#ffe5eb"/><circle cx="36.959999999999994" cy="524.83" r="1.48" fill="#fdfbf2"/><circle cx="51.739999999999995" cy="524.83" r="1.48" fill="#ff7e9d"/><circle cx="66.53" cy="524.83" r="1.48" fill="#ebd270"/><circle cx="81.31" cy="524.83" r="1.48" fill="#f9f1d3"/><circle cx="96.10000000000001" cy="524.83" r="1.48" fill="#f3e6ae"/><circle cx="110.88000000000001" cy="524.83" r="1.48" fill="#ffb4c5"/><circle cx="125.66000000000001" cy="524.83" r="1.48" fill="#758ced"/><circle cx="140.45" cy="524.83" r="1.48" fill="#f1e19e"/><circle cx="155.23" cy="524.83" r="1.48" fill="#a8b7f4"/><circle cx="170.01999999999998" cy="524.83" r="1.48" fill="#f1e09e"/><circle cx="184.79999999999998" cy="524.83" r="1.48" fill="#ecd67d"/><circle cx="199.57999999999998" cy="524.83" r="1.48" fill="#f4e6b1"/><circle cx="214.36999999999998" cy="524.83" r="1.48" fill="#ff91ab"/><circle cx="229.14999999999998" cy="524.83" r="1.48" fill="#ff97b0"/><circle cx="243.92999999999998" cy="524.83" r="1.48" fill="#e5eafc"/><circle cx="258.72" cy="524.83" r="1.48" fill="#ff6086"/><circle cx="273.5" cy="524.83" r="1.48" fill="#f7edc6"/><circle cx="288.29" cy="524.83" r="1.48" fill="#ff7b9a"/><circle cx="303.07" cy="524.83" r="1.48" fill="#fff7f9"/><circle cx="317.85" cy="524.83" r="1.48" fill="#f5e9ba"/><circle cx="332.64000000000004" cy="524.83" r="1.48" fill="#92a4f1"/><circle cx="347.42" cy="524.83" r="1.48" fill="#ff3f6d"/><circle cx="362.20000000000005" cy="524.83" r="1.48" fill="#ff5a81"/><circle cx="376.99" cy="524.83" r="1.48" fill="#ff91ab"/><circle cx="391.77000000000004" cy="524.83" r="1.48" fill="#95a7f1"/><circle cx="406.56" cy="524.83" r="1.48" fill="#e8cc5b"/><circle cx="7.390000000000001" cy="539.61" r="1.48" fill="#ff678b"/><circle cx="22.18" cy="539.61" r="1.48" fill="#e4c442"/><circle cx="36.959999999999994" cy="539.61" r="1.48" fill="#1b41e1"/><circle cx="51.739999999999995" cy="539.61" r="1.48" fill="#6c85ec"/><circle cx="66.53" cy="539.61" r="1.48" fill="#cdd5f9"/><circle cx="81.31" cy="539.61" r="1.48" fill="#fafbfe"/><circle cx="96.10000000000001" cy="539.61" r="1.48" fill="#ff8ea9"/><circle cx="110.88000000000001" cy="539.61" r="1.48" fill="#ff4370"/><circle cx="125.66000000000001" cy="539.61" r="1.48" fill="#ead06b"/><circle cx="140.45" cy="539.61" r="1.48" fill="#2a4ee3"/><circle cx="155.23" cy="539.61" r="1.48" fill="#fbfcff"/><circle cx="170.01999999999998" cy="539.61" r="1.48" fill="#f2e3a5"/><circle cx="184.79999999999998" cy="539.61" r="1.48" fill="#ff547d"/><circle cx="199.57999999999998" cy="539.61" r="1.48" fill="#f7edc4"/><circle cx="214.36999999999998" cy="539.61" r="1.48" fill="#7b92ee"/><circle cx="229.14999999999998" cy="539.61" r="1.48" fill="#c9d2f8"/><circle cx="243.92999999999998" cy="539.61" r="1.48" fill="#e9cf65"/><circle cx="258.72" cy="539.61" r="1.48" fill="#c5cff8"/><circle cx="273.5" cy="539.61" r="1.48" fill="#e8ecfc"/><circle cx="288.29" cy="539.61" r="1.48" fill="#ff8ba7"/><circle cx="303.07" cy="539.61" r="1.48" fill="#f2e2a4"/><circle cx="317.85" cy="539.61" r="1.48" fill="#8196ef"/><circle cx="332.64000000000004" cy="539.61" r="1.48" fill="#869aef"/><circle cx="347.42" cy="539.61" r="1.48" fill="#f5e8b6"/><circle cx="362.20000000000005" cy="539.61" r="1.48" fill="#ffb2c4"/><circle cx="376.99" cy="539.61" r="1.48" fill="#2247e2"/><circle cx="391.77000000000004" cy="539.61" r="1.48" fill="#e4c340"/><circle cx="406.56" cy="539.61" r="1.48" fill="#e5c74c"/></g></svg>