<svg xmlns="http://www.w3.org/2000/svg" version="1.1" xmlnsXlink="http://www.w3.org/1999/xlink" xmlnsSvgjs="http://svgjs.dev/svgjs" viewBox="0 0 800 800" opacity="1"><defs><linearGradient x1="50%" y1="0%" x2="50%" y2="100%" id="uundulate-grad"><stop stop-color="#feb703" stop-opacity="1" offset="45%"></stop><stop stop-color="#db2777" stop-opacity="1" offset="100%"></stop></linearGradient></defs><g stroke-width="2" stroke="url(#uundulate-grad)" fill="none"><path d="M736.8088706339438 415.4450486563942C754.0575404322044 556.1402335292912 444.0204166933994 711.9019652131167 304.4186696614066 736.4784556428671C164.81692262941385 761.0549460726174 83.96915467863994 674.1073875920931 66.72048488037944 533.4122027191961C49.47181508211895 392.7170178462991 82.02330759776339 85.71805868271213 221.62505462975616 61.14156825296163C361.2268016617488 36.5650778232112 719.5602008356832 274.7498637834972 736.8088706339438 415.4450486563942C754.0575404322044 556.1402335292912 444.0204166933994 711.9019652131167 304.4186696614066 736.4784556428671 "></path><path d="M714.3549398214986 414.4153767114626C730.4536982998751 545.7308825928333 441.08571614365724 691.1084988310704 310.7907522471306 714.0465565655041C180.49578835060402 736.9846142999379 105.03787159654831 655.8335597181151 88.93911311817186 524.5180538367445C72.84035463979541 393.20254795537403 103.22174765439684 106.67018606935943 233.51671155092345 83.73212833492568C363.81167544745006 60.79407060049192 698.2561813431222 283.0998708300922 714.3549398214986 414.4153767114626C730.4536982998751 545.7308825928333 441.08571614365724 691.1084988310704 310.7907522471306 714.0465565655041 "></path><path d="M691.9010090090534 413.38570476653126C706.8498561675458 535.3215316563752 438.15101559391496 670.315032449024 317.1628348328545 691.6146574881411C196.17465407179412 712.9142825272581 126.10658851445669 637.559731844137 111.15774135596428 515.6239049542928C96.20889419747186 393.68807806444875 124.42018771103034 127.62231345600674 245.40836847209073 106.32268841688966C366.3965492331512 85.02306337777264 676.952161850561 291.4498778766871 691.9010090090534 413.38570476653126C706.8498561675458 535.3215316563752 438.15101559391496 670.315032449024 317.1628348328545 691.6146574881411 "></path><path d="M669.4471087141862 412.3560328215997C683.2460445527947 524.9121807199174 435.2163455617508 649.5215660669777 323.5349479361565 669.1827584107781C211.85355031056235 688.8439507545784 147.1753359499432 619.2859039701589 133.37640011133482 506.7297560718414C119.57746427272639 394.1736081735237 145.61865828524196 148.57444084265404 257.30005591083614 128.9132484988537C368.9814535364304 109.25205615505331 655.6481728755779 299.7998849232821 669.4471087141862 412.3560328215997C683.2460445527947 524.9121807199174 435.2163455617508 649.5215660669777 323.5349479361565 669.1827584107781 "></path><path d="M646.9931779017411 411.3263761354573C659.6422024204654 514.5028450422485 432.28164501200854 628.7281149437205 329.90703052188053 646.7508745922041C227.53241603175246 664.7736342406878 168.24405286785156 601.0120913549699 155.59502834912723 497.8356224481788C142.94600383040284 394.6591535413876 166.8170983418754 169.5265834880904 269.1917128320035 151.50382383960675C371.56632732213143 133.4810641911231 634.3441533830168 308.14990722866617 646.9931779017411 411.3263761354573C659.6422024204654 514.5028450422485 432.28164501200854 628.7281149437205 329.90703052188053 646.7508745922041 "></path><path d="M624.5392470892959 410.2967041905258C636.0383602881361 504.09349410579057 429.34694446226626 607.9346485616742 336.2791131076044 624.3189755148412C243.21128175294257 640.703302468008 189.31276978575994 582.7382634809918 177.81365658691965 488.94147356572716C166.3145433880793 395.1446836504624 188.0155383985089 190.47871087473777 281.08336975317076 174.0943839215708C374.15120110783255 157.71005696840382 613.0401338904555 316.4999142752612 624.5392470892959 410.2967041905258C636.0383602881361 504.09349410579057 429.34694446226626 607.9346485616742 336.2791131076044 624.3189755148412 "></path><path d="M602.0853315356396 409.2670169868053C612.434533414596 493.68412791054357 426.41225917131305 587.1411669208387 342.6512109521175 601.887061178689C258.89016273292174 616.6329554365393 210.38150196245738 564.4644203482246 200.03230008350113 480.04730942448646C189.68309820454482 395.6301985007483 209.21399371393147 211.43082300259601 292.97504193312716 196.68492874474572C376.73609015232273 181.93903448689548 591.7361296566835 324.849906063067 602.0853315356396 409.2670169868053C612.434533414596 493.68412791054357 426.41225917131305 587.1411669208387 342.6512109521175 601.887061178689 "></path><path d="M579.6313702056163 408.2373450418738C588.8306607646887 483.2747769740855 423.47752810399265 566.3477005387924 349.02326302026324 579.455162101326C274.5689979365338 592.5626236638595 231.45018836278763 546.1905924742466 222.25089780371536 471.1531605420348C213.05160724464315 396.1157286098231 230.4124032529868 232.38295038924332 304.8666683367163 219.27548882670976C379.3209334204457 206.1680272641762 570.4320796465441 333.199913109662 579.6313702056163 408.2373450418738C588.8306607646887 483.2747769740855 423.47752810399265 566.3477005387924 349.02326302026324 579.455162101326 "></path><path d="M557.1774699107493 407.2076578381532C565.2268491499376 472.8654107788385 420.5428580718286 545.5542188979571 355.3953761235653 557.0232477651739C290.247894175302 568.4922766323908 252.51893579827413 527.9167493414794 244.4695565590859 462.2589964007941C236.42017731989768 396.6012434601089 251.61087382719842 253.33506251710156 316.7583557754617 241.86603364988468C381.905837723725 230.3970047826678 549.128090671561 341.54990489746797 557.1774699107493 407.2076578381532C565.2268491499376 472.8654107788385 420.5428580718286 545.5542188979571 355.3953761235653 557.0232477651739 "></path><path d="M534.7235390983041 406.1780316695889C541.6230070176083 462.45610561874776 417.60815752208634 524.760798292278 361.7674587092892 534.5913944641782C305.9267598964921 544.4219906360782 273.58765271618256 509.6429672438685 266.6881847968783 453.36489329470976C259.78871687757413 397.0868193455509 272.8093138838319 274.2872356801161 328.650012696629 264.4566395082159C384.49071150942615 254.62604333631572 527.8240711789999 349.8999577204301 534.7235390983041 406.1780316695889C541.6230070176083 462.45610561874776 417.60815752208634 524.760798292278 361.7674587092892 534.5913944641782 "></path><path d="M512.2696082858589 405.1483444658684C518.019164885279 452.04673942350075 414.67345697234407 503.9673166514426 368.13954129501315 512.1594801280261C321.6056256176822 520.3516436046095 294.65636963409094 491.3691241111014 288.90681303467073 444.47072915346905C283.1572564352506 397.5723341958367 294.00775394046536 295.23934780797435 340.54166961779634 287.04718433139084C387.0755852951272 278.8550208548074 506.5200516864387 358.24994950823606 512.2696082858589 405.1483444658684C518.019164885279 452.04673942350075 414.67345697234407 503.9673166514426 368.13954129501315 512.1594801280261 "></path><path d="M489.81567747341364 404.1186725209369C494.4153227529498 441.63738848704276 411.7387564226018 483.1738502693962 374.5116238807371 489.72758105066305C337.28449133887233 496.28131183192977 315.7250865519993 473.0952962371233 311.12544127246315 435.5765802710174C306.52579599292704 398.05786430491156 315.20619399709886 316.19147519462166 352.4333265389636 309.6377444133549C389.66045908082833 303.0840136320881 485.2160321938775 366.599956554831 489.81567747341364 404.1186725209369C494.4153227529498 441.63738848704276 411.7387564226018 483.1738502693962 374.5116238807371 489.72758105066305 "></path><path d="M467.36177717854656 403.0890005760054C470.8115111381987 431.2280375505848 408.8040863904377 462.3803838873499 380.88373698403916 467.2956819733C352.96338757764056 472.21098005925006 336.7938339874858 454.8214683631452 333.3441000278337 426.6824313885658C329.8943660681816 398.5433944139864 336.4046645713105 337.14360258126896 364.32501397770903 332.22830449531887C392.2453633841076 327.3130064093688 463.9120432188945 374.949963601426 467.36177717854656 403.0890005760054C470.8115111381987 431.2280375505848 408.8040863904377 462.3803838873499 380.88373698403916 467.2956819733 "></path><path d="M444.90784636610135 402.059343889863C447.20766900586943 420.8187018729159 405.86938584069543 441.58693276409264 387.25581956976305 444.86379815472606C368.6422532988307 448.1406635453594 357.8625509053942 436.5476557479562 355.5627282656261 417.78829776490323C353.262905625858 399.0289397818503 357.603104627944 358.0957452267054 376.2166708988763 354.81887983607197C394.8302371698087 351.54201444543855 442.6080237263333 383.29998590681004 444.90784636610135 402.059343889863C447.20766900586943 420.8187018729159 405.86938584069543 441.58693276409264 387.25581956976305 444.86379815472606 "></path><path d="M422.4539308124452 401.02967194493147C423.60384213232925 410.40935093645794 402.9347005497423 420.7934663820463 393.62791741427606 422.431899077363C384.3211342788099 424.0703317726797 378.9312830820916 418.27382787397806 377.7813717622076 408.89414888245165C376.63146044232354 399.51446989092517 378.8015599433665 379.0478726133527 388.1083430788327 377.40943991803596C397.4151262142989 375.7710072227193 421.30401949256117 391.649992953405 422.4539308124452 401.02967194493147C423.60384213232925 410.40935093645794 402.9347005497423 420.7934663820463 393.62791741427606 422.431899077363 "></path></g></svg>